<?xml version="1.0" standalone="no"?>
<!DOCTYPE svg PUBLIC "-//W3C//DTD SVG 1.1//EN" "http://www.w3.org/Graphics/SVG/1.1/DTD/svg11.dtd" >
<svg xmlns="http://www.w3.org/2000/svg">
<metadata></metadata>
<defs>
<font id="cotlincbold" horiz-adv-x="925" >
<font-face units-per-em="2048" ascent="1608" descent="-440" />
<missing-glyph horiz-adv-x="798" />
<glyph horiz-adv-x="2048" />
<glyph horiz-adv-x="2048" />
<glyph unicode="&#xd;" horiz-adv-x="2048" />
<glyph unicode=" "  horiz-adv-x="798" />
<glyph unicode="&#x09;" horiz-adv-x="798" />
<glyph unicode="&#xa0;" horiz-adv-x="798" />
<glyph unicode="!" horiz-adv-x="423" d="M82 88q0 42 51.5 92.5t87.5 50.5q38 0 79.5 -44.5t41.5 -84.5q0 -39 -49 -89t-90 -50q-34 0 -77.5 42.5t-43.5 82.5zM102 1237q0 33 84 33q15 0 65.5 -7.5t100.5 -7.5q31 0 31 -18q0 -29 -22.5 -83.5t-26.5 -82.5l-96 -682q-2 -14 -19.5 -26.5t-36.5 -12.5q-39 0 -39 19 l-37 843q-4 16 -4 25z" />
<glyph unicode="&#x22;" d="M41 1155q0 54 39 86.5t110 32.5q41 0 74 -36t33 -87q0 -44 -13.5 -90.5t-27.5 -111t-14 -154.5h-117q0 73 -13 127.5t-29 81t-29 66t-13 85.5zM356 1155q0 54 39.5 86.5t110.5 32.5q41 0 73.5 -36t32.5 -87q0 -44 -14 -90.5t-27.5 -111t-13.5 -154.5h-117q0 73 -13 127.5 t-29 81t-29 66t-13 85.5z" />
<glyph unicode="#" horiz-adv-x="1394" d="M31 461l26 127h336l41 192h-336l31 127h332l88 408h143l-86 -408h242l90 408h145l-86 -408h338l-32 -127h-332l-41 -192h334l-31 -127h-332l-88 -420h-145l88 420h-244l-90 -420h-146l91 420h-336zM539 588h247l39 192h-245z" />
<glyph unicode="$" horiz-adv-x="946" d="M68 -10q0 29 9 73.5t9 59.5q0 26 -9 100.5t-9 141.5q0 7 19.5 18.5t35.5 11.5q20 0 20 -30q0 -99 79.5 -167t183.5 -83v479q-60 16 -100 29t-89.5 38.5t-78.5 56t-49.5 80t-20.5 111.5q0 158 95 253.5t243 111.5v96h112v-96q5 -1 54 -19t92 -18q16 0 40 18.5t48 18.5 q25 0 33 -20.5t8 -59.5q0 -42 13 -127t13 -119q0 -11 -21.5 -31t-37.5 -20q-17 0 -17 14q0 82 -69 152.5t-156 93.5v-428q47 -10 79 -18t75.5 -23t72.5 -31t60.5 -41.5t50.5 -56t31 -73t12 -93.5q0 -145 -114.5 -275t-266.5 -155v-127h-112v127q-26 4 -88.5 20.5t-86.5 16.5 q-55 0 -73 -18q-19 -19 -56 -19q-34 0 -34 27zM244 991q0 -87 42 -139t120 -84v391q-74 -6 -118 -47.5t-44 -120.5zM518 115q83 13 136 65t53 142q0 92 -49.5 145t-139.5 88v-440z" />
<glyph unicode="%" horiz-adv-x="1372" d="M61 848q0 63 15 126.5t45 121t71.5 101.5t99.5 70.5t124 26.5q72 0 123.5 -32.5t77 -87.5t36.5 -111.5t11 -120.5q0 -116 -43.5 -215t-131 -162t-202.5 -63q-73 0 -126 54.5t-76.5 130.5t-23.5 161zM199 936q0 -42 3.5 -81.5t14.5 -84.5t29 -78.5t49 -55.5t72 -22 q159 0 159 279q0 48 -8.5 93.5t-28 91.5t-60 74t-97.5 28q-40 0 -68.5 -26t-41.5 -67.5t-18 -77.5t-5 -73zM326 23q0 14 12 32q57 74 97 141.5t108 206.5l434 871q9 20 41 20q38 0 63 -20.5t25 -40.5q0 -16 -11 -36t-33.5 -53.5t-37.5 -62.5l-492 -944q-12 -23 -32.5 -69.5 t-44.5 -90.5q-8 -14 -27 -14q-30 0 -65.5 20t-36.5 40zM774 309q0 108 40 208.5t123 169.5t191 69q58 0 103.5 -22.5t72 -57.5t43.5 -83.5t23 -94t6 -95.5q0 -116 -43.5 -215t-131 -162t-202.5 -63q-73 0 -126 54.5t-76 130.5t-23 161zM911 397q0 -42 3.5 -81t14.5 -84.5 t29 -78.5t49 -55t72 -22q160 0 160 278q0 48 -8.5 93.5t-28.5 91.5t-60.5 74t-97.5 28q-40 0 -68.5 -26t-41.5 -67.5t-18 -77.5t-5 -73z" />
<glyph unicode="&#x26;" horiz-adv-x="1396" d="M41 395q0 51 13.5 99.5t34 88t52.5 81t62 74t69 72.5q4 3 5.5 5t4.5 5l5 5q-16 16 -31.5 57t-15.5 103q0 65 27.5 121t71 91.5t95 56t101.5 20.5q64 0 116 -18.5t70 -18.5h11h13.5t12 1.5t14.5 3.5t13 7t14 11q13 13 30 14.5t28 -5.5t11 -16q-2 -80 18.5 -144t20.5 -103 q0 -22 -36 -39q-33 -15 -39 -1q-1 1 -1 3q-6 57 -46 96.5t-95 56.5t-119 17q-56 0 -104.5 -42.5t-48.5 -95.5q0 -64 18 -102t82 -108l369 -406q49 103 49 256q0 57 -35.5 87.5t-97.5 12.5q-14 -4 -24 14t-9 39t14 25q167 48 205 68q18 9 39.5 25t48.5 38.5t43 34.5 q12 8 31 -3.5t26.5 -28t-1.5 -27.5q-42 -34 -76.5 -77t-34.5 -81q0 -20 3 -53t3 -53q0 -178 -104 -349q12 -13 50 -55.5t58.5 -62.5t56 -40t68.5 -20q19 0 32.5 2t26.5 9.5t19.5 12.5t23 20.5t25.5 23.5q8 8 23.5 -5.5t24 -33.5t-0.5 -27q-27 -21 -77.5 -70.5t-85 -67 t-87.5 -17.5q-40 0 -77 14t-73.5 44.5t-58.5 52.5t-59 65q-84 -89 -195 -142t-225 -53q-85 0 -159.5 36.5t-125.5 96.5t-80.5 138t-29.5 161zM217 465q0 -148 103.5 -249t252.5 -101q75 0 128.5 23.5t91.5 80.5l-457 520q-63 -68 -91 -129.5t-28 -144.5z" />
<glyph unicode="'" d="M61 1257q0 44 53.5 90t94.5 46q37 0 75 -43t38 -84q0 -88 -45.5 -185.5t-116.5 -162.5q-9 -9 -25 -9q-22 0 -40.5 11.5t-18.5 27.5q0 12 12 21q80 76 80 159q0 11 -16.5 25.5t-37 28t-37 34t-16.5 41.5z" />
<glyph unicode="(" horiz-adv-x="604" d="M88 528q0 215 72 412t219 430q14 25 59 25q30 0 53 -12t23 -31q0 -10 -6 -19q-72 -99 -116 -170.5t-80.5 -154t-52 -167.5t-15.5 -186q0 -198 63.5 -380.5t190.5 -329.5q10 -10 10 -31q0 -41 -46 -89t-81 -48q-11 0 -21 10q-272 329 -272 741z" />
<glyph unicode=")" horiz-adv-x="604" d="M88 -180q0 9 6 18q72 99 116 170.5t80.5 154t52 167.5t15.5 186q0 198 -63.5 381t-190.5 330q-10 10 -10 30q0 42 46 90t81 48q10 0 21 -11q272 -329 272 -741q0 -215 -72 -412t-219 -430q-13 -24 -59 -24q-30 0 -53 12t-23 31z" />
<glyph unicode="*" horiz-adv-x="946" d="M41 1090q0 30 56.5 77t82.5 47q24 0 104 -32t119 -58q-12 172 -12 269q0 19 45 33t92 14q56 0 56 -27q0 -42 -6.5 -134t-6.5 -157q56 29 143.5 60.5t119.5 31.5q28 0 46.5 -29t18.5 -67q0 -29 -17 -49.5t-53 -24.5q-41 -5 -78.5 -12.5t-54 -12t-53 -16t-45.5 -14.5 q28 -58 63 -106t60.5 -71.5t43 -42t17.5 -26.5q0 -26 -58.5 -60t-94.5 -34q-57 0 -158 256q-87 -101 -147 -243q-12 -25 -35 -25q-41 0 -79 31t-38 57q0 27 64 104.5t143 147.5q-48 24 -146.5 44.5t-175.5 49.5q-16 6 -16 19z" />
<glyph unicode="+" horiz-adv-x="1230" d="M180 520v117h369v328h117v-328h368v-117h-368v-327h-117v327h-369z" />
<glyph unicode="," d="M61 92q0 44 53.5 89.5t94.5 45.5q37 0 75 -43t38 -84q0 -88 -45.5 -185.5t-116.5 -162.5q-8 -8 -25 -8q-22 0 -40.5 11.5t-18.5 27.5q0 11 12 20q80 76 80 160q0 11 -16.5 25.5t-37 28t-37 34t-16.5 41.5z" />
<glyph unicode="-" horiz-adv-x="655" d="M117 408v116h420v-116h-420z" />
<glyph unicode="." horiz-adv-x="391" d="M61 88q0 42 52 92.5t88 50.5q38 0 79.5 -44.5t41.5 -84.5q0 -39 -49.5 -89t-90.5 -50q-34 0 -77.5 42.5t-43.5 82.5z" />
<glyph unicode="/" horiz-adv-x="788" d="M-2 23q0 14 12 32q57 74 97 141.5t108 206.5l434 871q9 20 41 20q38 0 63 -20.5t25 -40.5q0 -16 -11 -36t-33.5 -53.5t-37.5 -62.5l-491 -944q-12 -23 -33 -69.5t-45 -90.5q-8 -14 -27 -14q-30 0 -65.5 20t-36.5 40z" />
<glyph unicode="0" d="M8 571q0 74 15.5 155t45.5 162t76.5 154t103.5 129.5t132.5 89.5t159.5 33q72 0 131.5 -29t99.5 -78.5t69.5 -110t45.5 -130t23.5 -131.5t7.5 -121q0 -78 -14 -160.5t-41 -165t-71 -155t-99 -129t-130 -89t-160 -32.5q-81 0 -149 40.5t-112.5 104.5t-75.5 145.5 t-44.5 162t-13.5 155.5zM209 645q0 -66 5.5 -131.5t22.5 -142.5t44 -134.5t74 -96t108 -38.5q63 0 111 39t74 95t42.5 131t21.5 134t5 117q0 71 -5 135.5t-21 141t-42.5 131.5t-74.5 92t-111 37q-59 0 -105 -36t-73.5 -90t-45 -125.5t-24 -134.5t-6.5 -124z" />
<glyph unicode="1" d="M154 1032q0 15 20 21q209 57 305 184q27 37 64 37q17 0 29 -12.5t12 -24.5v-1071q0 -63 28.5 -84t98.5 -21q18 0 18 -16q0 -1 -8 -29q-5 -16 -27 -16h-438q-12 0 -12 12q0 1 6 19l2 6q2 6 2.5 7t3 5.5t4.5 5t5.5 3t7.5 3t10 0.5q55 0 80.5 24.5t25.5 80.5v821 q0 18 -9 27.5t-22 9.5q-35 0 -96 -18.5t-65 -18.5q-14 0 -29.5 15t-15.5 30z" />
<glyph unicode="2" horiz-adv-x="901" d="M37 0v76q0 30 10.5 54t40.5 54q55 58 146 138t160 143t138 136t106.5 147.5t37.5 146.5q0 107 -65.5 176.5t-176.5 69.5q-68 0 -134 -56.5t-91 -123.5q-4 -12 -23 -21.5t-36 -9.5q-29 0 -29 18q0 9 4 21l72 268q5 20 15.5 28.5t41.5 8.5q16 0 51.5 -18.5t61.5 -18.5 q28 0 55.5 14.5t64.5 28.5t88 14q91 0 161.5 -49.5t105.5 -127t35 -167.5q0 -80 -34.5 -160.5t-89.5 -146.5t-121 -128.5t-132.5 -115t-121.5 -97t-89.5 -83.5t-34.5 -67h403q39 0 75.5 34t54.5 67.5t22 53.5q1 9 15 16t28 7q9 0 18 -4.5t14 -9t5 -5.5l-60 -288 q-5 -23 -41 -23h-751z" />
<glyph unicode="3" d="M8 270l148 142q14 14 32 14q17 0 32.5 -10.5t15.5 -22.5q0 -9 -11 -20q-41 -38 -41 -103q0 -69 66 -112t162 -43q116 0 194 89t78 210q0 112 -82 176.5t-201 64.5q-29 0 -43 13.5t-14 33.5q0 29 18 50l265 325q10 10 10 17q0 10 -16 10h-273q-79 0 -118 -32t-74 -105 q-4 -10 -20 -15.5t-30 -5.5q-15 0 -20.5 8t-5.5 15l65 268q9 37 39 37q9 0 24.5 -9t43.5 -18.5t67 -9.5h455q41 0 41 -35q0 -28 -29 -69l-266 -332q62 0 125 -20t117.5 -57t88.5 -97t34 -133q0 -103 -51 -199.5t-130.5 -164t-177 -108t-190.5 -40.5q-59 0 -113 14.5 t-104.5 45.5t-80.5 89.5t-30 138.5z" />
<glyph unicode="4" d="M2 463q0 33 16 57q338 457 521 692q20 26 59.5 44t71.5 18q61 0 61 -35q0 -7 -10 -34.5t-10 -45.5v-618q47 0 82 6.5t49.5 15t25 15t13.5 6.5q13 0 25 -14.5t12 -28.5q0 -4 -4 -9.5t-11.5 -12.5t-15.5 -13.5t-20 -16.5t-21 -18q-69 -63 -135 -63v-242q0 -63 28.5 -84 t98.5 -21q18 0 18 -16q0 -1 -8 -29q-5 -16 -27 -16h-438q-12 0 -12 12q0 1 6 19l2 6q2 6 2.5 7t3 5.5t4.5 5t5.5 3t7.5 3t10 0.5q55 0 80.5 24.5t25.5 80.5v242h-444q-31 0 -51.5 16t-20.5 39zM176 541h342v467q-110 -126 -181 -223.5t-161 -243.5z" />
<glyph unicode="5" d="M20 252l148 141q15 15 33 15q17 0 32 -10.5t15 -22.5q0 -11 -10 -21q-41 -38 -41 -102q0 -69 65.5 -112.5t161.5 -43.5q119 0 192.5 86t73.5 213q0 125 -69.5 213t-192.5 88q-82 0 -178 -57q-15 -10 -43 -10q-47 0 -47 22q0 15 4 39l61 477q4 30 21.5 46t38 20t51.5 4 h401q24 0 44 10.5t31.5 20.5t16.5 10q14 0 29.5 -8t15.5 -15q0 -56 -69 -114t-135 -58h-338l-35 -270q57 22 93 28.5t85 6.5q108 0 202 -45t154 -132.5t60 -197.5q0 -135 -75 -253t-200.5 -187.5t-267.5 -69.5q-46 0 -90 8.5t-88 29.5t-76.5 52.5t-53 83t-20.5 115.5z" />
<glyph unicode="6" d="M33 475q0 103 21.5 195.5t55 163t88 141.5t106 122t122.5 113q49 43 121 43q23 0 84 10.5t98 10.5q19 0 19 -23q0 -21 -14 -40t-34 -19q-81 0 -161.5 -42.5t-139.5 -106.5t-99.5 -138.5t-51.5 -140.5q154 104 317 104q147 0 234.5 -112.5t87.5 -268.5q0 -130 -64 -251.5 t-173 -197t-232 -75.5q-121 0 -210.5 74t-132 188t-42.5 250zM233 586q0 -486 222 -486q54 0 96 20t67 51t41 72.5t21.5 79.5t5.5 78q0 330 -233 330q-63 0 -126 -39.5t-94 -105.5z" />
<glyph unicode="7" d="M14 969l66 268q9 37 39 37q9 0 24.5 -9t43.5 -18.5t67 -9.5h459q45 0 77 18.5t60 18.5q12 0 30.5 -12.5t18.5 -26.5q0 -8 -6 -14q-146 -162 -256.5 -336.5t-183 -386t-72.5 -412.5q0 -37 -56.5 -80t-95.5 -43q-22 0 -41.5 12.5t-19.5 30.5q0 300 139 582.5t371 496.5 q4 4 4 11q0 8 -12 8h-387q-79 0 -118.5 -32.5t-74.5 -104.5q-4 -10 -19.5 -15.5t-29.5 -5.5q-10 0 -17 5t-8.5 10t-1.5 8z" />
<glyph unicode="8" d="M27 301q0 66 23.5 121t67 95.5t87.5 68t102 53.5q-92 37 -146.5 102t-54.5 154q0 104 67 193t165 137.5t197 48.5q116 0 205 -84.5t89 -216.5q0 -110 -58 -189t-150 -92q110 -24 194 -111t84 -192q0 -89 -45 -170.5t-115.5 -136t-156.5 -87t-168 -32.5q-64 0 -132 24.5 t-125 67t-93.5 107.5t-36.5 139zM203 356q0 -117 75.5 -186.5t190.5 -69.5q107 0 180.5 60t73.5 164q0 38 -14 72.5t-41.5 62t-56.5 50t-70 43t-70.5 33t-69.5 27.5q-83 -34 -140.5 -104t-57.5 -152zM274 950q0 -44 17 -79t39.5 -56.5t62 -40.5t66 -28t71.5 -21 q59 22 95.5 78t36.5 129q0 108 -59 156.5t-152 48.5q-81 0 -129 -51t-48 -136z" />
<glyph unicode="9" d="M27 780q0 119 73.5 234.5t192 187.5t242.5 72q90 0 163 -47.5t116 -124t66 -165t23 -177.5q0 -242 -106 -452t-293 -304q-45 -22 -144 -22q-18 0 -64.5 -9.5t-90.5 -9.5q-19 0 -19 25q0 22 19 46.5t39 24.5q100 0 179.5 28.5t130.5 76t85.5 113.5t48.5 135.5t14 146.5 q-77 -77 -154 -114t-179 -37q-79 0 -145.5 35t-108.5 90t-65 119.5t-23 127.5zM227 827q0 -49 14 -97t41.5 -90.5t76 -68.5t110.5 -26q106 0 169.5 75t63.5 177q0 80 -12 140.5t-39 106t-72.5 69.5t-109.5 24q-58 0 -106.5 -30.5t-76.5 -78t-43.5 -100t-15.5 -101.5z" />
<glyph unicode=":" horiz-adv-x="389" d="M61 88q0 42 52 92.5t88 50.5q38 0 79.5 -44.5t41.5 -84.5q0 -39 -49.5 -89t-90.5 -50q-34 0 -77.5 42.5t-43.5 82.5zM61 645q0 42 52 92.5t88 50.5q38 0 79.5 -44.5t41.5 -84.5q0 -39 -49.5 -89t-90.5 -50q-34 0 -77.5 42.5t-43.5 82.5z" />
<glyph unicode=";" horiz-adv-x="389" d="M61 92q0 44 53.5 89.5t94.5 45.5q37 0 75 -43t38 -84q0 -88 -45.5 -185.5t-116.5 -162.5q-8 -8 -25 -8q-22 0 -40.5 11.5t-18.5 27.5q0 11 12 20q80 76 80 160q0 11 -16.5 25.5t-37 28t-37 34t-16.5 41.5zM61 645q0 42 52 92.5t88 50.5q38 0 79.5 -44.5t41.5 -84.5 q0 -39 -49.5 -89t-90.5 -50q-34 0 -77.5 42.5t-43.5 82.5z" />
<glyph unicode="&#x3c;" horiz-adv-x="1179" d="M119 535q0 25 10 63q4 15 30 27t67 24.5t55 18.5l712 321q24 12 41 12q19 0 38.5 -45t19.5 -73q0 -12 -8 -20.5t-17 -12t-29 -9.5t-30 -10l-684 -264l641 -229q7 -3 39 -10t48.5 -16t16.5 -25q0 -53 -38 -87t-73 -34q-28 0 -51 10l-692 266q-16 6 -40.5 8t-35.5 7.5 t-14 23.5q-6 30 -6 54z" />
<glyph unicode="=" horiz-adv-x="1241" d="M193 387v117h854v-117h-854zM193 655v117h854v-117h-854z" />
<glyph unicode="&#x3e;" horiz-adv-x="1179" d="M117 285q0 12 8 20.5t17 12t28.5 9t30.5 9.5l684 264l-641 229q-6 2 -38.5 9.5t-49.5 17t-17 25.5q0 53 38 86.5t73 33.5q28 0 51 -10l692 -266q16 -6 40.5 -8t35.5 -7.5t14 -23.5q7 -35 7 -53q0 -22 -11 -64q-4 -15 -30 -27t-66.5 -24t-54.5 -18l-713 -322 q-24 -12 -41 -12q-19 0 -38 45t-19 74z" />
<glyph unicode="?" horiz-adv-x="790" d="M41 1004q0 47 26.5 123t26.5 110q0 13 14.5 25t28.5 12q8 0 20 -9t38 -18.5t67 -9.5q26 0 109.5 18.5t134.5 18.5q105 0 167 -83t62 -206q0 -49 -15 -92t-39 -75.5t-53 -62.5t-58 -57t-53 -53.5t-39 -58.5t-15 -66q0 -19 12 -29.5t26 -14t26 -15.5t12 -33q0 -19 -15 -31 t-44.5 -22.5t-37.5 -14.5t-28 -20.5t-42.5 -26.5t-52.5 -10q-28 0 -28 92q0 72 27.5 135.5t66.5 110.5t78 91.5t66.5 96.5t27.5 107q0 91 -67.5 149t-180.5 58q-64 0 -121 -45t-71 -90q-4 -15 -19 -25t-32 -10q-25 0 -25 31zM246 88q0 42 51.5 92.5t87.5 50.5 q38 0 79.5 -44.5t41.5 -84.5q0 -39 -49 -89t-90 -50q-34 0 -77.5 42.5t-43.5 82.5z" />
<glyph unicode="@" horiz-adv-x="1134" d="M61 668q0 108 16.5 208t55.5 195.5t98.5 165.5t152 113t208.5 43q115 0 210 -60t156 -159.5t94 -225t33 -260.5q0 -41 -0.5 -64t-2.5 -61.5t-6 -61t-12 -54t-19 -50.5t-28.5 -40.5t-40 -33t-53 -19t-67.5 -7.5q-57 0 -94 18.5t-53 67.5q-57 -47 -129.5 -75.5 t-141.5 -28.5q-64 0 -104.5 41.5t-40.5 121.5q0 50 11 87.5t35.5 64t46 42t58.5 36.5q28 16 118 49.5t140 71.5q0 76 -35 126t-98 50q-53 0 -102 -29t-66 -88q-6 -16 -28 -16q-19 0 -19 8v160q0 13 10 22.5t21 9.5q2 0 34.5 -12t78.5 -12q26 0 83.5 16t106.5 16 q64 0 105 -39.5t41 -97.5v-440q0 -78 65 -78q22 0 37 30t21.5 79.5t9 89t2.5 80.5q0 98 -14 187t-46 170.5t-79.5 141t-119 94.5t-159.5 35q-86 0 -153 -39t-107.5 -99.5t-67 -143.5t-36 -162.5t-9.5 -163.5q0 -82 14.5 -167t47.5 -169t80 -149t117.5 -105.5t154.5 -40.5 q60 0 102.5 9.5t79 34.5t65 56t68.5 87l64 -60q-33 -47 -56.5 -74.5t-60 -59t-76 -48t-97 -28t-130.5 -11.5q-90 0 -170 45t-137.5 118.5t-99.5 166t-62.5 189t-20.5 186.5zM451 487q0 -43 21.5 -70.5t68.5 -27.5q59 0 110 29.5t51 83.5v192q-31 -3 -70 -17t-81.5 -37.5 t-71 -64t-28.5 -88.5z" />
<glyph unicode="A" horiz-adv-x="1329" d="M2 14q0 7 4 15q1 2 2.5 7t2.5 6.5t3 5.5t4 5.5t5.5 3.5t7.5 3t10 1q51 0 93.5 43t66.5 105l329 840q19 47 19 96q0 7 -3 25t-3 30q0 15 27.5 16.5t65 7t54.5 27.5q6 8 22 15.5t29 7.5q23 0 23 -17q0 -62 20 -116l402 -975q11 -26 19 -40.5t22.5 -31.5t35.5 -25t50 -8 q16 0 16 -18q0 -16 -8.5 -29.5t-24.5 -13.5h-481q-12 0 -12 20q0 41 39 41q48 0 81 19t33 55q0 18 -8 37l-135 356h-373l-112 -276q-15 -38 -15 -78q0 -48 23.5 -80.5t66.5 -32.5q8 0 13.5 -5.5t5.5 -12.5q0 -14 -9.5 -28.5t-25.5 -14.5h-375q-10 0 -10 14zM483 639h299 l-151 381z" />
<glyph unicode="B" horiz-adv-x="1107" d="M33 14q0 9 4 21q1 1 2.5 6t2 6t2.5 4.5t3.5 4.5t5 2.5t7.5 2t10 0.5q55 0 81.5 24.5t26.5 80.5v917q0 54 -28.5 73.5t-88.5 19.5q-10 0 -10 12q0 8 8 24q15 25 37 25h275q51 0 146.5 9t129.5 9q123 0 206 -65t83 -193q0 -79 -45 -154t-115 -108q53 -11 105 -36.5 t98.5 -65t75 -98t28.5 -125.5q0 -89 -43 -170t-112 -136.5t-158 -88.5t-180 -33q-42 0 -161.5 9t-186.5 9h-199q-10 0 -10 14zM371 135q55 -27 114.5 -35t147.5 -8q107 0 172 82t65 201q0 112 -81.5 186t-219.5 74h-198v-500zM371 752h229q67 0 101 58t34 138 q0 55 -21.5 94.5t-57.5 59.5t-74 28.5t-80 8.5h-111q-8 0 -14 -8t-6 -15v-364z" />
<glyph unicode="C" horiz-adv-x="960" d="M20 602q0 130 40 251t111 214.5t178.5 150t234.5 56.5q32 0 87 -18.5t79 -18.5q49 0 67 18q9 9 17 9q14 0 26 -8.5t12 -18.5q0 -16 -12 -54.5t-12 -56.5q0 -33 12 -99t12 -105q0 -13 -21.5 -26t-39.5 -13q-14 0 -14 8q0 109 -88 187.5t-189 78.5q-68 0 -120 -31.5 t-83 -80.5t-50.5 -116.5t-26.5 -131.5t-7 -135q0 -46 4.5 -93t15.5 -101t28.5 -101.5t45.5 -92t64.5 -76.5t88 -51.5t112.5 -19.5q79 0 147.5 50t141.5 136q6 6 14 6q15 0 31 -19.5t16 -35.5q0 -8 -4 -12q-17 -17 -62.5 -63t-69 -68t-69 -58t-82 -53.5t-88.5 -32t-106 -14.5 q-90 0 -165 40.5t-125 105.5t-85 150t-50.5 171.5t-15.5 171.5z" />
<glyph unicode="D" horiz-adv-x="1171" d="M29 14q0 9 4 21q1 1 2.5 6t2 6t2.5 4.5t3.5 4.5t5 2.5t7.5 2t10 0.5q55 0 81.5 24.5t26.5 80.5v917q0 54 -28.5 73.5t-88.5 19.5q-10 0 -10 12q0 8 8 24q15 25 37 25h178q49 0 203.5 9t198.5 9q209 0 346 -157.5t137 -411.5q0 -129 -44.5 -256t-119.5 -226t-183 -160.5 t-226 -61.5q-37 0 -147.5 9t-178.5 9h-217q-10 0 -10 14zM367 141q63 -25 104 -34t100 -9q79 0 142 27.5t105.5 75t70.5 114t40.5 142t12.5 161.5q0 135 -44.5 253t-130.5 193t-196 75h-200q-4 -12 -4 -23v-975z" />
<glyph unicode="E" horiz-adv-x="1019" d="M29 14q0 9 4 21q1 1 2.5 6t2 6t2.5 4.5t3.5 4.5t5 2.5t7.5 2t10 0.5q55 0 81.5 24.5t26.5 80.5v917q0 54 -28.5 73.5t-88.5 19.5q-10 0 -10 12q0 8 8 24q15 25 37 25h680q31 0 81.5 9t66.5 9q28 0 28 -18l21 -289q0 -8 -22.5 -19t-39.5 -11q-16 0 -16 8q0 87 -90 150 t-195 63h-225q-14 0 -14 -23v-391h254q81 0 108 37q6 8 24 15t35 7q23 0 23 -20q0 -8 -3 -34t-3 -36q1 -33 12.5 -96.5t11.5 -99.5q0 -13 -22 -29t-39 -16q-14 0 -14 8q0 70 -58 111.5t-131 41.5h-182q-6 0 -11 -8t-5 -14v-420q0 -41 54.5 -58.5t125.5 -17.5q49 0 84 2 t78.5 9t74 22t59.5 38t48 60.5t27 87.5q1 11 23 20t42 9q8 0 13 -5.5t5 -10.5l-34 -308q-3 -20 -41 -20h-887q-10 0 -10 14z" />
<glyph unicode="F" horiz-adv-x="987" d="M29 12q0 1 6 19l2 6q2 6 2.5 7t3 5.5t4.5 5t5.5 3t7.5 3t10 0.5q55 0 80.5 24.5t25.5 80.5v917q0 54 -28.5 73.5t-88.5 19.5q-10 0 -10 12q0 8 8 24q15 25 37 25h680q31 0 81.5 9t66.5 9q28 0 28 -18l21 -289q0 -8 -22.5 -19t-39.5 -11q-16 0 -16 8q0 87 -90 150t-195 63 h-225q-14 0 -14 -23v-391h254q81 0 108 37q6 8 24.5 15t35.5 7q22 0 22 -20q0 -8 -3 -34t-3 -36q1 -33 12.5 -96.5t11.5 -99.5q0 -13 -22 -29t-39 -16q-14 0 -14 8q0 70 -58 111.5t-131 41.5h-182q-6 0 -11 -8t-5 -14v-426q0 -63 28.5 -84t98.5 -21q18 0 18 -16q0 -1 -8 -29 q-5 -16 -27 -16h-438q-12 0 -12 12z" />
<glyph unicode="G" horiz-adv-x="1146" d="M16 584q0 104 24.5 204.5t73 188t114 154t154.5 105t189 38.5q47 0 120.5 -18.5t92.5 -18.5q75 0 109 29q12 8 22 8q16 0 29.5 -11t13.5 -26q0 -112 11.5 -194t11.5 -132q0 -22 -18 -37.5t-37 -15.5q-21 0 -21 12q0 110 -114.5 198.5t-262.5 88.5q-88 0 -157.5 -70.5 t-105.5 -182.5t-36 -242q0 -56 5.5 -110t19 -117.5t39.5 -116t63 -97t94 -69.5t128 -25q41 0 67 2.5t69 16.5t91 42v293q0 51 -30 71.5t-89 20.5q-10 0 -10 13q0 4 10 24q12 25 35 25h387q16 0 16 -12q0 -7 -4 -19q-12 -31 -30 -31q-36 0 -64.5 -28.5t-28.5 -63.5v-286 q-38 -21 -119.5 -71.5t-134 -79.5t-131.5 -55t-153 -26q-90 0 -165 38.5t-125.5 101t-85.5 144.5t-51 167t-16 170z" />
<glyph unicode="H" horiz-adv-x="1314" d="M29 12q0 1 6 19l2 6q2 6 2.5 7t3 5.5t4.5 5t5.5 3t7.5 3t10 0.5q55 0 80.5 24.5t25.5 80.5v917q0 51 -30 72t-89 21q-10 0 -10 12q0 4 10 24q13 25 35 25h387q17 0 17 -12q0 -7 -4 -19q-12 -30 -31 -30q-36 0 -64 -28.5t-28 -64.5v-352h559v352q0 51 -30 72t-89 21 q-10 0 -10 12q0 4 10 24q13 25 35 25h387q16 0 16 -12q0 -7 -4 -19q-12 -30 -31 -30q-36 0 -64 -28.5t-28 -64.5v-917q0 -63 28.5 -84t98.5 -21q19 0 19 -16q0 -4 -1.5 -7.5t-3.5 -10t-4 -11.5q-5 -16 -26 -16h-438q-13 0 -13 12q0 1 6 19l2 6q2 6 2.5 7t3 5.5t4.5 5t5.5 3 t7.5 3t10 0.5q55 0 81 24.5t26 80.5v448h-559v-448q0 -63 28.5 -84t98.5 -21q18 0 18 -16q0 -1 -8 -29q-5 -16 -27 -16h-438q-12 0 -12 12z" />
<glyph unicode="I" horiz-adv-x="540" d="M29 12q0 1 6 19l2 6q2 6 2.5 7t3 5.5t4.5 5t5.5 3t7.5 3t10 0.5q55 0 80.5 24.5t25.5 80.5v917q0 51 -30 72t-89 21q-10 0 -10 12q0 4 10 24q13 25 35 25h387q17 0 17 -12q0 -7 -4 -19q-12 -30 -31 -30q-36 0 -64 -28.5t-28 -64.5v-917q0 -63 28.5 -84t98.5 -21 q18 0 18 -16q0 -1 -8 -29q-5 -16 -27 -16h-438q-12 0 -12 12z" />
<glyph unicode="J" horiz-adv-x="507" d="M-74 -381q0 11 6 14q80 35 152 107t72 147v1196q0 51 -30 72t-89 21q-10 0 -10 12q0 4 10 24q13 25 35 25h387q16 0 16 -12q0 -7 -4 -19q-12 -30 -31 -30q-36 0 -64 -28.5t-28 -64.5v-1099q0 -57 -26 -114t-65 -101t-92 -85.5t-97 -68.5t-91 -51q-8 -4 -12 -4 q-13 0 -26 21.5t-13 37.5z" />
<glyph unicode="K" horiz-adv-x="1204" d="M29 12q0 1 6 19l2 6q2 6 2.5 7t3 5.5t4.5 5t5.5 3t7.5 3t10 0.5q55 0 80.5 24.5t25.5 80.5v917q0 51 -30 72t-89 21q-10 0 -10 12q0 4 10 24q13 25 35 25h387q17 0 17 -12q0 -7 -4 -19q-12 -30 -31 -30q-36 0 -64 -28.5t-28 -64.5v-338l344 347q26 26 26 47q0 37 -80 37 q-10 0 -10 14q0 2 10 22q15 25 35 25h367q14 0 14 -16q0 -10 -6 -19q-15 -26 -49 -26q-48 0 -91.5 -27.5t-103.5 -83.5l-280 -264q35 0 60 -4t53.5 -16t52.5 -38t43 -67l221 -465q45 -96 96 -96q10 0 33 10t47 31q9 6 16 6q14 0 25.5 -15.5t11.5 -31.5q0 -13 -6 -19 q-47 -52 -113 -92.5t-133 -40.5q-66 0 -92.5 22.5t-66.5 110.5l-193 424q-40 89 -70.5 121.5t-95.5 32.5l-65 -58v-450q0 -63 28.5 -84t98.5 -21q18 0 18 -16q0 -1 -8 -29q-5 -16 -27 -16h-438q-12 0 -12 12z" />
<glyph unicode="L" horiz-adv-x="1011" d="M29 14q0 9 4 21q1 1 2.5 6t2 6t2.5 4.5t3.5 4.5t5 2.5t7.5 2t10 0.5q55 0 81.5 24.5t26.5 80.5v917q0 51 -30 72t-89 21q-10 0 -10 12q0 4 10 24q13 25 35 25h387q17 0 17 -12q0 -4 -5 -19q-12 -30 -30 -30q-36 0 -64 -28.5t-28 -64.5v-911q0 -41 54.5 -58.5t125.5 -17.5 q47 0 81.5 2t78 8.5t74.5 21t60.5 37t48 58.5t25.5 84q3 19 22 29t42 10q10 0 16 -5.5t6 -12.5l-34 -308q-3 -20 -41 -20h-887q-10 0 -10 14z" />
<glyph unicode="M" horiz-adv-x="1527" d="M6 14q0 7 4 15q6 20 12.5 26t24.5 6q53 0 76 24t31 81l108 860q6 42 6 68q-3 82 -118 82q-11 0 -11 12q0 2 11 24q10 25 34 25h248q14 0 23 -12.5t20 -44.5l301 -916l289 848q6 17 12.5 39.5t10 35.5t9.5 26t15 18.5t21 5.5h274q18 0 18 -12q0 -7 -6 -19q-15 -30 -30 -30 q-33 0 -63 -24.5t-30 -61.5q0 -3 9 -86l79 -838q6 -64 32.5 -84.5t94.5 -20.5q17 0 17 -16l-4 -16q-7 -29 -29 -29h-438q-13 0 -13 14q0 2 1.5 5t3 7.5t2.5 6.5q3 9 4.5 13t5 8t9.5 5.5t15 1.5q107 0 107 80q0 26 -4 54l-68 739l-252 -709q-12 -36 -26.5 -84.5t-22.5 -74.5 t-20.5 -53t-28 -38.5t-37.5 -11.5h-55q-7 0 -16 30.5t-20 79t-17 68.5l-252 785l-90 -713q-9 -65 -9 -72q0 -80 129 -80q19 0 19 -18q0 -2 -0.5 -4l-1.5 -6l-2 -8q-5 -25 -31 -25h-369q-12 0 -12 14z" />
<glyph unicode="N" horiz-adv-x="1210" d="M29 14q0 9 4 21q1 1 2.5 6t2 6t2.5 4.5t3.5 4.5t5 2.5t7.5 2t10 0.5q55 0 81.5 24.5t26.5 80.5v917q0 54 -28.5 73.5t-88.5 19.5q-10 0 -10 12q0 8 8 24q15 25 37 25h244q15 -33 29 -58.5t22.5 -39t34.5 -51.5t43 -64l463 -696q4 -6 10 -20t8 -17v792q0 54 -28.5 73.5 t-88.5 19.5q-10 0 -10 12q0 8 8 24q15 25 37 25h310q18 0 18 -10q0 -9 -6 -21q-15 -30 -37 -30q-36 0 -61 -28.5t-25 -64.5v-987q0 -44 -47 -88.5t-127 -44.5q-11 0 -23 38.5t-28 94.5t-35 84l-436 651q-37 55 -74 127v-792q0 -63 28.5 -84t98.5 -21q18 0 18 -16 q0 -2 -4 -18q-8 -27 -31 -27h-364q-10 0 -10 14z" />
<glyph unicode="O" horiz-adv-x="1183" d="M16 555q0 130 48 259t130.5 231t202.5 165.5t254 63.5q106 0 200.5 -50.5t160 -134t103.5 -191.5t38 -222q0 -140 -48 -270t-131 -228t-202 -156.5t-252 -58.5q-103 0 -197.5 52.5t-161 136t-106 190t-39.5 213.5zM229 637q0 -99 22.5 -189t65 -162.5t112 -115.5 t157.5 -43q154 0 254 131.5t100 319.5q0 154 -37 271.5t-118.5 189t-198.5 71.5q-82 0 -151 -41.5t-113 -109.5t-68.5 -151.5t-24.5 -170.5z" />
<glyph unicode="P" horiz-adv-x="1011" d="M29 12q0 1 6 19l2 6q2 6 2.5 7t3 5.5t4.5 5t5.5 3t7.5 3t10 0.5q55 0 80.5 24.5t25.5 80.5v917q0 54 -28.5 73.5t-88.5 19.5q-10 0 -10 12q0 8 8 24q15 25 37 25h207q69 0 205 9t156 9q66 0 122 -15t102 -46t72.5 -86t26.5 -129q0 -112 -66 -212t-171 -158t-216 -58 q-68 0 -163 35v-420q0 -63 28.5 -84t98.5 -21q18 0 18 -16q0 -1 -8 -29q-5 -16 -27 -16h-438q-12 0 -12 12zM369 717q78 -55 206 -55q95 0 153 66.5t58 172.5q0 117 -65.5 177.5t-185.5 60.5h-144q-10 0 -16 -8t-6 -15v-399z" />
<glyph unicode="Q" horiz-adv-x="1183" d="M16 530q0 135 48.5 268t131 237.5t203 169.5t254.5 65q106 0 200.5 -53.5t159 -140.5t102.5 -198t38 -225q0 -186 -82 -344.5t-223.5 -252t-308.5 -93.5q-138 0 -259.5 81.5t-192.5 212.5t-71 273zM53 -221q0 10 6 16q155 139 293 139q71 0 221.5 -49t237.5 -49 q55 0 84 10.5t51 44.5q14 21 60 21q55 0 55 -27q0 -2 -4 -10q-53 -85 -95 -126t-82.5 -53.5t-111.5 -12.5q-60 0 -124.5 18t-112 39t-115.5 39t-135 18q-77 0 -158 -71q-7 -7 -17 -7q-18 0 -35.5 21t-17.5 39zM229 637q0 -81 11.5 -152.5t39.5 -138t70 -114.5t107 -76.5 t147 -28.5q98 0 175.5 61.5t119 164t41.5 225.5q0 118 -17 209.5t-56 165.5t-110 113.5t-171 39.5q-108 0 -191.5 -70.5t-124.5 -176t-41 -222.5z" />
<glyph unicode="R" horiz-adv-x="1224" d="M29 12q0 1 6 19l2 6q2 6 2.5 7t3 5.5t4.5 5t5.5 3t7.5 3t10 0.5q55 0 80.5 24.5t25.5 80.5v917q0 54 -28.5 73.5t-88.5 19.5q-10 0 -10 12q0 8 8 24q15 25 37 25h195q69 0 207 9t159 9q66 0 123 -15t105.5 -46.5t76 -87t27.5 -129.5q0 -58 -22 -108.5t-60.5 -87t-82 -63 t-95.5 -46.5q54 -25 119 -158l149 -303q25 -50 42 -70t44 -20q32 0 82 41q10 10 21 10q17 0 29 -18.5t12 -40.5q0 -11 -6 -17q-47 -52 -113 -92.5t-133 -40.5q-64 0 -90.5 23.5t-69.5 109.5l-195 389q-80 160 -249 160v-479q0 -63 28.5 -84t98.5 -21q18 0 18 -16 q0 -1 -8 -29q-5 -16 -27 -16h-438q-12 0 -12 12zM369 756q47 0 118 -12.5t109 -12.5q190 0 190 170q0 116 -67.5 177t-188.5 61h-120q-41 0 -41 -23v-360z" />
<glyph unicode="S" horiz-adv-x="937" d="M41 0q0 17 7 61.5t7 65.5q0 28 -7 102t-7 140q0 15 22 30t41 15q21 0 21 -31q0 -76 48.5 -136.5t118.5 -90t144 -29.5q107 0 175.5 49t68.5 154q0 58 -22 101.5t-59 70t-85 46.5t-101 35.5t-105.5 31.5t-100.5 39.5t-85 55t-59 82.5t-22 117q0 117 55 201t143.5 124 t198.5 40q39 0 94 -18.5t105 -18.5q18 0 43.5 18.5t40.5 18.5q47 0 47 -53q0 -100 15.5 -163t15.5 -110q0 -10 -23.5 -30.5t-40.5 -20.5q-18 0 -18 14q0 99 -97 172.5t-206 73.5q-73 0 -122.5 -47.5t-49.5 -124.5q0 -55 22.5 -96t60 -67t86.5 -45.5t103 -35.5t107.5 -33 t102.5 -42t86.5 -59t60 -88t22.5 -124q0 -103 -67 -204t-174.5 -164.5t-217.5 -63.5q-39 0 -121 18.5t-108 18.5q-15 0 -43 -5t-37 -13q-19 -19 -55 -19q-29 0 -29 37z" />
<glyph unicode="T" horiz-adv-x="980" d="M0 909l18 330q2 35 72 35q16 0 67.5 -18.5t82.5 -18.5h483q31 0 82 18.5t67 18.5q70 0 72 -35l19 -330q0 -6 -7 -11t-16 -5q-20 0 -41.5 11.5t-21.5 25.5q0 78 -65 134t-171 56h-63v-954q0 -63 28.5 -84t98.5 -21q18 0 18 -16q0 -1 -8 -29q-5 -16 -27 -16h-438 q-12 0 -12 12q0 1 6 19l2 6q2 6 2.5 7t3 5.5t4.5 5t5.5 3t7.5 3t10 0.5q55 0 80.5 24.5t25.5 80.5v954h-63q-102 0 -169 -52t-67 -138q0 -16 -20 -26.5t-41 -10.5q-25 0 -25 16z" />
<glyph unicode="U" horiz-adv-x="1251" d="M25 1188q0 4 10 24q13 25 35 25h387q16 0 16 -12q0 -7 -4 -19q-12 -30 -31 -30q-36 0 -64 -28.5t-28 -64.5v-667q0 -128 93 -224t220 -96q74 0 144 31t117 92t47 137v727q0 51 -30 72t-89 21q-8 0 -8 14q0 4 8 24q8 23 35 23h327q17 0 17 -12q0 -7 -6 -19 q-13 -30 -29 -30q-36 0 -64 -28.5t-28 -64.5v-721q0 -76 -36.5 -142.5t-95.5 -112.5t-132.5 -79.5t-148.5 -49t-144 -15.5q-92 0 -181 43.5t-148.5 124.5t-59.5 176v776q0 51 -30 72t-89 21q-10 0 -10 12z" />
<glyph unicode="V" horiz-adv-x="1185" d="M0 1188q0 8 8 24q15 25 37 25h453q18 0 18 -12q0 -7 -6 -19q-15 -30 -31 -30q-38 0 -74 -19t-36 -57q0 -20 20 -82l248 -739l287 757q18 48 18 66q0 40 -35.5 57t-81.5 17q-10 0 -10 10q0 13 8 26q15 25 37 25h324q18 0 18 -12q0 -5 -8 -21q-14 -28 -29 -28 q-22 0 -50.5 -30t-39.5 -61l-342 -919q-43 -38 -66.5 -73.5t-43.5 -92.5q-5 -13 -21.5 -25t-34.5 -12t-31.5 10t-13.5 23q0 47 -10 72l-350 1001q-23 65 -57 86t-95 21q-10 0 -10 12z" />
<glyph unicode="W" horiz-adv-x="1757" d="M0 1206q0 9 8 25q14 24 37 24h420q18 0 18 -12q0 -6 -6 -18q-15 -31 -31 -31q-88 0 -88 -47q0 -7 17 -84l196 -750l193 734q14 54 14 98q0 7 -3 25t-3 30q0 15 27.5 16.5t65.5 7t55 27.5q6 9 23 16t32 7q18 0 18 -17q0 -56 15 -118l221 -832l250 778q6 15 6 29 q0 40 -36 60t-81 20q-10 0 -10 12q0 9 8 25q14 24 37 24h338q18 0 18 -12q0 -6 -6 -18q-15 -31 -31 -31q-25 0 -44 -8t-30 -23t-16.5 -26.5t-11.5 -30.5l-315 -940q-43 -39 -67 -74.5t-44 -91.5q-5 -13 -21 -25t-34 -12t-31.5 10t-13.5 23q0 42 -9 72l-217 817l-211 -719 q-43 -38 -66.5 -73.5t-43.5 -92.5q-5 -13 -21 -25t-34 -12t-32 10t-14 23q0 34 -10 72l-272 1015q-13 51 -59.5 81t-94.5 30q-10 0 -10 12z" />
<glyph unicode="X" horiz-adv-x="1290" d="M0 12q0 9 8 25q14 24 37 24q39 0 67 23t68 74l375 471l-324 436q-45 63 -76 87t-77 24q-10 0 -10 12q0 8 8 24q15 25 37 25h444q18 0 18 -12q0 -7 -6 -19q-15 -30 -30 -30q-34 0 -59 -20.5t-25 -49.5q0 -25 18 -49l225 -299l244 299q23 29 23 53q0 33 -38 49.5t-79 16.5 q-10 0 -10 12q0 8 8 24q15 25 37 25h358q19 0 19 -12q0 -5 -7 -19q-15 -30 -30 -30q-11 0 -21 -3t-16 -5.5t-16 -12t-13.5 -13.5t-16 -18.5t-16.5 -19.5l-362 -428l379 -498q89 -117 123 -117q18 0 18 -12q0 -6 -6 -18q-16 -31 -31 -31h-465q-10 0 -10 12q0 9 8 25 q14 24 37 24q86 0 86 60q0 36 -35 82l-245 327l-238 -307q-45 -60 -45 -102q0 -28 20 -44t54 -16q18 0 18 -12q0 -6 -6 -18q-16 -31 -31 -31h-383q-10 0 -10 12z" />
<glyph unicode="Y" horiz-adv-x="1140" d="M0 1188q0 8 8 24q15 25 37 25h426q18 0 18 -12q0 -7 -6 -19q-15 -30 -30 -30q-35 0 -60.5 -22t-25.5 -50q0 -18 20 -53l217 -441l250 453q12 21 12 39q0 35 -39.5 54.5t-81.5 19.5q-10 0 -10 12q0 8 8 24q15 25 37 25h338q19 0 19 -12q0 -5 -7 -19q-15 -30 -30 -30 q-25 0 -47 -26.5t-49 -72.5l-322 -553v-358q0 -63 28.5 -84t98.5 -21q18 0 18 -16q0 -1 -8 -29q-5 -16 -26 -16h-439q-12 0 -12 12q0 1 6 19l2 6q2 6 2.5 7t3 5.5t4.5 5t5.5 3t7.5 3t10 0.5q55 0 80.5 24.5t25.5 80.5v262l-331 637q-26 51 -65.5 81t-82.5 30q-10 0 -10 12z " />
<glyph unicode="Z" horiz-adv-x="1040" d="M8 35q0 13 6 22l723 1059q4 8 4 12q0 11 -18 11h-348q-92 0 -150.5 -65t-68.5 -146q-1 -14 -17.5 -23.5t-34.5 -9.5q-36 0 -36 18q0 49 22.5 128.5t22.5 144.5q0 30 16 40.5t49 10.5h793q13 0 23 -9.5t10 -23.5q0 -12 -7 -22q-21 -35 -70 -96.5t-87 -116.5l-441 -629 q-101 -148 -127 -193q-6 -12 -6 -20q3 -14 19 -14h411q51 0 95.5 29t71.5 68.5t42 76t15 57.5t19.5 32t43.5 11q33 0 33 -22q0 -34 -22.5 -139t-22.5 -183q0 -43 -72 -43h-868q-8 0 -15.5 11t-7.5 24z" />
<glyph unicode="[" horiz-adv-x="464" d="M98 45v1079q0 28 10.5 54.5t25.5 47.5t44 44t52.5 39t65.5 38.5t69.5 35.5t76.5 36q12 4 17 4q21 0 38 -15.5t17 -33.5q0 -14 -14 -22q-209 -109 -209 -228v-1079q0 -118 209 -227q14 -8 14 -25q0 -18 -15.5 -33.5t-33.5 -15.5q-11 0 -23 6q-49 23 -76.5 36t-69.5 35.5 t-65.5 38.5t-52.5 39t-44 44t-25.5 47.5t-10.5 54.5z" />
<glyph unicode="\" horiz-adv-x="788" d="M0 1233q0 21 24.5 40t65.5 19q31 0 39 -16l434 -870q69 -141 109.5 -211t93.5 -140q14 -17 14 -28q0 -20 -35 -42t-63 -22q-21 0 -31 17q-24 44 -45 90t-33 69l-491 944q-15 29 -37 61.5t-33.5 52.5t-11.5 36z" />
<glyph unicode="]" horiz-adv-x="464" d="M-68 -205q0 14 15 23q209 109 209 227v1079q0 119 -209 228q-15 6 -15 22q0 17 14.5 34t33.5 17q15 0 24 -6q49 -23 76.5 -36t69.5 -35.5t65.5 -38.5t52.5 -39t44 -44t25.5 -47.5t10.5 -54.5v-1079q0 -28 -10.5 -54.5t-25.5 -47.5t-44 -44t-52.5 -39t-65.5 -38.5 t-69.5 -35.5t-76.5 -36q-12 -4 -16 -4q-21 0 -38.5 15.5t-17.5 33.5z" />
<glyph unicode="^" horiz-adv-x="688" d="M20 1044q0 21 11 29l231 201q8 7 28 28.5t35 32.5t31 11q15 0 28.5 -10.5t31 -32.5t24.5 -29l195 -195q22 -19 22 -45q0 -27 -23.5 -45t-53.5 -18q-27 0 -41 14l-189 191l-215 -191q-17 -14 -39 -14q-28 0 -52 24.5t-24 48.5z" />
<glyph unicode="_" horiz-adv-x="1183" d="M0 -324h1184v-116h-1184v116z" />
<glyph unicode="`" horiz-adv-x="368" d="M59 1036q0 88 45.5 185.5t116.5 162.5q9 9 25 9q21 0 40 -11t19 -26q0 -11 -12 -23q-80 -76 -80 -159q0 -13 26.5 -33t53 -45.5t26.5 -51.5q0 -44 -53 -89.5t-94 -45.5q-37 0 -75 43t-38 84z" />
<glyph unicode="a" horiz-adv-x="921" d="M33 211q0 75 26.5 134.5t65 95.5t100 68t113.5 49.5t123.5 42t113.5 42.5q0 142 -41 196t-135 54q-76 0 -153.5 -59t-77.5 -123q0 -10 -18.5 -20.5t-36.5 -10.5q-21 0 -21 16q0 54 20.5 112t20.5 140q0 41 35 41q9 0 47.5 -10t69.5 -10q34 0 102.5 18.5t108.5 18.5 q108 0 181 -62t73 -160v-618q0 -70 41 -70q15 0 28 8.5t39 34.5q13 13 19 13q10 0 20 -18.5t10 -37.5q0 -13 -10 -20q-108 -94 -199 -94q-59 0 -88.5 36.5t-34.5 94.5q-182 -150 -329 -150q-108 0 -160.5 70t-52.5 178zM229 238q0 -61 30.5 -101.5t84.5 -40.5q80 0 138 56 t93 141v248q-190 -32 -284 -129q-62 -62 -62 -174z" />
<glyph unicode="b" horiz-adv-x="958" d="M8 1303q0 9 6 24q12 29 47 29q89 0 148.5 18.5t81.5 18.5q19 0 31 -15.5t12 -38.5q0 -17 -9.5 -47.5t-9.5 -62.5v-342q139 119 281 119q104 0 183 -62t118 -160t39 -213q0 -102 -35.5 -209t-97 -196t-154 -146t-196.5 -57q-29 0 -84.5 18.5t-94.5 18.5q-20 0 -65.5 -18.5 t-61.5 -18.5q-26 0 -26 37q0 15 10 38.5t10 43.5v1071q0 35 -3.5 56.5t-15.5 43t-38 31.5t-68 10q-8 0 -8 9zM315 180q45 -46 83.5 -65t105.5 -19q71 0 126.5 65t82 155t26.5 182q0 38 -4 75t-14 79t-29.5 76.5t-47 63.5t-69.5 45.5t-94 16.5q-95 0 -166 -84v-590z" />
<glyph unicode="c" horiz-adv-x="808" d="M20 465q0 96 27.5 188.5t76.5 166.5t126 119.5t168 45.5q30 0 86.5 -18.5t91.5 -18.5q30 0 55 29q5 8 19 8q12 0 24.5 -10.5t12.5 -20.5t-7.5 -36.5t-7.5 -45.5q0 -30 7.5 -95t7.5 -91q0 -11 -18 -26t-34 -15q-24 0 -24 31q0 53 -22.5 93t-59 61.5t-76 31.5t-80.5 10 q-56 0 -97 -34t-62.5 -92.5t-31 -121t-9.5 -132.5q0 -44 9.5 -92.5t32 -100t54.5 -92t82 -66.5t110 -26q125 0 228 131q5 8 22 8q20 0 37.5 -11.5t17.5 -25.5q0 -8 -6 -14q-42 -47 -67.5 -74t-67 -63.5t-76 -55.5t-81.5 -33t-97 -14q-75 0 -137.5 29.5t-105 79t-72 115 t-43 135.5t-13.5 143z" />
<glyph unicode="d" horiz-adv-x="950" d="M16 465q0 133 53 251t156.5 194.5t235.5 76.5q70 0 155 -39v205q0 35 -3.5 56.5t-15 43t-37.5 31.5t-68 10q-9 0 -9 9t6 24q12 29 48 29q89 0 148 18.5t81 18.5q19 0 31 -15.5t12 -38.5q0 -17 -9 -47.5t-9 -62.5v-1063q0 -70 40 -70q15 0 28.5 8.5t39.5 34.5q13 13 19 13 q10 0 20 -18.5t10 -37.5q0 -13 -10 -20q-108 -94 -199 -94q-59 0 -88.5 36.5t-34.5 94.5q-36 -35 -57.5 -54t-58 -45t-73 -38.5t-75.5 -12.5q-68 0 -125.5 34.5t-95 88.5t-64.5 122t-39 133.5t-12 123.5zM213 522q0 -44 3.5 -85.5t11.5 -90t24.5 -88t39.5 -73t59.5 -52 t82.5 -18.5q60 0 102 37t80 100v561q-61 61 -167 61q-66 0 -114.5 -32.5t-73.5 -87t-36.5 -112.5t-11.5 -120z" />
<glyph unicode="e" horiz-adv-x="823" d="M16 465q0 98 28.5 189.5t82.5 166t140 119.5t192 45q81 0 142.5 -32.5t97 -89t52.5 -125.5t17 -150q0 -25 -7 -33t-34 -8h-508q-1 -11 -3.5 -36t-2.5 -40q0 -356 246 -356q79 0 133 27t149 124q6 6 17 6q15 0 27 -15t12 -34q0 -14 -13 -30q-41 -46 -67 -73t-65.5 -61 t-74 -52t-80.5 -31t-96 -13q-93 0 -168.5 45t-121.5 118t-70.5 160.5t-24.5 178.5zM227 659h344q0 213 -178 213q-60 0 -106.5 -64t-59.5 -149z" />
<glyph unicode="f" horiz-adv-x="563" d="M43 14q0 4 3.5 13.5t4.5 13.5q5 20 35 20q78 0 78 105v684h-43q-13 0 -30.5 -3t-22.5 -3q-15 0 -15 8q0 96 111 96v152q0 120 86 206.5t209 86.5q29 0 71 -17.5t60 -17.5q43 0 61 24q9 9 23 9t26 -7q11 -6 11 -15l-10 -102q0 -38 5 -75.5t5 -71.5q0 -21 -35 -40 q-34 -17 -40 -3q-1 1 -1 4q0 94 -49 154.5t-121 60.5q-60 0 -93.5 -56t-33.5 -120v-172q82 0 146.5 10t99.5 20.5t45 10.5q26 0 26 -33q0 -25 -20 -45l-12.5 -12.5l-13 -13t-12 -11.5t-13.5 -11.5t-13.5 -9t-15 -8t-15.5 -6t-18.5 -4.5t-19.5 -1q-26 0 -80 8t-84 8v-684 q0 -61 22.5 -83t90.5 -22q22 0 22 -18l-6 -18q-7 -25 -39 -25h-371q-14 0 -14 14z" />
<glyph unicode="g" horiz-adv-x="884" d="M-20 -211q0 34 15 61t43 46.5t55 33t64 29.5l15 6q7 3 23.5 -5t27.5 -20.5t4 -19.5q-6 -6 -16 -15.5t-13 -13t-9.5 -10.5t-8 -10.5t-4.5 -9.5t-3.5 -11.5t-0.5 -13.5q0 -180 330 -180q105 0 188 60q82 58 82 151q0 26 -6 44.5t-14 31.5t-25 22t-30.5 14t-40 9t-43 5 t-50 3t-51.5 4q-47 4 -81 8t-88.5 12t-93.5 19.5t-77 27.5t-58 39t-20 52q0 112 144 198q-199 73 -199 252q0 104 70 193t169 136.5t195 47.5q118 0 186 -37q55 0 85.5 1t76 10t76.5 26q1 1 4 1q5 0 15 -6q13 -7 24 -18q9 -8 9 -12q0 -1 -1 -2q-20 -28 -35.5 -44t-55 -37.5 t-97.5 -35.5q67 -51 67 -155q0 -62 -26.5 -119.5t-70 -99.5t-97 -74t-109 -48t-104.5 -16q-33 0 -74 7q-59 -49 -59 -97q0 -29 19 -47t55 -26t71 -10.5t86.5 -5.5t81.5 -7q20 -3 58.5 -7.5t59.5 -7.5t54 -10.5t52 -15.5t42 -23t35 -34t20.5 -46.5t8.5 -62.5 q0 -87 -49.5 -159.5t-126 -116t-161.5 -67t-163 -23.5q-53 0 -101 3.5t-101 12.5t-96 26t-78 41.5t-54.5 61.5t-19.5 84zM231 662q0 -106 62 -168t160 -62q95 0 138.5 49.5t43.5 151.5q0 99 -62.5 167t-164.5 68q-82 0 -129.5 -57.5t-47.5 -148.5z" />
<glyph unicode="h" horiz-adv-x="1036" d="M23 14q0 5 4 17q5 17 11 23.5t25 6.5q54 0 76.5 24t22.5 81v987q0 35 -3.5 56.5t-15.5 43t-38 31.5t-68 10q-8 0 -8 9t6 24q12 29 47 29q89 0 148 18.5t81 18.5q19 0 31 -15.5t12 -38.5q0 -17 -9 -47.5t-9 -62.5v-408q58 86 128 125t171 39q57 0 109.5 -19t91 -63.5 t38.5 -107.5v-629q0 -64 24.5 -84.5t92.5 -20.5q17 0 17 -20q0 -2 -3 -9t-4 -9q-8 -23 -26 -23h-402q-12 0 -12 14q0 5 4 17q5 17 11.5 23.5t25.5 6.5q54 0 76 24t22 81v534q0 64 -42.5 109t-108.5 45q-122 0 -213 -178v-510q0 -64 24.5 -84.5t92.5 -20.5q16 0 16 -20 q0 -2 -1 -5t-2.5 -7t-2.5 -6q-8 -23 -27 -23h-401q-12 0 -12 14z" />
<glyph unicode="i" horiz-adv-x="489" d="M23 14q0 5 4 17q5 17 11 23.5t25 6.5q54 0 76.5 24t22.5 81v579q0 72 -23.5 107t-101.5 35q-8 0 -8 8q0 10 6 25q11 28 47 28q89 0 148 18.5t81 18.5q19 0 31 -15t12 -38q0 -17 -9 -48t-9 -63v-655q0 -64 24.5 -84.5t92.5 -20.5q16 0 16 -20q0 -2 -1 -5t-2.5 -7t-2.5 -6 q-8 -23 -27 -23h-401q-12 0 -12 14zM94 1249q0 42 51.5 93t87.5 51q38 0 79.5 -44.5t41.5 -84.5q0 -39 -49 -89.5t-90 -50.5q-34 0 -77.5 42.5t-43.5 82.5z" />
<glyph unicode="j" horiz-adv-x="444" d="M-51 -389q0 6 4 10q15 16 53.5 47.5t68.5 56.5t54.5 61.5t24.5 70.5v888q0 72 -23.5 107t-101.5 35q-9 0 -9 8q0 7 7 25q11 28 47 28q89 0 148 18.5t81 18.5q19 0 31 -15t12 -38q0 -17 -9 -48t-9 -63v-946q0 -46 -22.5 -87t-61.5 -72.5t-77.5 -55t-86 -50.5t-70.5 -44 q-9 -6 -16 -6q-17 0 -31 18.5t-14 32.5zM86 1249q0 42 51.5 93t87.5 51q38 0 79.5 -44.5t41.5 -84.5q0 -39 -49 -89.5t-90 -50.5q-34 0 -77.5 42.5t-43.5 82.5z" />
<glyph unicode="k" horiz-adv-x="1034" d="M23 14q0 5 4 17q5 17 11 23.5t25 6.5q54 0 76.5 24t22.5 81v987q0 35 -3.5 56.5t-15.5 43t-38 31.5t-68 10q-8 0 -8 9t6 24q12 29 47 29q89 0 148 18.5t81 18.5q19 0 31 -15.5t12 -38.5q0 -17 -9 -47.5t-9 -62.5v-666l235 238q23 23 23 43t-16.5 31.5t-34.5 11.5 q-11 0 -11 14q0 1 9 23q10 24 37 24h329q19 0 19 -12q0 -6 -6 -18q-16 -31 -31 -31q-54 0 -88.5 -14t-71.5 -48l-237 -217q113 -3 163 -104l148 -293q28 -52 51 -74t55 -22q23 0 37.5 10.5t36.5 36.5q6 6 12 6q10 0 24.5 -14t14.5 -23q0 -6 -4 -14q-68 -135 -215 -135 q-94 0 -131 75l-117 236q-8 16 -21 44.5t-19.5 42.5t-19 34.5t-23.5 31t-27 21.5t-36.5 15.5t-45.5 4.5l-39 -38v-283q0 -64 24.5 -84.5t92.5 -20.5q16 0 16 -20q0 -2 -1 -5t-2.5 -7t-2.5 -6q-8 -23 -27 -23h-401q-12 0 -12 14z" />
<glyph unicode="l" horiz-adv-x="493" d="M23 14q0 5 4 17q5 17 11 23.5t25 6.5q54 0 76.5 24t22.5 81v987q0 35 -3.5 56.5t-15.5 43t-38 31.5t-68 10q-8 0 -8 9t6 24q12 29 47 29q89 0 148 18.5t81 18.5q19 0 31 -15.5t12 -38.5q0 -17 -9 -47.5t-9 -62.5v-1063q0 -64 24.5 -84.5t92.5 -20.5q16 0 16 -20 q0 -2 -1 -5t-2.5 -7t-2.5 -6q-8 -23 -27 -23h-401q-12 0 -12 14z" />
<glyph unicode="m" horiz-adv-x="1501" d="M23 14q0 5 4 17q5 17 11 23.5t25 6.5q54 0 76.5 24t22.5 81v579q0 72 -23.5 107t-101.5 35q-8 0 -8 8q0 10 6 25q11 28 47 28q89 0 148 18.5t81 18.5q19 0 31 -15t12 -38q0 -17 -9 -48t-9 -63q124 164 293 164q85 0 135.5 -33t73.5 -110q44 57 76.5 85.5t76.5 43 t109 14.5q57 0 109.5 -19t91 -63.5t38.5 -107.5v-629q0 -64 24.5 -84.5t92.5 -20.5q17 0 17 -20q0 -2 -3 -9t-4 -9q-8 -23 -26 -23h-402q-12 0 -12 14q0 5 4 17q5 17 11.5 23.5t25.5 6.5q54 0 76 24t22 81v534q0 64 -42.5 109t-108.5 45q-58 0 -97 -40.5t-79 -117.5v-530 q0 -64 24 -84.5t92 -20.5q17 0 17 -20l-6 -18q-8 -23 -27 -23h-401q-13 0 -13 14q0 5 4 17q5 17 11.5 23.5t25.5 6.5q54 0 76.5 24t22.5 81v534q0 51 -37 102.5t-92 51.5q-28 0 -52.5 -9.5t-46.5 -30t-36 -36.5t-35 -45t-29 -39v-528q0 -64 24.5 -84.5t92.5 -20.5 q16 0 16 -20q0 -2 -1 -5t-2.5 -7t-2.5 -6q-8 -23 -27 -23h-401q-12 0 -12 14z" />
<glyph unicode="n" horiz-adv-x="1048" d="M23 14q0 5 4 17q5 17 11 23.5t25 6.5q54 0 76.5 24t22.5 81v579q0 72 -23.5 107t-101.5 35q-8 0 -8 8q0 10 6 25q11 28 47 28q89 0 148 18.5t81 18.5q19 0 31 -15t12 -38q0 -17 -9 -48t-9 -63q58 86 128 125t171 39q57 0 109.5 -19t91 -63.5t38.5 -107.5v-629 q0 -64 24.5 -84.5t92.5 -20.5q17 0 17 -20q0 -2 -3 -9t-4 -9q-8 -23 -26 -23h-402q-12 0 -12 14q0 5 4 17q5 17 11.5 23.5t25.5 6.5q54 0 76 24t22 81v534q0 64 -42.5 109t-108.5 45q-122 0 -213 -178v-510q0 -64 24.5 -84.5t92.5 -20.5q16 0 16 -20q0 -2 -1 -5t-2.5 -7 t-2.5 -6q-8 -23 -27 -23h-401q-12 0 -12 14z" />
<glyph unicode="o" horiz-adv-x="942" d="M16 432q0 69 20 144.5t61.5 148.5t97.5 131t135.5 93.5t167.5 35.5q78 0 148 -30.5t120 -80.5t87 -112t55 -126t18 -122q0 -69 -24.5 -146.5t-70 -148.5t-104.5 -129t-134 -92.5t-151 -34.5q-74 0 -141.5 28t-118.5 75t-89 107t-57.5 127t-19.5 132zM213 457 q0 -66 13 -126t41 -115t80.5 -87.5t123.5 -32.5q48 0 87.5 17.5t67 48.5t48 70t32.5 84.5t17.5 89t5.5 86.5q0 101 -18 172.5t-53.5 111.5t-81 58t-105.5 18q-65 0 -116.5 -38t-81 -98.5t-45 -127t-15.5 -131.5z" />
<glyph unicode="p" horiz-adv-x="972" d="M18 895q0 7 7 25q11 28 47 28q89 0 148 18.5t81 18.5q19 0 31 -15t12 -38q0 -17 -9 -48t-9 -63q129 164 272 164q85 0 154 -42.5t110 -109.5t62.5 -142t21.5 -148q0 -108 -30 -210.5t-85.5 -185.5t-143 -133.5t-193.5 -50.5q-42 0 -90 14t-78 31v-246q0 -61 22 -82.5 t90 -21.5q23 0 23 -18q0 -1 -6 -19q-7 -24 -39 -24h-371q-14 0 -14 14q0 4 3.5 13.5t4.5 13.5q5 20 35 20q78 0 78 104v983q0 72 -23.5 107t-101.5 35q-9 0 -9 8zM326 156q46 -41 92 -60.5t110 -19.5q52 0 93 31t64.5 76.5t38.5 104t20.5 106.5t5.5 91q0 48 -12.5 103.5 t-38 113t-74.5 95t-113 37.5q-63 0 -109.5 -40.5t-76.5 -97.5v-540z" />
<glyph unicode="q" horiz-adv-x="907" d="M16 442q0 98 38 194.5t103.5 174.5t165 126t212.5 48q42 0 90.5 -18.5t83.5 -18.5q55 0 82 19q11 8 24 8q25 -4 25 -27q0 -30 -24.5 -78t-24.5 -94v-1014q0 -64 24 -84t92 -20q17 0 17 -20q0 -1 -6 -19q-7 -22 -27 -22h-402q-12 0 -12 14q0 4 4 16q5 17 11.5 24t25.5 7 q54 0 76 23.5t22 80.5v338q-45 -55 -120 -96t-144 -41q-105 0 -183 68t-115.5 175t-37.5 236zM213 514q0 -74 12 -141.5t37 -127t70 -95t104 -35.5q53 0 103.5 45.5t76.5 101.5v565q-55 45 -143 45q-65 0 -117.5 -38t-82 -95t-45 -115.5t-15.5 -109.5z" />
<glyph unicode="r" horiz-adv-x="694" d="M23 14q0 5 4 17q5 17 11 23.5t25 6.5q54 0 76.5 24t22.5 81v579q0 72 -23.5 107t-101.5 35q-8 0 -8 8q0 10 6 25q11 28 47 28q89 0 148 18.5t81 18.5q19 0 31 -15t12 -38q0 -17 -9 -48t-9 -63q43 68 105.5 116t129.5 48q33 0 67 -20.5t34 -59.5q0 -42 -32 -87.5 t-81 -45.5q-25 0 -52 26.5t-40 26.5q-19 0 -37 -10.5t-32.5 -30.5t-24.5 -35.5t-22 -40t-15 -30.5v-512q0 -64 24.5 -84.5t92.5 -20.5q16 0 16 -20q0 -2 -1 -5t-2.5 -7t-2.5 -6q-8 -23 -27 -23h-401q-12 0 -12 14z" />
<glyph unicode="s" horiz-adv-x="782" d="M41 0q0 13 9 58t9 67q0 39 -9 110t-9 107q0 8 2.5 14t5 8t10 6.5t9.5 6.5q19 14 26 14q23 0 23 -8q0 -114 76.5 -191t195.5 -77q66 0 109 42.5t43 102.5q0 50 -27 84t-70.5 52t-96 32.5t-105 31.5t-96 41t-70.5 69.5t-27 109.5q0 136 101.5 220.5t236.5 84.5 q49 0 107 -18.5t75 -18.5q41 0 62 21q8 8 22 8q35 0 35 -21q0 -6 -17.5 -49.5t-17.5 -81.5q0 -22 6.5 -64.5t6.5 -60.5q0 -19 -27 -32q-6 -3 -14 -8t-13.5 -8t-9.5 -3q-5 0 -8.5 4.5t-3.5 8.5q0 80 -72.5 145t-152.5 65q-64 0 -104 -36.5t-40 -102.5q0 -39 22 -67.5 t58.5 -44t83 -30.5t94.5 -26.5t94.5 -32.5t83 -47t58.5 -71t22 -105q0 -97 -55 -178t-140 -124.5t-177 -43.5q-39 0 -103 18.5t-90 18.5q-44 0 -68 -12q-4 -2 -9 -5.5t-7.5 -5t-8 -3t-11.5 -1.5q-27 0 -27 27z" />
<glyph unicode="t" horiz-adv-x="579" d="M16 852v25q0 37 23 54t59 17h19q102 92 114 228q2 9 22.5 21.5t37.5 12.5q16 0 16 -12q0 -26 -8 -111t-8 -139h82q28 0 77.5 8.5t63.5 8.5q25 0 25 -17q0 -45 -28.5 -70.5t-59.5 -25.5h-160v-668q0 -69 43 -69q68 0 164 106q12 12 20 12q12 0 24.5 -22t12.5 -45 q0 -16 -10 -23q-21 -17 -77 -74.5t-98.5 -81.5t-99.5 -24q-71 0 -112 50.5t-41 133.5v705h-101z" />
<glyph unicode="u" horiz-adv-x="1009" d="M14 895q0 10 6 25q11 28 48 28q89 0 148 18.5t81 18.5q19 0 31 -15t12 -38q0 -17 -9 -48t-9 -63v-577q0 -59 38 -103.5t95 -44.5q131 0 231 215v434q0 72 -23.5 107t-101.5 35q-8 0 -8 8q0 10 6 25q11 28 47 28q89 0 148.5 18.5t81.5 18.5q19 0 31 -15t12 -38 q0 -17 -9.5 -48t-9.5 -63v-655q0 -70 41 -70q15 0 28.5 8.5t39.5 34.5q13 13 18 13q10 0 20.5 -18.5t10.5 -37.5q0 -13 -10 -20q-108 -94 -199 -94q-59 0 -88.5 36.5t-34.5 94.5q-82 -68 -159 -109t-167 -41q-81 0 -147 50t-66 126v606q0 35 -3.5 56.5t-15 43.5t-37.5 32 t-68 10q-9 0 -9 8z" />
<glyph unicode="v" horiz-adv-x="989" d="M6 899q0 9 8 25q14 24 37 24h373q18 0 18 -12q0 -6 -6 -18q-16 -31 -30 -31q-87 0 -87 -39q0 -8 13 -43l215 -569l198 516q9 24 9 45q0 42 -33.5 66t-69.5 24q-10 0 -10 12q0 9 8 25q14 24 37 24h318q18 0 18 -12q0 -6 -6 -18q-16 -31 -31 -31q-24 0 -49 -29.5t-39 -64.5 l-260 -627q-43 -39 -67 -74.5t-44 -91.5q-5 -13 -21 -25t-34 -12t-31.5 10t-13.5 23q0 47 -10 72l-301 731q-21 51 -39.5 69.5t-59.5 18.5q-10 0 -10 12z" />
<glyph unicode="w" horiz-adv-x="1392" d="M0 899q0 9 8 25q14 24 37 24h313q19 0 19 -12q0 -6 -6 -18q-15 -31 -31 -31q-20 0 -32.5 -10.5t-12.5 -30.5q0 -18 16 -62l170 -503l127 378q17 52 17 123q0 33 -19.5 74.5t-19.5 48.5q0 25 59 25q62 0 88 35q6 8 22 15t29 7q23 0 23 -16q0 -64 16 -117l185 -584l147 473 q10 31 10 62q0 82 -110 82q-11 0 -11 12q0 7 9 25q14 24 37 24h301q18 0 18 -12q0 -6 -6 -18q-15 -31 -31 -31q-19 0 -42 -17.5t-30 -38.5l-221 -665q-43 -38 -66.5 -73.5t-43.5 -92.5q-5 -13 -21.5 -25t-34.5 -12q-17 0 -30 10.5t-13 24.5q0 48 -8 72l-155 499l-146 -403 q-43 -38 -66.5 -73.5t-43.5 -92.5q-5 -13 -21.5 -25t-34.5 -12t-31.5 10t-13.5 23q0 39 -10 72l-238 725q-18 54 -36.5 74t-55.5 20q-10 0 -10 12z" />
<glyph unicode="x" horiz-adv-x="1030" d="M0 12q0 9 8 25q14 24 37 24q37 0 74.5 23t56.5 51l244 340l-266 352q-18 23 -53.5 41.5t-67.5 18.5q-10 0 -10 12q0 9 8 25q14 24 37 24h413q19 0 19 -12q0 -6 -6 -18q-16 -31 -31 -31q-21 0 -37 -12.5t-16 -32.5q0 -16 22 -43l129 -185l119 191q12 21 12 37q0 21 -15 33 t-38 12q-10 0 -10 12q0 9 8 25q14 24 37 24h289q18 0 18 -12q0 -6 -6 -18q-15 -31 -31 -31q-68 0 -104 -51l-215 -312l258 -368q65 -95 114 -95q19 0 19 -12q0 -6 -6 -18q-16 -31 -31 -31h-401q-11 0 -11 12q0 9 8 25q14 24 37 24q19 0 34.5 14t15.5 36q0 18 -15 39 l-160 237l-159 -231q-21 -34 -21 -56q0 -18 10.5 -28.5t28.5 -10.5q19 0 19 -12q0 -4 -7 -18q-16 -31 -30 -31h-318q-10 0 -10 12z" />
<glyph unicode="y" horiz-adv-x="1009" d="M16 -162q0 17 22 33t38 16q13 0 18 -14q45 -121 133 -121q70 0 102 21.5t62 89.5l70 153l-330 795q-31 76 -104 76q-11 0 -11 12q0 7 9 25q14 24 36 24h379q19 0 19 -12q0 -6 -6 -18q-15 -31 -31 -31q-26 0 -43 -21.5t-17 -52.5q0 -26 9 -47l200 -496l201 482 q12 34 12 59q0 76 -108 76q-10 0 -10 12q0 9 8 25q14 24 37 24h321q19 0 19 -12q0 -4 -7 -18q-16 -31 -30 -31q-34 0 -56.5 -23.5t-33.5 -50.5l-443 -1006q-51 -116 -142.5 -181.5t-201.5 -65.5q-28 0 -55 12.5t-27 24.5q0 84 -19.5 155.5t-19.5 85.5z" />
<glyph unicode="z" horiz-adv-x="868" d="M41 33q0 22 14 43l371 579q14 22 28 42t30.5 41t25.5 31.5l30 35l27 31.5q4 4 4 8q0 8 -14 8h-268q-58 0 -103 -61t-53 -115q-3 -16 -17.5 -25.5t-31.5 -9.5q-27 0 -27 14q0 39 15.5 129t15.5 144q0 20 41 20h539q42 0 70 5t41 9.5t18 4.5q10 0 18 -12.5t8 -26.5 q0 -13 -10 -23q-6 -8 -37 -46t-54.5 -70.5t-51.5 -77.5l-357 -568q-12 -19 -12 -32q0 -15 27 -15h233q92 0 137.5 50t57.5 161q2 9 22 21t37 12q16 0 16 -12q0 -55 -11 -153t-11 -148q0 -27 -41 -27h-707q-7 0 -13.5 8.5t-6.5 24.5z" />
<glyph unicode="{" horiz-adv-x="559" d="M18 553q0 2 13 37q4 11 15.5 17.5t19.5 6.5q26 0 44.5 2t40.5 9t34 24t12 43v467q0 32 11.5 61t38.5 56t52 47t73 46t78 40.5t89 42.5q18 6 20 6q20 0 36.5 -15t16.5 -32t-14 -25q-209 -109 -209 -227v-424q0 -46 -27.5 -90t-74.5 -55v-2q102 -18 102 -121v-430 q0 -118 209 -227q14 -8 14 -25q0 -18 -15.5 -32.5t-35.5 -14.5q-8 0 -26 6q-57 27 -89 42.5t-77.5 40.5t-71 45.5t-51.5 47.5t-37.5 56t-11.5 61v397q0 34 -13.5 56t-40 31.5t-50 12.5t-58.5 3q-17 0 -17 16z" />
<glyph unicode="|" horiz-adv-x="585" d="M205 -252v1727h174v-1727h-174z" />
<glyph unicode="}" horiz-adv-x="559" d="M-82 -215q0 17 14 25q209 109 209 227v430q0 103 103 121v2q-48 11 -75.5 55t-27.5 90v424q0 118 -209 227q-14 8 -14 25t16.5 32t36.5 15q3 0 21 -6q59 -28 89 -42.5t78 -40.5t73 -46t52 -47t38.5 -56t11.5 -61v-467q0 -26 12 -43t34 -24t40.5 -9t44.5 -2q8 0 19.5 -6.5 t15.5 -17.5q12 -32 12 -37q0 -16 -16 -16q-35 0 -58.5 -3t-50 -12.5t-40 -31.5t-13.5 -56v-397q0 -32 -11.5 -61t-37.5 -56t-51.5 -47.5t-71 -45.5t-77.5 -40.5t-89 -42.5q-18 -6 -27 -6q-20 0 -35.5 14.5t-15.5 32.5z" />
<glyph unicode="~" horiz-adv-x="716" d="M6 584q0 54 80 115t176 61q46 0 111 -27.5t100 -27.5t64 11t44 24.5t29 24.5t23 11q26 0 49 -10.5t23 -26.5q0 -59 -74.5 -115.5t-188.5 -56.5q-52 0 -113 20.5t-98 20.5q-33 0 -66.5 -18t-57 -36.5t-33.5 -18.5q-21 0 -44.5 16t-23.5 33z" />
<glyph unicode="&#xa8;" horiz-adv-x="882" d="M94 1249q0 42 51.5 93t87.5 51q38 0 79.5 -44.5t41.5 -84.5q0 -39 -49 -89.5t-90 -50.5q-34 0 -77.5 42.5t-43.5 82.5zM526 1249q0 42 52 93t88 51q38 0 79 -44.5t41 -84.5q0 -39 -49 -89.5t-90 -50.5q-34 0 -77.5 42.5t-43.5 82.5z" />
<glyph unicode="&#xa9;" horiz-adv-x="1406" d="M61 610q0 176 87 329t236.5 244t324.5 91q131 0 251 -54t207 -143.5t139 -212t52 -254.5q0 -176 -87.5 -325t-237 -235.5t-324.5 -86.5q-131 0 -251 51t-207 137.5t-138.5 206.5t-51.5 252zM131 610q0 -157 78 -290t211 -210t289 -77q117 0 224 45.5t185 123t124 184.5 t46 224q0 157 -78 293t-211.5 216.5t-289.5 80.5q-155 0 -289 -80.5t-211.5 -216.5t-77.5 -293zM342 586q0 72 14.5 142.5t46.5 135.5t77 114.5t111 79t144 29.5q31 0 71.5 -17t61.5 -17q17 0 25 3.5t22 22.5q10 9 24.5 7t26.5 -12t7 -19q-10 -17 -11.5 -44t2.5 -52t8.5 -60 t4.5 -59q0 -19 -38 -38q-35 -16 -38 -3q0 73 -71.5 135.5t-145.5 62.5q-49 0 -85 -30.5t-54 -72t-28.5 -100.5t-12.5 -98t-2 -84q0 -40 8.5 -84.5t29.5 -92t50.5 -84.5t76.5 -61t103 -24q19 0 35.5 3t28 5t27.5 12t23.5 14t25.5 21t24.5 23t30 30.5t32.5 33.5q10 11 32 -11 q30 -28 17 -54q-2 -5 -6 -9q-91 -97 -171 -146t-189 -49q-70 0 -127 26t-95.5 69t-65 101t-38.5 121t-12 130z" />
<glyph unicode="&#xab;" horiz-adv-x="811" d="M41 332q-25 20 14 55q72 65 152 158t125 168q17 27 66 19q46 -7 54 -33q4 -13 -6 -27q-72 -108 -117 -166t-112 -131q119 -124 250 -322q13 -19 -23.5 -48.5t-76.5 -38.5t-58 11q-106 216 -268 355zM348 332q-25 20 14 55q72 65 152 158t125 168q17 27 66 19 q45 -7 54 -32q4 -14 -5 -28q-71 -106 -116.5 -164t-113.5 -133q119 -124 250 -322q13 -19 -23.5 -48.5t-76.5 -38.5t-58 11q-106 216 -268 355z" />
<glyph unicode="&#xad;" horiz-adv-x="655" d="M117 408v116h420v-116h-420z" />
<glyph unicode="&#xae;" horiz-adv-x="1452" d="M61 610q0 176 87 329t236.5 244t324.5 91q131 0 251 -54t207 -143.5t139 -212t52 -254.5q0 -176 -87.5 -325t-237 -235.5t-324.5 -86.5q-131 0 -251 51t-207 137.5t-138.5 206.5t-51.5 252zM131 610q0 -157 78 -290t211 -210t289 -77q117 0 224 45.5t185 123t124 184.5 t46 224q0 157 -78 293t-211.5 216.5t-289.5 80.5q-155 0 -289 -80.5t-211.5 -216.5t-77.5 -293zM373 1006q0 8 8 24q15 25 37 25h141q44 0 136.5 5t105.5 5q90 0 151.5 -50.5t61.5 -146.5q0 -128 -168 -202q48 -21 82 -97l86 -194q11 -26 31 -43t36 -17q10 0 16.5 2.5t10 5 t11.5 11t14 14.5q8 8 19.5 -0.5t15.5 -22t-1 -22.5q-34 -37 -81 -68.5t-89 -31.5q-44 0 -63.5 17.5t-48.5 76.5l-125 262q-35 83 -148 90v-287q0 -39 19.5 -59t44.5 -20q18 0 18 -13q0 -6 -6 -18q-16 -31 -31 -31h-266q-10 0 -10 12q0 9 8 25q15 25 37 25q14 0 30.5 19.5 t16.5 39.5v580q0 34 -24.5 52.5t-65.5 18.5q-10 0 -10 13zM612 723q19 0 70.5 -4t79.5 -4q53 0 81.5 20.5t28.5 77.5q0 75 -45 121.5t-120 46.5h-95v-8v-250z" />
<glyph unicode="&#xbb;" horiz-adv-x="768" d="M45 643q-13 19 23.5 48.5t76.5 38.5t58 -11q106 -214 268 -354q26 -20 -14 -56q-72 -66 -152 -158.5t-125 -166.5q-17 -27 -66 -19q-46 7 -54 33q-4 13 6 27q72 108 117 166t112 131q-121 126 -250 321zM326 643q-13 19 23 48.5t76 38.5t58 -11q105 -212 269 -354 q25 -20 -15 -56q-72 -65 -151.5 -157.5t-124.5 -167.5q-17 -27 -66 -19q-45 7 -54 32q-5 13 5 28q72 108 117 166t112 131q-118 123 -249 321z" />
<glyph unicode="&#x401;" horiz-adv-x="1019" d="M29 14q0 9 4 21q1 1 2.5 6t2 6t2.5 4.5t3.5 4.5t5 2.5t7.5 2t10 0.5q55 0 81.5 24.5t26.5 80.5v917q0 54 -28.5 73.5t-88.5 19.5q-10 0 -10 12q0 8 8 24q15 25 37 25h680q31 0 81.5 9t66.5 9q28 0 28 -18l21 -289q0 -8 -22.5 -19t-39.5 -11q-16 0 -16 8q0 87 -90 150 t-195 63h-225q-14 0 -14 -23v-391h254q81 0 108 37q6 8 24 15t35 7q23 0 23 -20q0 -8 -3 -34t-3 -36q1 -33 12.5 -96.5t11.5 -99.5q0 -13 -22 -29t-39 -16q-14 0 -14 8q0 70 -58 111.5t-131 41.5h-182q-6 0 -11 -8t-5 -14v-420q0 -41 54.5 -58.5t125.5 -17.5q49 0 84 2 t78.5 9t74 22t59.5 38t48 60.5t27 87.5q1 11 23 20t42 9q8 0 13 -5.5t5 -10.5l-34 -308q-3 -20 -41 -20h-887q-10 0 -10 14zM176 1520q0 42 51.5 92.5t87.5 50.5q38 0 79.5 -44.5t41.5 -84.5q0 -39 -49 -89t-90 -50q-34 0 -77.5 42.5t-43.5 82.5zM610 1520q0 42 52 92.5 t88 50.5q38 0 79 -44.5t41 -84.5q0 -39 -49 -89t-90 -50q-34 0 -77.5 42.5t-43.5 82.5z" />
<glyph unicode="&#x410;" horiz-adv-x="1329" d="M2 14q0 7 4 15q1 2 2.5 7t2.5 6.5t3 5.5t4 5.5t5.5 3.5t7.5 3t10 1q51 0 93.5 43t66.5 105l329 840q19 47 19 96q0 7 -3 25t-3 30q0 15 27.5 16.5t65 7t54.5 27.5q6 8 22 15.5t29 7.5q23 0 23 -17q0 -62 20 -116l402 -975q11 -26 19 -40.5t22.5 -31.5t35.5 -25t50 -8 q16 0 16 -18q0 -16 -8.5 -29.5t-24.5 -13.5h-481q-12 0 -12 20q0 41 39 41q48 0 81 19t33 55q0 18 -8 37l-135 356h-373l-112 -276q-15 -38 -15 -78q0 -48 23.5 -80.5t66.5 -32.5q8 0 13.5 -5.5t5.5 -12.5q0 -14 -9.5 -28.5t-25.5 -14.5h-375q-10 0 -10 14zM483 639h299 l-151 381z" />
<glyph unicode="&#x411;" horiz-adv-x="1062" d="M28 9q-2 9 3 20q9 24 20 29q7 3 17 3q55 0 80.5 24.5t25.5 80.5v917q0 54 -28.5 73.5t-88.5 19.5q-10 0 -10 12q0 8 8 24q15 25 37 25h680q31 0 81.5 9t66.5 9q28 0 28 -18l21 -289q0 -8 -22.5 -19t-39.5 -11q-16 0 -16 8q0 87 -90 150t-195 63h-225q-14 0 -14 -23v-323 h249q78 0 150.5 -22t132 -64.5t95.5 -111.5t36 -155q0 -99 -46 -186.5t-118 -146t-160 -92t-174 -33.5q-42 0 -135 9t-161 9h-197q-9 0 -11 9zM367 119q72 -21 198 -21q252 0 252 291q0 148 -89.5 217.5t-248.5 69.5h-112v-557z" />
<glyph unicode="&#x412;" horiz-adv-x="1107" d="M33 14q0 9 4 21q1 1 2.5 6t2 6t2.5 4.5t3.5 4.5t5 2.5t7.5 2t10 0.5q55 0 81.5 24.5t26.5 80.5v917q0 54 -28.5 73.5t-88.5 19.5q-10 0 -10 12q0 8 8 24q15 25 37 25h275q51 0 146.5 9t129.5 9q123 0 206 -65t83 -193q0 -79 -45 -154t-115 -108q53 -11 105 -36.5 t98.5 -65t75 -98t28.5 -125.5q0 -89 -43 -170t-112 -136.5t-158 -88.5t-180 -33q-42 0 -161.5 9t-186.5 9h-199q-10 0 -10 14zM371 135q55 -27 114.5 -35t147.5 -8q107 0 172 82t65 201q0 112 -81.5 186t-219.5 74h-198v-500zM371 752h229q67 0 101 58t34 138 q0 55 -21.5 94.5t-57.5 59.5t-74 28.5t-80 8.5h-111q-8 0 -14 -8t-6 -15v-364z" />
<glyph unicode="&#x413;" horiz-adv-x="950" d="M27 12q0 1 6 19l2 6q2 6 2.5 7t3 5.5t4.5 5t5.5 3t7.5 3t10 0.5q55 0 80.5 24.5t25.5 80.5v917q0 54 -28.5 73.5t-88.5 19.5q-10 0 -10 12q0 8 8 24q15 25 37 25h680q31 0 81.5 9t66.5 9q28 0 28 -18l21 -289q0 -8 -22.5 -19t-39.5 -11q-16 0 -16 8q0 87 -90 150t-195 63 h-225q-14 0 -14 -23v-950q0 -63 28.5 -84t98.5 -21q18 0 18 -16q0 -1 -8 -29q-5 -16 -27 -16h-438q-12 0 -12 12z" />
<glyph unicode="&#x414;" horiz-adv-x="1265" d="M-8 -213q3 33 10 84.5t9.5 76t1.5 69.5t-7 100q-2 11 31 32.5t45 6.5q21 -26 70 -37q61 106 101.5 254.5t54.5 269.5t14 227v213q0 54 -28.5 73.5t-88.5 19.5q-10 0 -10 12q0 8 8 24q15 25 37 25h905q18 0 18 -10q0 -9 -6 -21q-15 -30 -37 -30q-36 0 -61 -28.5t-25 -64.5 v-966h64q55 0 82 39q6 5 24 4.5t36 -8.5t15 -19q-16 -63 -16 -114.5t8 -111t8 -102.5q0 -17 -35 -36q-36 -18 -40 -2q-10 116 -56.5 174.5t-148.5 58.5h-733q-68 0 -111.5 -59t-62.5 -152q-2 -9 -30 -21q-46 -21 -46 13v6zM305 117h537v1003h-379v-231q0 -197 -33 -380.5 t-125 -391.5z" />
<glyph unicode="&#x415;" horiz-adv-x="1019" d="M29 14q0 9 4 21q1 1 2.5 6t2 6t2.5 4.5t3.5 4.5t5 2.5t7.5 2t10 0.5q55 0 81.5 24.5t26.5 80.5v917q0 54 -28.5 73.5t-88.5 19.5q-10 0 -10 12q0 8 8 24q15 25 37 25h680q31 0 81.5 9t66.5 9q28 0 28 -18l21 -289q0 -8 -22.5 -19t-39.5 -11q-16 0 -16 8q0 87 -90 150 t-195 63h-225q-14 0 -14 -23v-391h254q81 0 108 37q6 8 24 15t35 7q23 0 23 -20q0 -8 -3 -34t-3 -36q1 -33 12.5 -96.5t11.5 -99.5q0 -13 -22 -29t-39 -16q-14 0 -14 8q0 70 -58 111.5t-131 41.5h-182q-6 0 -11 -8t-5 -14v-420q0 -41 54.5 -58.5t125.5 -17.5q49 0 84 2 t78.5 9t74 22t59.5 38t48 60.5t27 87.5q1 11 23 20t42 9q8 0 13 -5.5t5 -10.5l-34 -308q-3 -20 -41 -20h-887q-10 0 -10 14z" />
<glyph unicode="&#x416;" horiz-adv-x="1863" d="M6 76q-18 20 1.5 41.5t49.5 31.5t37 3q37 -37 80 -37q19 0 55 75l222 465q8 17 16.5 31t19 25.5t18 20t21.5 17t20 12.5t23.5 11.5t22 9t25 9t24.5 8.5l-268 245q-58 57 -143 94.5t-140 37.5q-26 0 -6 36q1 1 3.5 6t4 7.5t4.5 5.5t6.5 4.5t8.5 1.5h434q9 0 9.5 -10.5 t-5.5 -22.5q-12 -28 -43 -28q-21 0 -30.5 -14t1 -41.5t45.5 -59.5l314 -289v311q0 51 -30 72t-89 21q-10 0 -10 12q0 4 10 24q13 25 35 25h387q16 0 16 -12q0 -7 -4 -19q-12 -30 -31 -30q-36 0 -64 -28.5t-28 -64.5v-331l313 288q28 27 37 58.5t-7.5 54.5t-59.5 23 q-23 0 -10 22q14 26 44 36q8 3 15 3h418q20 0 11 -21q-13 -26 -45 -37q-10 -3 -20 -3q-51 0 -115.5 -31.5t-117.5 -79.5l-287 -264q35 0 60 -4t53.5 -16t52.5 -38t43 -67l221 -465q45 -96 97 -96q25 0 41 8.5t38 28.5q13 13 29 3t21.5 -28t-2.5 -31q-47 -52 -113 -92.5 t-133 -40.5q-66 0 -93 22.5t-67 110.5l-192 424q-21 46 -33.5 68.5t-31.5 44.5t-42.5 31t-58.5 10l-66 -58v-450q0 -63 28.5 -84t98.5 -21q19 0 19 -16q0 -4 -1.5 -7.5t-3.5 -10t-4 -11.5q-5 -16 -26 -16h-439q-12 0 -12 12q0 1 6 19l2 6q2 6 2.5 7t3 5.5t4.5 5t5.5 3t7.5 3 t10 0.5q55 0 81 24.5t26 80.5v430l-91 78q-28 3 -48 -3t-35.5 -24.5t-24.5 -35.5t-25 -52l-3 -6t-2.5 -5.5t-2.5 -6.5l-192 -424q-41 -92 -81.5 -123t-119.5 -31q-102 0 -205 113z" />
<glyph unicode="&#x417;" horiz-adv-x="989" d="M47 272q-13 33 7.5 61t46 33t32.5 -1q49 -122 119.5 -180t187.5 -58q127 0 208 63.5t81 196.5q0 116 -68.5 185t-197.5 69q-34 0 -51.5 -1t-46.5 -7.5t-60 -20.5q-16 -7 -20 20q-7 37 6 67l6 8q62 45 215 45q71 0 114.5 54t43.5 114q0 122 -75.5 180.5t-184.5 58.5 q-82 0 -136.5 -69.5t-66.5 -157.5q-2 -16 -26.5 -30.5t-48 -9.5t-23.5 36q0 44 5 104.5t5 105.5t-10 91q-5 22 38 43.5t60 3.5q36 -39 86 -39q37 0 109 28.5t118 28.5q63 0 122 -15t111.5 -47t84.5 -90t32 -136q0 -88 -49.5 -160.5t-138.5 -118.5q111 -30 185.5 -109 t74.5 -180q0 -113 -42 -204.5t-114.5 -150t-166.5 -89.5t-201 -31q-110 0 -214 85t-157 224z" />
<glyph unicode="&#x418;" horiz-adv-x="1294" d="M27 12q0 1 6 19l2 6q2 6 2.5 7t3 5.5t4.5 5t5.5 3t7.5 3t10 0.5q55 0 80.5 24.5t25.5 80.5v917q0 51 -30 72t-89 21q-10 0 -10 12q0 4 10 24q13 25 35 25h387q17 0 17 -12q0 -4 -5 -19q-12 -30 -30 -30q-36 0 -64 -28.5t-28 -64.5v-739l555 739q0 51 -30 72t-89 21 q-10 0 -10 12q0 4 10 24q13 25 35 25h387q16 0 16 -12q0 -7 -4 -19q-12 -30 -31 -30q-36 0 -64 -28.5t-28 -64.5v-917q0 -63 28.5 -84t98.5 -21q19 0 19 -16q0 -4 -1.5 -7.5t-3.5 -10t-4 -11.5q-5 -16 -26 -16h-439q-12 0 -12 12q0 1 6 19l2 6q2 6 2.5 7t3 5.5t4.5 5t5.5 3 t7.5 3t10 0.5q55 0 81 24.5t26 80.5v739l-555 -739q0 -63 28.5 -84t98.5 -21q18 0 18 -16q0 -1 -8 -29q-5 -16 -27 -16h-438q-12 0 -12 12z" />
<glyph unicode="&#x419;" horiz-adv-x="1294" d="M27 12q0 1 6 19l2 6q2 6 2.5 7t3 5.5t4.5 5t5.5 3t7.5 3t10 0.5q55 0 80.5 24.5t25.5 80.5v917q0 51 -30 72t-89 21q-10 0 -10 12q0 4 10 24q13 25 35 25h387q17 0 17 -12q0 -4 -5 -19q-12 -30 -30 -30q-36 0 -64 -28.5t-28 -64.5v-739l555 739q0 51 -30 72t-89 21 q-10 0 -10 12q0 4 10 24q13 25 35 25h387q16 0 16 -12q0 -7 -4 -19q-12 -30 -31 -30q-36 0 -64 -28.5t-28 -64.5v-917q0 -63 28.5 -84t98.5 -21q19 0 19 -16q0 -4 -1.5 -7.5t-3.5 -10t-4 -11.5q-5 -16 -26 -16h-439q-12 0 -12 12q0 1 6 19l2 6q2 6 2.5 7t3 5.5t4.5 5t5.5 3 t7.5 3t10 0.5q55 0 81 24.5t26 80.5v739l-555 -739q0 -63 28.5 -84t98.5 -21q18 0 18 -16q0 -1 -8 -29q-5 -16 -27 -16h-438q-12 0 -12 12zM330 1450q0 53 16.5 83t56.5 62q22 17 74 11q44 -5 41 -23q-1 -5 -6 -10q-31 -33 -31 -92q0 -97 185 -97q151 0 151 97q0 54 -24 80 q-10 12 21 29q42 24 72 12q4 -1 7 -3q43 -28 59.5 -58t16.5 -71q0 -45 -23.5 -79.5t-58 -53.5t-83 -30.5t-89.5 -15t-86 -3.5q-36 0 -63.5 1.5t-65.5 6t-65 15.5t-52.5 28t-39 45.5t-13.5 65.5z" />
<glyph unicode="&#x41a;" horiz-adv-x="1204" d="M29 12q0 1 6 19l2 6q2 6 2.5 7t3 5.5t4.5 5t5.5 3t7.5 3t10 0.5q55 0 80.5 24.5t25.5 80.5v917q0 51 -30 72t-89 21q-10 0 -10 12q0 4 10 24q13 25 35 25h387q17 0 17 -12q0 -7 -4 -19q-12 -30 -31 -30q-36 0 -64 -28.5t-28 -64.5v-338l344 347q37 41 20.5 62.5 t-74.5 21.5q-10 0 -10 11t8 25q15 25 37 25h367q10 0 13 -11.5t-5 -23.5q-15 -26 -49 -26q-48 0 -91.5 -27.5t-103.5 -83.5l-280 -264q35 0 60 -4t53.5 -16t52.5 -38t43 -67l221 -465q45 -96 96 -96q10 0 33 10t47 31q14 12 29.5 1t20.5 -29.5t-3 -31.5q-47 -52 -113 -92.5 t-133 -40.5q-66 0 -92.5 22.5t-66.5 110.5l-193 424q-21 46 -33.5 68.5t-31.5 44.5t-42.5 31t-58.5 10l-65 -58v-450q0 -63 28.5 -84t98.5 -21q18 0 18 -16q0 -1 -8 -29q-5 -16 -27 -16h-438q-12 0 -12 12z" />
<glyph unicode="&#x41b;" horiz-adv-x="1263" d="M0 219q-3 12 15 26.5t38 22t23 0.5q48 -102 119 -102q20 0 42 26.5t45 84t41.5 137.5t30 199t11.5 257v213q0 54 -28.5 73.5t-88.5 19.5q-10 0 -10 12q0 8 8 24q15 25 37 25h909q18 0 18 -10q0 -9 -6 -21q-15 -30 -37 -30q-36 0 -61 -28.5t-25 -64.5v-917q0 -63 28.5 -84 t98.5 -21q19 0 19 -16q0 -1 -8 -29q-5 -16 -27 -16h-438q-13 0 -13 12q0 2 1.5 5t3 7.5t2.5 6.5t2.5 6.5t2 6.5t2.5 5.5t4 5t5.5 3.5t7.5 2.5t10 0.5q55 0 81 24.5t26 80.5v954h-387v-233q0 -55 -0.5 -93t-4 -113.5t-9.5 -131.5t-19 -133.5t-30.5 -133.5t-46 -116t-64 -97.5 t-85 -62t-108.5 -24.5q-31 0 -51.5 7t-31.5 18t-18 33.5t-10 44t-9.5 61t-14.5 73.5z" />
<glyph unicode="&#x41c;" horiz-adv-x="1495" d="M7 9q-2 9 3 20q9 24 20 29q7 3 17 3q53 0 77 24t30 81l114 917q0 52 -29.5 72.5t-88.5 20.5q-10 0 -10.5 11t7.5 25q15 25 37 25h248q28 0 43 -57l301 -916l289 848q8 22 17 60t16.5 51.5t23.5 13.5h285q16 0 17.5 -8.5t-5.5 -22.5q-15 -30 -30 -30q-38 0 -67 -28 t-26 -65l88 -917q6 -64 32.5 -84.5t94.5 -20.5q10 0 15 -9t2 -21q-9 -31 -33 -31h-438q-9 0 -11 9t3 20q0 1 1.5 5t2 5.5t2 5t3 4.5t3.5 3.5t4 3.5l5 2.5t7 2t8 0.5q57 0 85 24.5t22 80.5l-72 768l-250 -768q-43 -38 -66.5 -73.5t-43.5 -92.5q-5 -13 -21 -25t-34 -12t-32 10 t-14 23q0 47 -10 72l-276 858l-97 -760q-7 -62 24 -83.5t103 -21.5q10 0 15 -9t2 -21q-9 -31 -33 -31h-369q-9 0 -11 9z" />
<glyph unicode="&#x41d;" horiz-adv-x="1296" d="M27 12q0 1 6 19l2 6q2 6 2.5 7t3 5.5t4.5 5t5.5 3t7.5 3t10 0.5q55 0 80.5 24.5t25.5 80.5v917q0 51 -30 72t-89 21q-10 0 -10 12q0 4 10 24q13 25 35 25h387q17 0 17 -12q0 -4 -5 -19q-12 -30 -30 -30q-36 0 -64 -28.5t-28 -64.5v-358h559v358q0 51 -30 72t-89 21 q-10 0 -10 12q0 4 10 24q13 25 35 25h387q16 0 16 -12q0 -7 -4 -19q-12 -30 -31 -30q-36 0 -64 -28.5t-28 -64.5v-917q0 -63 28.5 -84t98.5 -21q19 0 19 -16q0 -4 -1.5 -7.5t-3.5 -10t-4 -11.5q-5 -16 -26 -16h-438q-13 0 -13 12q0 1 6 19l2 6q2 6 2.5 7t3 5.5t4.5 5t5.5 3 t7.5 3t10 0.5q55 0 81 24.5t26 80.5v448h-559v-448q0 -63 28.5 -84t98.5 -21q18 0 18 -16q0 -1 -8 -29q-5 -16 -27 -16h-438q-12 0 -12 12z" />
<glyph unicode="&#x41e;" horiz-adv-x="1183" d="M16 555q0 130 48 259t130.5 231t202.5 165.5t254 63.5q106 0 200.5 -50.5t160 -134t103.5 -191.5t38 -222q0 -140 -48 -270t-131 -228t-202 -156.5t-252 -58.5q-103 0 -197.5 52.5t-161 136t-106 190t-39.5 213.5zM229 637q0 -99 22.5 -189t65 -162.5t112 -115.5 t157.5 -43q154 0 254 131.5t100 319.5q0 154 -37 271.5t-118.5 189t-198.5 71.5q-82 0 -151 -41.5t-113 -109.5t-68.5 -151.5t-24.5 -170.5z" />
<glyph unicode="&#x41f;" horiz-adv-x="1294" d="M27 12q0 1 6 19l2 6q2 6 2.5 7t3 5.5t4.5 5t5.5 3t7.5 3t10 0.5q55 0 80.5 24.5t25.5 80.5v917q0 54 -28.5 73.5t-88.5 19.5q-10 0 -10 12q0 8 8 24q15 25 37 25h1137q18 0 18 -10q0 -9 -6 -21q-15 -30 -37 -30q-36 0 -61 -28.5t-25 -64.5v-917q0 -63 28.5 -84t98.5 -21 q19 0 19 -16q0 -4 -1.5 -7.5t-3.5 -10t-4 -11.5q-5 -16 -26 -16h-438q-13 0 -13 12q0 1 6 19l2 6q2 6 2.5 7t3 5.5t4.5 5t5.5 3t7.5 3t10 0.5q55 0 81 24.5t26 80.5v954h-559v-954q0 -63 28.5 -84t98.5 -21q18 0 18 -16q0 -1 -8 -29q-5 -16 -27 -16h-438q-12 0 -12 12z" />
<glyph unicode="&#x420;" horiz-adv-x="1011" d="M29 12q0 1 6 19l2 6q2 6 2.5 7t3 5.5t4.5 5t5.5 3t7.5 3t10 0.5q55 0 80.5 24.5t25.5 80.5v917q0 54 -28.5 73.5t-88.5 19.5q-10 0 -10 12q0 8 8 24q15 25 37 25h207q69 0 205 9t156 9q66 0 122 -15t102 -46t72.5 -86t26.5 -129q0 -112 -66 -212t-171 -158t-216 -58 q-68 0 -163 35v-420q0 -63 28.5 -84t98.5 -21q18 0 18 -16q0 -1 -8 -29q-5 -16 -27 -16h-438q-12 0 -12 12zM369 717q78 -55 206 -55q95 0 153 66.5t58 172.5q0 117 -65.5 177.5t-185.5 60.5h-144q-10 0 -16 -8t-6 -15v-399z" />
<glyph unicode="&#x421;" horiz-adv-x="960" d="M20 602q0 130 40 251t111 214.5t178.5 150t234.5 56.5q32 0 87 -18.5t79 -18.5q49 0 67 18q9 9 17 9q14 0 26 -8.5t12 -18.5q0 -16 -12 -54.5t-12 -56.5q0 -33 12 -99t12 -105q0 -13 -21.5 -26t-39.5 -13q-14 0 -14 8q0 109 -88 187.5t-189 78.5q-68 0 -120 -31.5 t-83 -80.5t-50.5 -116.5t-26.5 -131.5t-7 -135q0 -46 4.5 -93t15.5 -101t28.5 -101.5t45.5 -92t64.5 -76.5t88 -51.5t112.5 -19.5q79 0 147.5 50t141.5 136q6 6 14 6q15 0 31 -19.5t16 -35.5q0 -8 -4 -12q-17 -17 -62.5 -63t-69 -68t-69 -58t-82 -53.5t-88.5 -32t-106 -14.5 q-90 0 -165 40.5t-125 105.5t-85 150t-50.5 171.5t-15.5 171.5z" />
<glyph unicode="&#x422;" horiz-adv-x="980" d="M0 909l18 330q1 14 15 22.5t25 9.5t32 3q17 1 68.5 -18t81.5 -19h483q30 0 81 19t68 18q21 -2 32 -3t25 -9.5t15 -22.5l19 -330q1 -20 -31 -17q-37 4 -51 26q-4 6 -4 12q-6 100 -64.5 145t-171.5 45h-63v-954q0 -63 28.5 -84t98.5 -21q18 0 18 -16q0 -1 -8 -29 q-5 -16 -27 -16h-438q-12 0 -12 12q0 1 6 19l2 6q2 6 2.5 7t3 5.5t4.5 5t5.5 3t7.5 3t10 0.5q55 0 80.5 24.5t25.5 80.5v954h-63q-113 0 -171.5 -45t-64.5 -145q-1 -22 -37 -34q-37 -12 -47 4q-2 4 -2 9z" />
<glyph unicode="&#x423;" horiz-adv-x="1138" d="M0 1187q0 11 8 25q15 25 37 25h420q16 0 17.5 -8.5t-5.5 -22.5q-15 -30 -31 -30q-41 0 -75 -28.5t-17 -64.5l283 -618l225 618q14 52 -20 72.5t-99 20.5q-10 0 -10 11t8 25q15 25 37 25h342q27 0 13 -31q-15 -30 -31 -30q-34 0 -53.5 -22t-38.5 -71l-375 -946 q-30 -80 -92.5 -127t-134.5 -47q-39 0 -68 11.5t-29 25.5q2 93 -41 219q-4 13 13 30t35.5 22.5t27.5 -3.5q1 -2 8 -14.5t10.5 -18t11.5 -18t13.5 -19.5t14 -17.5t16 -17t16 -12.5t17.5 -9t18 -3q11 0 20 6t17 20t12.5 22.5t12.5 28.5t10 24l-414 843q-29 59 -48 76t-71 17 q-10 0 -10 11z" />
<glyph unicode="&#x424;" horiz-adv-x="1296" d="M12 596q1 124 82 238t206 181.5t253 67.5q0 51 -30 72t-89 21q-10 0 -10 12q0 4 10 24q12 25 35 25h387q16 0 16 -12q0 -7 -4 -19q-12 -30 -30 -30q-36 0 -64.5 -28.5t-28.5 -64.5q81 0 154.5 -11.5t145.5 -40t124 -72t84.5 -114t32.5 -159.5q0 -129 -76.5 -250 t-202.5 -195.5t-262 -74.5q0 -63 28.5 -84t98.5 -21q19 0 19 -16q0 -1 -8 -29q-5 -16 -27 -16h-438q-12 0 -12 12q0 1 6 19q1 2 2.5 6.5t2 6.5t2.5 5.5t4 5t5.5 3.5t7.5 2.5t10 0.5q55 0 81 24.5t26 80.5q-103 0 -196 24.5t-172 74t-126 135t-47 196.5zM225 641 q0 -165 86 -261.5t242 -96.5v690q-140 0 -234 -86t-94 -246zM745 283q151 0 239.5 94t88.5 264q0 161 -85.5 246.5t-242.5 85.5v-690z" />
<glyph unicode="&#x425;" horiz-adv-x="1290" d="M0 12q0 9 8 25q14 24 37 24q39 0 67 23t68 74l375 471l-324 436q-44 63 -75 87t-78 24q-10 0 -10 12q0 8 8 24q15 25 37 25h444q18 0 18 -12q0 -7 -6 -19q-15 -30 -30 -30q-50 0 -73.5 -37.5t7.5 -81.5l225 -299l244 299q24 32 23 54.5t-22.5 37t-46 21t-48.5 6.5 q-10 0 -10 12q0 8 8 24q15 25 37 25h358q19 0 19 -12q0 -5 -7 -19q-15 -30 -30 -30q-11 0 -21 -3t-16 -5.5t-16 -12t-13.5 -13.5t-16 -18.5t-16.5 -19.5l-362 -428l379 -498q89 -117 123 -117q18 0 18 -12q0 -6 -6 -18q-16 -31 -31 -31h-465q-10 0 -10 12q0 9 8 25 q14 24 37 24q67 0 82.5 38t-31.5 104l-245 327l-238 -307q-54 -73 -43 -117.5t72 -44.5q18 0 18 -12q0 -6 -6 -18q-16 -31 -31 -31h-383q-10 0 -10 12z" />
<glyph unicode="&#x426;" horiz-adv-x="1308" d="M29 14q0 9 4 21q1 1 2.5 6t2 6t2.5 4.5t3.5 4.5t5 2.5t7.5 2t10 0.5q55 0 81.5 24.5t26.5 80.5v917q0 51 -30 72t-89 21q-10 0 -10 12q0 4 10 24q13 25 35 25h387q17 0 17 -12q0 -4 -5 -19q-12 -30 -30 -30q-36 0 -64 -28.5t-28 -64.5v-970h559v970q0 51 -30 72t-89 21 q-10 0 -10 12q0 4 10 24q13 25 35 25h387q16 0 16 -12q0 -7 -4 -19q-12 -30 -31 -30q-36 0 -64 -28.5t-28 -64.5v-966q77 0 105 39q8 10 32.5 1.5t20.5 -24.5q-18 -65 -18 -116t9 -109t9 -101q0 -16 -35 -32q-37 -13 -41 2q0 112 -49.5 167.5t-155.5 55.5h-956q-10 0 -10 14 z" />
<glyph unicode="&#x427;" horiz-adv-x="1210" d="M4 1188q0 4 10 24q12 25 35 25h387q17 0 17 -12q0 -7 -4 -19q-12 -30 -31 -30q-36 0 -64 -28.5t-28 -64.5v-94q0 -135 94.5 -216t234.5 -81q43 0 65 1t52 6t55 16q3 2 9.5 7t9.5 7v354q0 51 -30 72t-89 21q-10 0 -10 12q0 4 10 24q13 25 35 25h387q16 0 16 -12 q0 -7 -4 -19q-12 -30 -31 -30q-36 0 -64 -28.5t-28 -64.5v-917q0 -63 28.5 -84t98.5 -21q19 0 19 -16q0 -1 -8 -29q-5 -16 -27 -16h-438q-13 0 -13 12q0 2 1.5 5t3 7.5t2.5 6.5t2.5 6.5t2 6.5t2.5 5.5t4 5t5.5 3.5t7.5 2.5t10 0.5q55 0 81 24.5t26 80.5v434 q-175 -59 -336 -59q-148 0 -262.5 94t-114.5 235v213q0 51 -30 72t-89 21q-10 0 -10 12z" />
<glyph unicode="&#x428;" horiz-adv-x="1708" d="M29 14q0 9 4 21q1 1 2.5 6t2 6t2.5 4.5t3.5 4.5t5 2.5t7.5 2t10 0.5q55 0 81.5 24.5t26.5 80.5v917q0 51 -30 72t-89 21q-10 0 -10 12q0 4 10 24q13 25 35 25h387q17 0 17 -12q0 -4 -5 -19q-12 -30 -30 -30q-36 0 -64 -28.5t-28 -64.5v-966h389v966q0 51 -30 72t-89 21 q-10 0 -10 12q0 4 10 24q13 25 35 25h387q16 0 16 -12q0 -7 -4 -19q-12 -30 -31 -30q-36 0 -64 -28.5t-28 -64.5v-966h389v966q0 52 -29.5 72.5t-88.5 20.5q-11 0 -11 12q0 2 11 24q13 25 34 25h387q17 0 17 -12q0 -7 -4 -19q-12 -30 -31 -30q-36 0 -64 -28.5t-28 -64.5 v-917q0 -63 28.5 -84t98.5 -21q18 0 18 -16q0 -2 -4 -18q-8 -27 -31 -27h-1601q-10 0 -10 14z" />
<glyph unicode="&#x429;" horiz-adv-x="1730" d="M29 14q0 9 4 21q1 1 2.5 6t2 6t2.5 4.5t3.5 4.5t5 2.5t7.5 2t10 0.5q55 0 81.5 24.5t26.5 80.5v915q0 51 -30 72t-89 21q-10 0 -10 12q0 4 10 24q13 25 35 25h387q17 0 17 -12q0 -4 -5 -19q-12 -30 -30 -30q-36 0 -64 -28.5t-28 -64.5v-964h389v966q0 51 -30 72t-89 21 q-10 0 -10 12q0 4 10 24q13 25 35 25h387q16 0 16 -12q0 -7 -4 -19q-12 -30 -31 -30q-36 0 -64 -28.5t-28 -64.5v-966h389v966q0 52 -29.5 72.5t-88.5 20.5q-11 0 -11 12q0 2 11 24q13 25 34 25h387q17 0 17 -12q0 -7 -4 -19q-12 -30 -31 -30q-36 0 -64 -28.5t-28 -64.5 v-966q76 0 104 39q8 10 33 1.5t21 -24.5q-18 -65 -18 -116t9 -109t9 -101q0 -16 -35 -32q-37 -13 -41 2q0 112 -49.5 167.5t-155.5 55.5h-1368q-10 0 -10 14z" />
<glyph unicode="&#x42a;" horiz-adv-x="1126" d="M14 907q-1 39 4.5 83t11 74.5t4 75t-13.5 93.5q-3 12 28 33.5t42 7.5q31 -37 129 -37h344q19 0 19 -10q0 -7 -7 -21q-15 -30 -36 -30q-36 0 -61 -28.5t-25 -64.5v-290h249q78 0 150.5 -22t132 -64.5t95.5 -111.5t36 -155q0 -99 -46 -186.5t-118 -146t-160 -92t-174 -33.5 q-42 0 -135 9t-161 9h-197q-9 0 -11 9t3 20q9 24 20 29q7 3 17 3q55 0 80.5 24.5t25.5 80.5v954q-81 0 -124.5 -57.5t-45.5 -151.5q0 -9 -26 -22q-42 -20 -49 8q-1 4 -1 10zM453 119q72 -21 198 -21q252 0 252 291q0 148 -89.5 217.5t-248.5 69.5h-112v-557z" />
<glyph unicode="&#x42b;" horiz-adv-x="1443" d="M28 9q-2 9 3 20q9 24 20 29q7 3 17 3q55 0 80.5 24.5t25.5 80.5v917q0 51 -30 72t-89 21q-10 0 -10 12q0 4 10 24q13 25 35 25h387q17 0 17 -12q0 -4 -5 -19q-12 -30 -30 -30q-36 0 -64 -28.5t-28 -64.5v-290h249q78 0 150.5 -22t132 -64.5t95.5 -111.5t36 -155 q0 -99 -46 -186.5t-118 -146t-160 -92t-174 -33.5q-42 0 -135 9t-161 9h-197q-9 0 -11 9zM367 119q72 -21 198 -21q252 0 252 291q0 148 -89.5 217.5t-248.5 69.5h-112v-557zM938 12q0 1 6 19l2 6q2 6 2.5 7t3 5.5t4.5 5t5.5 3t7.5 3t10 0.5q55 0 80.5 24.5t25.5 80.5v917 q0 52 -29.5 72.5t-88.5 20.5q-11 0 -11 12q0 2 11 24q13 25 34 25h388q16 0 16 -12q0 -7 -4 -19q-12 -30 -31 -30q-36 0 -64 -28.5t-28 -64.5v-917q0 -63 28.5 -84t98.5 -21q18 0 18 -16q0 -1 -8 -29q-5 -16 -26 -16h-439q-12 0 -12 12z" />
<glyph unicode="&#x42c;" horiz-adv-x="1038" d="M28 9q-2 9 3 20q9 24 20 29q7 3 17 3q55 0 80.5 24.5t25.5 80.5v917q0 51 -30 72t-89 21q-10 0 -10 12q0 4 10 24q13 25 35 25h387q17 0 17 -12q0 -4 -5 -19q-12 -30 -30 -30q-36 0 -64 -28.5t-28 -64.5v-290h249q78 0 150.5 -22t132 -64.5t95.5 -111.5t36 -155 q0 -99 -46 -186.5t-118 -146t-160 -92t-174 -33.5q-42 0 -135 9t-161 9h-197q-9 0 -11 9zM367 119q72 -21 198 -21q252 0 252 291q0 148 -89.5 217.5t-248.5 69.5h-112v-557z" />
<glyph unicode="&#x42d;" horiz-adv-x="972" d="M25.5 269q12.5 16 35 23.5t29.5 0.5q87 -80 161 -123t165 -43q291 0 309 514l-4 55h-219q-60 0 -104 -33t-44 -90q0 -19 -28 -34q-33 -17 -44 4q-3 6 -3 16q-3 40 12 121.5t6 130.5q-2 6 10 19t26 17.5t25 -9.5q27 -45 170 -45h187q-9 62 -22.5 112.5t-38 98.5t-57 81 t-81.5 52.5t-110 19.5q-92 0 -169 -70t-77 -153q0 -16 -19 -24.5t-38 -4t-19 20.5q0 42 8 101t8 105.5t-16 96.5q-4 13 22.5 36.5t43.5 8.5q28 -26 44 -31.5t56 -5.5q29 0 108 18.5t121 18.5q96 0 174 -32t130.5 -87.5t87.5 -133.5t51 -166.5t16 -190.5q0 -76 -12.5 -155 t-37.5 -158.5t-65.5 -148.5t-92.5 -123t-123 -85t-152 -31q-119 0 -232 78t-196 188q-14 24 -1.5 40z" />
<glyph unicode="&#x42e;" horiz-adv-x="1642" d="M30 9q-2 9 3 20q9 24 20 29q7 3 17 3q55 0 80.5 24.5t25.5 80.5v917q0 51 -30 72t-89 21q-10 0 -10 11t8 25q15 25 37 25h387q27 0 13 -31q-15 -30 -31 -30q-36 0 -64 -28.5t-28 -64.5v-358h129q26 109 82.5 207.5t134.5 175t181.5 121.5t215.5 45q106 0 200.5 -50.5 t160 -134t103.5 -191.5t38 -222q0 -140 -48 -270t-131 -228t-202 -156.5t-252 -58.5q-103 0 -197.5 52.5t-161 136t-106 190t-39.5 213.5q0 39 2 59h-110v-448q0 -63 28.5 -84t98.5 -21q10 0 14.5 -9t1.5 -21q-9 -31 -33 -31h-438q-9 0 -11 9zM690 637q0 -99 22.5 -189 t65 -162.5t112 -115.5t157.5 -43q154 0 254 131.5t100 319.5q0 154 -37 271.5t-118.5 189t-198.5 71.5q-82 0 -151 -41.5t-113 -109.5t-68.5 -151.5t-24.5 -170.5z" />
<glyph unicode="&#x42f;" horiz-adv-x="1204" d="M-22 114.5q12 15.5 36 23.5t31 1q40 -40 80 -35q13 1 41 32t39 54l149 304q70 143 131 161q-109 24 -190.5 106.5t-81.5 196.5q0 77 32.5 137t87 95t119 52.5t134.5 17.5q20 0 159 -11.5t207 -11.5h183q18 0 18 -10q0 -9 -6 -21q-15 -30 -37 -30q-36 0 -61 -28.5 t-25 -64.5v-917q0 -63 28.5 -84t98.5 -21q18 0 18 -16q0 -1 -8 -29q-5 -16 -26 -16h-439q-12 0 -12 12q0 1 6 19l2 6q2 6 2.5 7t3 5.5t4.5 5t5.5 3t7.5 3t10 0.5q55 0 80.5 24.5t25.5 80.5v489q-49 1 -80 -2t-65.5 -14t-60 -36t-43.5 -66l-195 -420q-43 -93 -83 -123.5 t-118 -30.5q-34 0 -65.5 10.5t-58 30t-43.5 35t-37 37.5q-16 23 -4 38.5zM414 922q0 -50 19.5 -86.5t53.5 -55.5t73 -28t85 -9q28 0 60 2t70 6t56 5v360l3 -14q0 21 -12.5 31t-28.5 10h-164q-105 0 -160 -56t-55 -165z" />
<glyph unicode="&#x430;" horiz-adv-x="921" d="M33 211q0 75 26.5 134.5t65 95.5t100 68t113.5 49.5t123.5 42t113.5 42.5q0 142 -41 196t-135 54q-76 0 -153.5 -59t-77.5 -123q0 -10 -18.5 -20.5t-36.5 -10.5q-21 0 -21 16q0 54 20.5 112t20.5 140q0 41 35 41q9 0 47.5 -10t69.5 -10q34 0 102.5 18.5t108.5 18.5 q108 0 181 -62t73 -160v-618q0 -70 41 -70q15 0 28 8.5t39 34.5q13 13 19 13q10 0 20 -18.5t10 -37.5q0 -13 -10 -20q-108 -94 -199 -94q-59 0 -88.5 36.5t-34.5 94.5q-182 -150 -329 -150q-108 0 -160.5 70t-52.5 178zM229 238q0 -61 30.5 -101.5t84.5 -40.5q80 0 138 56 t93 141v248q-190 -32 -284 -129q-62 -62 -62 -174z" />
<glyph unicode="&#x431;" horiz-adv-x="960" d="M45 455q0 93 17.5 232.5t17.5 236.5q0 207 129.5 305t359.5 98q47 0 152.5 32t114.5 32q14 0 28.5 -8t14.5 -17q0 -5 -5 -10q-110 -110 -181.5 -145t-196.5 -35q-82 0 -139.5 -29t-86.5 -81.5t-41 -111t-12 -133.5q151 164 352 164q78 0 141.5 -31t104 -80t68.5 -112.5 t39.5 -125.5t11.5 -122q0 -102 -41.5 -202.5t-110 -177t-161.5 -124t-189 -47.5q-73 0 -137.5 31.5t-109 82.5t-77 116t-48 132t-15.5 130zM242 502q0 -111 28.5 -202.5t85 -147.5t131.5 -56q115 0 182.5 101.5t67.5 267.5q0 169 -66 278t-179 109q-42 0 -86 -24.5 t-80.5 -68t-60 -111t-23.5 -146.5z" />
<glyph unicode="&#x432;" horiz-adv-x="983" d="M37 586q0 162 40 308t111.5 256.5t177.5 175.5t230 65q34 0 73 -8t81.5 -27t76.5 -47.5t56 -74t22 -101.5q0 -168 -233 -271q121 -22 198.5 -133.5t77.5 -265.5q0 -94 -41.5 -185t-110.5 -160.5t-164.5 -112t-197.5 -42.5q-89 0 -166.5 62.5t-126.5 157.5t-76.5 201.5 t-27.5 201.5zM238 696q0 -304 67.5 -452t210.5 -148q117 0 176.5 77.5t59.5 213.5q0 55 -8 105.5t-27.5 98.5t-49.5 83t-76.5 56.5t-105.5 21.5q-24 0 -48.5 -14t-41.5 -31t-35 -31t-30 -14q-11 0 -24.5 26.5t-14.5 50.5q0 22 8 27q73 56 125 80.5t156 50.5q50 12 91.5 68.5 t41.5 113.5q0 174 -183 174q-57 0 -103.5 -22t-77.5 -62.5t-53.5 -91.5t-34.5 -116t-17.5 -129t-5.5 -136z" />
<glyph unicode="&#x433;" horiz-adv-x="770" d="M41 209q0 74 26.5 133.5t68.5 98t93 69.5t102.5 55.5t93.5 49t68.5 56.5t26.5 72q0 67 -46 98t-116 31q-78 0 -127 -55.5t-59 -136.5q-1 -15 -16 -26t-33 -11q-10 0 -18.5 10.5t-8.5 26.5q0 28 8.5 83.5t8.5 86.5q0 18 -8.5 53t-8.5 45q0 9 18.5 23t35.5 14q5 0 39 -18.5 t53 -18.5q18 0 74.5 18.5t99.5 18.5q121 0 209 -51t88 -141q0 -52 -16 -94t-43.5 -70t-63.5 -51t-75.5 -41.5t-78.5 -37t-75 -41.5t-63.5 -51t-43.5 -69.5t-16 -93.5q0 -66 49.5 -107t124.5 -41q94 0 159.5 73t65.5 175q0 7 20.5 17t38.5 12q17 0 17 -29q0 -42 -10.5 -107 t-10.5 -102q0 -21 10.5 -61.5t10.5 -53.5q0 -19 -15.5 -38t-33.5 -19q-10 0 -18 10t-13 22t-14.5 22t-22.5 10q-15 0 -105.5 -32t-142.5 -32q-67 0 -121 13t-96.5 41t-66 76.5t-23.5 115.5z" />
<glyph unicode="&#x434;" horiz-adv-x="866" d="M-10 444q0 136 64.5 256t184.5 194.5t269 74.5q41 0 84.5 -18.5t85.5 -18.5q16 0 43 18.5t39 18.5q18 0 30.5 -14t12.5 -23q0 -32 -20.5 -74.5t-20.5 -87.5v-752q0 -106 -67 -213.5t-172 -176t-210 -68.5q-69 0 -132.5 20.5t-109.5 67.5t-46 112q0 32 50.5 82t104.5 85.5 t70 35.5q14 0 27.5 -16.5t15.5 -32.5q0 -15 -10 -20q-37 -20 -49.5 -39.5t-12.5 -44.5q0 -70 43.5 -102t114.5 -32q67 0 116 70.5t71 172.5t22 218q-129 -137 -254 -137q-63 0 -119.5 28t-96.5 74t-69.5 104.5t-44 119.5t-14.5 118zM182 500q0 -56 15 -115t43.5 -112 t76.5 -87t107 -34q53 0 95.5 40.5t68.5 96.5v512q-67 55 -158 55q-75 0 -127.5 -35t-77 -93.5t-34 -113t-9.5 -114.5z" />
<glyph unicode="&#x435;" horiz-adv-x="823" d="M16 465q0 98 28.5 189.5t82.5 166t140 119.5t192 45q81 0 142.5 -32.5t97 -89t52.5 -125.5t17 -150q0 -25 -7 -33t-34 -8h-508q-1 -11 -3.5 -36t-2.5 -40q0 -356 246 -356q79 0 133 27t149 124q6 6 17 6q15 0 27 -15t12 -34q0 -14 -13 -30q-41 -46 -67 -73t-65.5 -61 t-74 -52t-80.5 -31t-96 -13q-93 0 -168.5 45t-121.5 118t-70.5 160.5t-24.5 178.5zM227 659h344q0 213 -178 213q-60 0 -106.5 -64t-59.5 -149z" />
<glyph unicode="&#x436;" horiz-adv-x="1550" d="M-10 125q-6 10 15 29.5t30 11.5q7 -6 19 -18t18.5 -17.5t17.5 -10.5t23 -5q32 0 55 22t51 74l160 293q31 57 65 83.5t86 20.5l-237 217q-37 34 -75 48t-107 14q-11 0 -11 12q0 7 9 25q14 24 36 24h353q18 0 18 -12q0 -6 -6 -18q-16 -31 -31 -31q-17 0 -32 -10t-18 -29 t22 -47l235 -238v590q0 35 -3.5 56.5t-15.5 43t-38 31.5t-68 10q-11 2 -9 13.5t11 23.5q17 25 43 25q89 0 148.5 18.5t81.5 18.5q19 0 31 -15.5t12 -38.5q0 -17 -9.5 -47.5t-9.5 -62.5v-666l236 238q25 28 22 47t-18.5 29t-32.5 10q-10 0 -10 11.5t8 25.5q14 24 37 24h330 q16 0 17.5 -8t-5.5 -22q-16 -31 -31 -31q-54 0 -88.5 -14t-71.5 -48l-237 -217q52 6 86 -20.5t65 -83.5l160 -293q27 -52 50.5 -74t56.5 -22q16 0 27 5.5t27.5 23t22.5 22.5q9 8 30 -11.5t15 -29.5q-34 -60 -94 -101.5t-123 -41.5q-94 0 -131 75l-116 236q-9 18 -24 52 t-22.5 50.5t-23 39t-30.5 32.5t-39 16.5t-54 3.5l-39 -38v-283q0 -61 22.5 -83t90.5 -22q15 0 20 -11t-4 -23q-19 -27 -41 -27h-368q-10 0 -12.5 9.5t3.5 21.5q17 30 37 30q78 0 78 105v283l-39 38q-30 3 -53.5 -3.5t-38.5 -16.5t-30.5 -32.5t-23.5 -39t-22.5 -50 t-23.5 -52.5l-117 -236q-37 -75 -131 -75q-63 0 -123 41.5t-94 101.5z" />
<glyph unicode="&#x437;" horiz-adv-x="884" d="M37 307q-6 19 8 35.5t30 19t23 -5.5q75 -146 149.5 -212t186.5 -66q88 0 147.5 56.5t59.5 141.5q0 100 -55 153.5t-156 53.5q-81 0 -151 -32q-9 -4 -18 14t-10 37t9 28q92 50 201 50q143 0 143 114q0 85 -65 131.5t-150 46.5q-53 0 -105 -19t-90 -62t-38 -101 q0 -9 -18 -23.5t-35 -19.5t-23 8q0 29 5 80t5 100.5t-10 106.5q-4 25 30 37.5t46 -0.5q35 -31 102 -31q40 0 101 18.5t110 18.5q42 0 82.5 -6t83 -22t74.5 -41t52.5 -65.5t20.5 -92.5q0 -35 -5 -63.5t-19 -59.5t-43.5 -56t-73.5 -40q193 -48 193 -242q0 -56 -20 -105 t-53.5 -84.5t-77 -64t-93 -45.5t-98.5 -26t-95 -9q-124 0 -215 90t-145 254z" />
<glyph unicode="&#x438;" horiz-adv-x="1009" d="M14 895q0 10 6 25q11 28 48 28q89 0 148 18.5t81 18.5q19 0 31 -15t12 -38q0 -17 -9 -48t-9 -63v-577q0 -53 41.5 -100.5t91.5 -47.5q131 0 231 215v434q0 72 -23.5 107t-101.5 35q-8 0 -8 8q0 10 6 25q11 28 47 28q89 0 148.5 18.5t81.5 18.5q19 0 31 -15t12 -38 q0 -17 -9.5 -48t-9.5 -63v-655q0 -70 41 -70q15 0 28.5 8.5t39.5 34.5q13 13 18 13q10 0 20.5 -18.5t10.5 -37.5q0 -13 -10 -20q-108 -94 -199 -94q-59 0 -88.5 36.5t-34.5 94.5q-180 -150 -326 -150q-81 0 -147 50t-66 126v606q0 35 -3.5 56.5t-15 43.5t-37.5 32t-68 10 q-9 0 -9 8z" />
<glyph unicode="&#x439;" horiz-adv-x="974" d="M20 895q0 7 7 25q11 28 47 28q89 0 148 18.5t81 18.5q19 0 31 -15t12 -38q0 -17 -9 -48t-9 -63v-577q0 -53 41.5 -100.5t91.5 -47.5q131 0 231 215v434q0 72 -23.5 107t-101.5 35q-8 0 -8 8q0 10 6 25q11 28 47 28q89 0 148.5 18.5t81.5 18.5q19 0 31 -15t12 -38 q0 -17 -9.5 -48t-9.5 -63v-655q0 -70 41 -70q15 0 28.5 8.5t39.5 34.5q13 13 18 13q10 0 20.5 -18.5t10.5 -37.5q0 -13 -10 -20q-108 -94 -199 -94q-59 0 -88.5 36.5t-34.5 94.5q-180 -150 -325 -150q-81 0 -147 50t-66 126v606q0 72 -23.5 107t-101.5 35q-9 0 -9 8z M164 1235q0 52 17 82.5t57 62.5q22 18 74 11q43 -5 40 -23q-2 -5 -6 -10q-31 -33 -31 -92q0 -97 185 -97q151 0 151 97q0 54 -24 80q-10 12 21 29q42 24 72 12q4 -1 7 -3q43 -28 59.5 -58t16.5 -71q0 -45 -23.5 -79.5t-58 -53.5t-83 -30.5t-89.5 -15t-86 -3.5 q-36 0 -63.5 1.5t-65.5 6t-65 15.5t-52.5 28t-39 45.5t-13.5 65.5z" />
<glyph unicode="&#x43a;" horiz-adv-x="1034" d="M23 14q0 5 4 17q5 17 11 23.5t25 6.5q54 0 76.5 24t22.5 81v987q0 35 -3.5 56.5t-15.5 43t-38 31.5t-68 10q-8 0 -8 9t6 24q12 29 47 29q89 0 148 18.5t81 18.5q19 0 31 -15.5t12 -38.5q0 -17 -9 -47.5t-9 -62.5v-666l235 238q25 28 22 47t-18 29t-32 10q-10 0 -10 11.5 t8 25.5q14 24 37 24h329q16 0 18 -8t-5 -22q-16 -31 -31 -31q-54 0 -88.5 -14t-71.5 -48l-237 -217q100 11 163 -104l148 -293q28 -52 51 -74t55 -22q16 0 27 5.5t28.5 23.5t22.5 22q9 8 30 -11.5t15 -29.5q-34 -60 -94 -101.5t-123 -41.5q-94 0 -131 75l-117 236 q-9 19 -23.5 52.5t-22.5 50t-23.5 39t-30.5 32.5t-38.5 16.5t-53.5 3.5l-39 -38v-283q0 -64 24.5 -84.5t92.5 -20.5q16 0 16 -20q0 -2 -1 -5t-2.5 -7t-2.5 -6q-8 -23 -27 -23h-401q-12 0 -12 14z" />
<glyph unicode="&#x43b;" horiz-adv-x="1011" d="M-2 12q0 9 8 25q14 24 37 24q21 0 44.5 28t37.5 67l217 606q18 45 18 96q0 7 -3 25t-3 30q0 15 27.5 17t65.5 7.5t55 27.5q6 8 22 15t29 7q22 0 22 -16q0 -60 21 -117l289 -704q23 -55 37 -68q23 -21 69 -21q19 0 19 -12q0 -6 -6 -18q-16 -31 -31 -31h-404q-10 0 -10 12 q0 9 8 25q14 24 37 24q42 0 58 30.5t-7 96.5l-198 512l-181 -503q-24 -61 8.5 -98.5t69.5 -37.5q19 0 19 -12q0 -6 -6 -18q-15 -31 -31 -31h-328q-10 0 -10 12z" />
<glyph unicode="&#x43c;" horiz-adv-x="1296" d="M20 9q-2 9 3 20q0 1 1.5 5t2 5.5t2 5t3 4.5t3.5 3.5t4 3.5l5 2.5t7 2t8 0.5q54 0 76.5 24t22.5 81v629q0 54 -28.5 73t-88.5 19q-10 0 -10 12q0 9 8 25q14 24 37 24h303l280 -696l265 696h315q18 0 18 -10q0 -8 -6 -20q-15 -31 -37 -31q-36 0 -61 -28t-25 -64v-629 q0 -64 24.5 -84.5t92.5 -20.5q17 0 17 -20q0 -2 -3 -9t-4 -9q-8 -23 -26 -23h-402q-12 0 -12 14q0 5 4 17q5 17 11.5 23.5t25.5 6.5q54 0 76 24t22 81v551l-188 -551q-43 -39 -67 -74.5t-44 -91.5q-5 -13 -21 -25t-34 -12t-31.5 10t-13.5 23q0 47 -10 72l-271 632v-534 q0 -64 24.5 -84.5t92.5 -20.5q10 0 15 -9t2 -21q-9 -31 -33 -31h-344q-9 0 -11 9z" />
<glyph unicode="&#x43d;" horiz-adv-x="1024" d="M23 14q0 5 4 17q5 17 11 23.5t25 6.5q54 0 76.5 24t22.5 81v579q0 72 -23.5 107t-101.5 35q-8 0 -8 8q0 10 6 25q11 28 47 28q89 0 148 18.5t81 18.5q19 0 31 -15t12 -38q0 -17 -9 -48t-9 -63v-241h364v165q0 72 -23.5 107t-101.5 35q-8 0 -8 8q0 10 6 25q11 28 48 28 q89 0 148 18.5t81 18.5q19 0 31 -15t12 -38q0 -17 -9.5 -48t-9.5 -63v-655q0 -64 24.5 -84.5t92.5 -20.5q17 0 17 -20q0 -2 -3 -9t-4 -9q-8 -23 -26 -23h-402q-12 0 -12 14q0 5 4 17q5 17 11.5 23.5t25.5 6.5q54 0 76 24t22 81v299h-364v-299q0 -64 24.5 -84.5t92.5 -20.5 q16 0 16 -20q0 -2 -1 -5t-2.5 -7t-2.5 -6q-8 -23 -27 -23h-401q-12 0 -12 14z" />
<glyph unicode="&#x43e;" horiz-adv-x="942" d="M16 432q0 69 20 144.5t61.5 148.5t97.5 131t135.5 93.5t167.5 35.5q78 0 148 -30.5t120 -80.5t87 -112t55 -126t18 -122q0 -69 -24.5 -146.5t-70 -148.5t-104.5 -129t-134 -92.5t-151 -34.5q-74 0 -141.5 28t-118.5 75t-89 107t-57.5 127t-19.5 132zM213 457 q0 -66 13 -126t41 -115t80.5 -87.5t123.5 -32.5q48 0 87.5 17.5t67 48.5t48 70t32.5 84.5t17.5 89t5.5 86.5q0 101 -18 172.5t-53.5 111.5t-81 58t-105.5 18q-65 0 -116.5 -38t-81 -98.5t-45 -127t-15.5 -131.5z" />
<glyph unicode="&#x43f;" horiz-adv-x="1038" d="M23 14q0 5 4 17q5 17 11 23.5t25 6.5q54 0 76.5 24t22.5 81v579q0 72 -23.5 107t-101.5 35q-8 0 -8 8q0 10 6 25q11 28 47 28q89 0 148 18.5t81 18.5q19 0 31 -15t12 -38q0 -17 -9 -48t-9 -63q58 86 128 125t171 39q57 0 109.5 -19t91 -63.5t38.5 -107.5v-629 q0 -64 24.5 -84.5t92.5 -20.5q17 0 17 -20q0 -2 -3 -9t-4 -9q-8 -23 -26 -23h-402q-12 0 -12 14q0 5 4 17q5 17 11.5 23.5t25.5 6.5q54 0 76 24t22 81v534q0 64 -42.5 109t-108.5 45q-122 0 -213 -178v-510q0 -64 24.5 -84.5t92.5 -20.5q16 0 16 -20q0 -2 -1 -5t-2.5 -7 t-2.5 -6q-8 -23 -27 -23h-401q-12 0 -12 14z" />
<glyph unicode="&#x440;" horiz-adv-x="972" d="M18 895q0 7 7 25q11 28 47 28q89 0 148 18.5t81 18.5q19 0 31 -15t12 -38q0 -17 -9 -48t-9 -63q129 164 272 164q85 0 154 -42.5t110 -109.5t62.5 -142t21.5 -148q0 -108 -30 -210.5t-85.5 -185.5t-143 -133.5t-193.5 -50.5q-42 0 -90 14t-78 31v-246q0 -61 22 -82.5 t90 -21.5q23 0 23 -18q0 -1 -6 -19q-7 -24 -39 -24h-371q-14 0 -14 14q0 4 3.5 13.5t4.5 13.5q5 20 35 20q78 0 78 104v983q0 72 -23.5 107t-101.5 35q-9 0 -9 8zM326 156q46 -41 92 -60.5t110 -19.5q52 0 93 31t64.5 76.5t38.5 104t20.5 106.5t5.5 91q0 48 -12.5 103.5 t-38 113t-74.5 95t-113 37.5q-63 0 -109.5 -40.5t-76.5 -97.5v-540z" />
<glyph unicode="&#x441;" horiz-adv-x="808" d="M20 465q0 96 27.5 188.5t76.5 166.5t126 119.5t168 45.5q30 0 86.5 -18.5t91.5 -18.5q30 0 55 29q5 8 19 8q12 0 24.5 -10.5t12.5 -20.5t-7.5 -36.5t-7.5 -45.5q0 -30 7.5 -95t7.5 -91q0 -11 -18 -26t-34 -15q-24 0 -24 31q0 53 -22.5 93t-59 61.5t-76 31.5t-80.5 10 q-56 0 -97 -34t-62.5 -92.5t-31 -121t-9.5 -132.5q0 -44 9.5 -92.5t32 -100t54.5 -92t82 -66.5t110 -26q125 0 228 131q5 8 22 8q20 0 37.5 -11.5t17.5 -25.5q0 -8 -6 -14q-42 -47 -67.5 -74t-67 -63.5t-76 -55.5t-81.5 -33t-97 -14q-75 0 -137.5 29.5t-105 79t-72 115 t-43 135.5t-13.5 143z" />
<glyph unicode="&#x442;" horiz-adv-x="1501" d="M23 14q0 5 4 17q5 17 11 23.5t25 6.5q54 0 76.5 24t22.5 81v579q0 72 -23.5 107t-101.5 35q-8 0 -8 8q0 10 6 25q11 28 47 28q89 0 148 18.5t81 18.5q19 0 31 -15t12 -38q0 -17 -9 -48t-9 -63q124 164 293 164q85 0 135.5 -33t73.5 -110q44 57 76.5 85.5t76.5 43 t109 14.5q57 0 109.5 -19t91 -63.5t38.5 -107.5v-629q0 -64 24.5 -84.5t92.5 -20.5q17 0 17 -20q0 -2 -3 -9t-4 -9q-8 -23 -26 -23h-402q-12 0 -12 14q0 5 4 17q5 17 11.5 23.5t25.5 6.5q54 0 76 24t22 81v534q0 64 -42.5 109t-108.5 45q-58 0 -97 -40.5t-79 -117.5v-530 q0 -64 24 -84.5t92 -20.5q17 0 17 -20l-6 -18q-8 -23 -27 -23h-401q-13 0 -13 14q0 5 4 17q5 17 11.5 23.5t25.5 6.5q54 0 76.5 24t22.5 81v534q0 51 -37 102.5t-92 51.5q-28 0 -52.5 -9.5t-46.5 -30t-36 -36.5t-35 -45t-29 -39v-528q0 -64 24.5 -84.5t92.5 -20.5 q16 0 16 -20q0 -2 -1 -5t-2.5 -7t-2.5 -6q-8 -23 -27 -23h-401q-12 0 -12 14z" />
<glyph unicode="&#x443;" horiz-adv-x="1009" d="M0 -162q0 17 21.5 33t37.5 16q14 0 19 -14q45 -121 133 -121q70 0 102 21.5t62 89.5l69 153l-329 795q-31 76 -105 76q-10 0 -10 12q0 9 8 25q14 24 37 24h379q18 0 18 -12q0 -6 -6 -18q-16 -31 -30 -31q-26 0 -43 -21.5t-17 -52.5q0 -28 8 -47l201 -496l201 482 q12 34 12 59q0 76 -109 76q-10 0 -10 12q0 9 8 25q14 24 37 24h322q18 0 18 -12q0 -6 -6 -18q-16 -31 -31 -31q-34 0 -56.5 -23.5t-33.5 -50.5l-442 -1006q-51 -116 -142.5 -181.5t-201.5 -65.5q-28 0 -55 12.5t-27 24.5q0 84 -19.5 155.5t-19.5 85.5z" />
<glyph unicode="&#x444;" horiz-adv-x="1429" d="M16 434q0 101 28.5 196.5t83 176t144.5 129.5t203 49q86 0 141 -37v205q0 35 -3.5 56.5t-15 43t-37.5 31.5t-68 10q-9 0 -9 9t6 24q12 29 48 29q89 0 148 18.5t81 18.5q19 0 31 -15.5t12 -38.5q0 -17 -9 -47.5t-9 -62.5v-281q6 3 19.5 9t18 7.5t14.5 6t14.5 5.5t13.5 3.5 t15 3.5t14.5 1.5t17.5 0.5q107 0 199 -52t150.5 -134t91 -177.5t32.5 -187.5q0 -80 -28 -162.5t-76.5 -151.5t-124 -113t-161.5 -44q-95 0 -210 123v-324q0 -64 24 -84t92 -20q17 0 17 -20q0 -1 -6 -19q-7 -22 -27 -22h-402q-12 0 -12 14q0 4 4 16q5 17 11.5 24t25.5 7 q54 0 76 23.5t22 80.5v328q-3 -2 -21.5 -16.5t-23.5 -18t-23 -16.5t-25.5 -17.5t-24 -15t-26.5 -15t-26 -11.5t-28 -9.5t-27 -5t-29 -2.5q-78 0 -145.5 47t-110 118.5t-66.5 152t-24 153.5zM213 479q0 -56 15 -117.5t43 -117.5t76.5 -92.5t107.5 -36.5q52 0 93 38t68 95v579 q-55 45 -155 45q-61 0 -107.5 -29.5t-72 -72.5t-42 -99.5t-21.5 -102t-5 -89.5zM791 268q27 -63 86 -108t118 -45q49 0 89 40t63 99.5t35 118.5t12 106q0 50 -5.5 96.5t-24.5 103t-48.5 97t-83.5 68.5t-125 28q-52 0 -108 -18q-1 -1 -4 -3t-4 -3v-580z" />
<glyph unicode="&#x445;" horiz-adv-x="1030" d="M0 12q0 9 8 25q14 24 37 24q37 0 74.5 23t56.5 51l244 340l-266 352q-18 23 -53.5 41.5t-67.5 18.5q-10 0 -10 12q0 9 8 25q14 24 37 24h413q19 0 19 -12q0 -6 -6 -18q-16 -31 -31 -31q-31 0 -46.5 -22.5t1.5 -45.5l143 -205l119 191q21 40 6.5 61t-47.5 21q-10 0 -10 12 q0 9 8 25q14 24 37 24h289q18 0 18 -12q0 -6 -6 -18q-15 -31 -31 -31q-68 0 -104 -51l-215 -312l258 -368q65 -95 114 -95q19 0 19 -12q0 -6 -6 -18q-16 -31 -31 -31h-401q-11 0 -11 12q0 9 8 25q14 24 37 24q27 0 42 25.5t-7 63.5l-160 237l-159 -231q-27 -43 -19.5 -69 t37.5 -26q19 0 19 -12q0 -4 -7 -18q-16 -31 -30 -31h-318q-10 0 -10 12z" />
<glyph unicode="&#x446;" horiz-adv-x="1054" d="M10 895q0 10 6 25q11 28 47 28q89 0 148.5 18.5t81.5 18.5q19 0 31 -15t12 -38q0 -17 -9.5 -48t-9.5 -63v-577q0 -53 42 -100.5t92 -47.5q131 0 231 215v434q0 72 -23.5 107t-101.5 35q-8 0 -8 8q0 10 6 25q11 28 47 28q89 0 148 18.5t81 18.5q19 0 31 -15t12 -38 q0 -17 -9 -48t-9 -63v-633q0 -53 33 -53q32 0 45 68q2 12 24.5 13.5t44 -10.5t21.5 -32q0 -105 -17.5 -218.5t-17.5 -201.5q0 -35 -41 -32q-40 3 -65 31q-13 14 -13 28q0 54 21.5 124t21.5 134q-48 -57 -137 -57q-33 0 -55.5 26.5t-30.5 59t-8 67.5v2q-170 -174 -326 -174 q-81 0 -147 50t-66 126v606q0 72 -23.5 107t-101.5 35q-8 0 -8 8z" />
<glyph unicode="&#x447;" horiz-adv-x="1015" d="M8 895q0 10 6 25q11 28 47 28q89 0 148.5 18.5t81.5 18.5q19 0 31 -15t12 -38q0 -17 -9.5 -48t-9.5 -63v-205q0 -67 42 -119.5t114 -52.5q109 0 211 168v133q0 72 -23.5 107t-101.5 35q-8 0 -8 8q0 10 6 25q11 28 47 28q89 0 148 18.5t81 18.5q19 0 31 -15t12 -38 q0 -17 -9 -48t-9 -63v-655q0 -64 24.5 -84.5t92.5 -20.5q16 0 16 -20l-6 -18q-8 -23 -27 -23h-401q-12 0 -12 14q0 5 4 17q5 17 11.5 23.5t25.5 6.5q54 0 76 24t22 81v295q-74 -72 -146.5 -113t-158.5 -41q-99 0 -167.5 61t-68.5 152v225q0 72 -23.5 107t-101.5 35 q-8 0 -8 8z" />
<glyph unicode="&#x448;" horiz-adv-x="1482" d="M20 895q0 7 7 25q11 28 47 28q89 0 148 18.5t81 18.5q19 0 31 -15t12 -38q0 -17 -9 -48t-9 -63v-590q0 -48 38 -91.5t93 -43.5q34 0 64 14.5t54 42.5t41 54t37 65v473q0 72 -23.5 107t-101.5 35q-8 0 -8 8q0 10 6 25q11 28 47 28q89 0 148.5 18.5t81.5 18.5q19 0 31 -15 t12 -38q0 -17 -9.5 -48t-9.5 -63v-590q0 -48 38 -91.5t94 -43.5q67 0 117.5 53t78.5 125v471q0 72 -23.5 107t-101.5 35q-8 0 -8 8q0 10 6 25q11 28 47 28q89 0 148.5 18.5t81.5 18.5q19 0 31 -15t12 -38q0 -17 -9.5 -48t-9.5 -63v-655q0 -70 41 -70q15 0 28.5 8.5 t39.5 34.5q13 13 18 13q10 0 20.5 -18.5t10.5 -37.5q0 -13 -10 -20q-108 -94 -199 -94q-59 0 -88.5 36.5t-34.5 94.5q-37 -33 -64.5 -54.5t-66.5 -46t-80.5 -37t-85.5 -12.5q-79 0 -128.5 37.5t-69.5 103.5q-124 -141 -289 -141q-87 0 -153 51.5t-66 122.5v608 q0 72 -23.5 107t-101.5 35q-9 0 -9 8z" />
<glyph unicode="&#x449;" horiz-adv-x="1525" d="M20 895q0 7 7 25q11 28 47 28q89 0 148 18.5t81 18.5q19 0 31 -15t12 -38q0 -17 -9 -48t-9 -63v-590q0 -48 38 -91.5t93 -43.5q34 0 64 14.5t54 42.5t41 54t37 65v473q0 72 -23.5 107t-101.5 35q-8 0 -8 8q0 10 6 25q11 28 47 28q89 0 148.5 18.5t81.5 18.5q19 0 31 -15 t12 -38q0 -17 -9.5 -48t-9.5 -63v-590q0 -48 38 -91.5t94 -43.5q67 0 117.5 53t78.5 125v471q0 72 -23.5 107t-101.5 35q-8 0 -8 8q0 10 6 25q11 28 47 28q89 0 148.5 18.5t81.5 18.5q19 0 31 -15t12 -38q0 -17 -9.5 -48t-9.5 -63v-633q0 -53 33 -53q32 0 45 68 q2 12 24.5 13.5t44 -10.5t21.5 -32q0 -105 -17.5 -218.5t-17.5 -201.5q0 -34 -40 -32q-39 3 -65 31q-13 14 -13 28q0 54 21.5 124t21.5 134q-48 -57 -138 -57q-33 0 -55.5 26.5t-30.5 59t-8 67.5v2q-4 -3 -40 -36.5t-47 -42.5t-44 -33.5t-53.5 -33.5t-51.5 -18.5t-61 -9.5 q-79 0 -128.5 37.5t-69.5 103.5q-124 -141 -289 -141q-87 0 -153 51.5t-66 122.5v608q0 72 -23.5 107t-101.5 35q-9 0 -9 8z" />
<glyph unicode="&#x44a;" horiz-adv-x="1056" d="M20 635q0 45 18.5 142.5t18.5 148.5q0 43 70 43q19 0 106 -10.5t150 -10.5h178q20 0 12 -28q-9 -33 -30 -33q-29 0 -53.5 -27t-24.5 -67v-197h242q138 0 227.5 -66.5t89.5 -203.5q0 -76 -39.5 -143t-99.5 -109.5t-127 -67t-125 -24.5q-41 0 -123 9t-131 9h-195 q-10 0 -12 9.5t4 21.5q17 30 37 30q78 0 78 105v653q0 16 -27 24.5t-59 8.5q-33 0 -59.5 -35t-38 -78t-11.5 -80q0 -20 -19 -28.5t-38 -6t-19 10.5zM465 92q67 -16 153 -16q94 0 151.5 46.5t57.5 147.5q0 230 -254 230h-108v-408z" />
<glyph unicode="&#x44b;" horiz-adv-x="1292" d="M29 895q0 10 6 25q11 28 47 28q89 0 148 18.5t81 18.5q19 0 31 -15t12 -38q0 -17 -9 -48t-9 -63v-225h242q138 0 227.5 -66.5t89.5 -203.5q0 -76 -39.5 -143t-99.5 -109.5t-127 -67t-125 -24.5q-40 0 -122 9t-132 9h-195q-10 0 -12 9.5t4 21.5q17 30 37 30q78 0 78 105 v579q0 72 -23.5 107t-101.5 35q-8 0 -8 8zM336 92q67 -16 153 -16q94 0 151.5 46.5t57.5 147.5q0 230 -254 230h-108v-408zM825 895q0 10 6 25q11 28 48 28q89 0 148 18.5t81 18.5q19 0 31 -15t12 -38q0 -17 -9 -48t-9 -63v-655q0 -61 22 -83t90 -22q23 0 23 -18l-6 -18 q-8 -25 -39 -25h-371q-14 0 -14 14q0 4 3.5 13.5t4.5 13.5q5 20 35 20q77 0 77 105v579q0 35 -3.5 56.5t-15 43.5t-37.5 32t-68 10q-9 0 -9 8z" />
<glyph unicode="&#x44c;" horiz-adv-x="919" d="M29 895q0 10 6 25q11 28 47 28q89 0 148 18.5t81 18.5q19 0 31 -15t12 -38q0 -17 -9 -48t-9 -63v-225h242q138 0 227.5 -66.5t89.5 -203.5q0 -76 -39.5 -143t-99.5 -109.5t-127 -67t-125 -24.5q-40 0 -122 9t-132 9h-195q-10 0 -12 9.5t4 21.5q17 30 37 30q78 0 78 105 v579q0 72 -23.5 107t-101.5 35q-8 0 -8 8zM336 92q67 -16 153 -16q94 0 151.5 46.5t57.5 147.5q0 230 -254 230h-108v-408z" />
<glyph unicode="&#x44d;" horiz-adv-x="821" d="M14.5 240q13.5 25 39 30.5t34.5 -0.5q54 -78 131 -126t162 -48q51 0 92.5 27t66 67t41 91.5t22.5 95.5t7 84h-235q-34 0 -55.5 -30t-30.5 -71q-3 -14 -34 -22q-38 -6 -42 18q0 33 13 93t12 102q0 28 15 37q12 8 36 8q9 0 56.5 -10.5t96.5 -10.5h168q0 60 -11.5 110 t-36.5 93t-71.5 67.5t-109.5 24.5q-60 0 -126.5 -65t-66.5 -129q0 -11 -19 -23.5t-37.5 -9t-18.5 32.5q0 22 4.5 84.5t2.5 103.5t-16 64q-10 18 22 40t44 7q22 -27 66 -27q24 0 95 18.5t103 18.5q88 0 154.5 -24.5t107.5 -65.5t66.5 -101.5t35 -125t9.5 -144.5 q0 -103 -33 -202.5t-91 -179.5t-146.5 -129.5t-190.5 -49.5q-39 0 -73.5 9.5t-58 21.5t-51.5 38t-43.5 44t-46.5 55t-48 57q-24 27 -10.5 52z" />
<glyph unicode="&#x44e;" horiz-adv-x="1392" d="M28 900.5q2 11.5 11 23.5q17 24 43 24q89 0 148 18.5t81 18.5q19 0 31 -15t12 -38q0 -17 -9 -48t-9 -63v-241l137 -2q22 77 61 147t95 129.5t135 95t170 35.5q78 0 148 -30.5t120.5 -80.5t87.5 -112t55.5 -126t18.5 -122q0 -134 -68.5 -262.5t-180 -208.5t-228.5 -80 q-92 0 -174 42.5t-137.5 110.5t-88 151t-32.5 165q0 5 1 15.5t1 15.5l-121 2v-299q0 -61 22.5 -83t90.5 -22q15 0 20 -11t-4 -23q-19 -27 -41 -27h-369q-10 0 -12 9.5t4 21.5q17 30 37 30q78 0 78 105v579q0 72 -23.5 107t-101.5 35q-11 2 -9 13.5zM651 457q0 -66 13 -126 t41 -115t80.5 -87.5t123.5 -32.5q48 0 87.5 17.5t67 48.5t48 70t32.5 84.5t17.5 89t5.5 86.5q0 101 -18 172.5t-53.5 111.5t-81 58t-105.5 18q-65 0 -116.5 -38t-81 -98.5t-45 -127t-15.5 -131.5z" />
<glyph unicode="&#x44f;" horiz-adv-x="948" d="M2 104q-5 8 3 26.5t22 26.5t32 -7q31 -32 51 -42t46 -10q19 0 37.5 18t35.5 54.5t27 61.5t25 69q2 5 7 22.5t8 26t10.5 24.5t15 25.5t20 20.5t27.5 18q-106 31 -159.5 92.5t-53.5 159.5q0 73 26.5 128.5t71.5 87.5t98 47.5t113 15.5q32 0 125.5 -10.5t148.5 -10.5h168 q21 0 13 -28q-9 -33 -31 -33q-29 0 -53.5 -27t-24.5 -67v-627q0 -61 22.5 -83t90.5 -22q22 0 22 -18q0 -3 -1 -6t-2.5 -6.5t-2.5 -5.5q-8 -25 -39 -25h-371q-14 0 -14 14q0 4 3.5 13.5t4.5 13.5q5 20 35 20q78 0 78 105v244h-76q-20 0 -36 -8t-26 -18t-20 -32.5t-14.5 -37 t-13.5 -46.5q-13 -47 -26.5 -83t-35.5 -76.5t-48 -66t-65 -43t-86 -17.5q-66 0 -107.5 29.5t-80.5 92.5zM348 686q0 -82 44.5 -124t129.5 -42h115v299q0 14 -8 23.5t-21 9.5h-63q-94 0 -145.5 -41.5t-51.5 -124.5z" />
<glyph unicode="&#x451;" horiz-adv-x="823" d="M16 465q0 98 28.5 189.5t82.5 166t140 119.5t192 45q81 0 142.5 -32.5t97 -89t52.5 -125.5t17 -150q0 -25 -7 -33t-34 -8h-508q-1 -11 -3.5 -36t-2.5 -40q0 -356 246 -356q79 0 133 27t149 124q6 6 17 6q15 0 27 -15t12 -34q0 -14 -13 -30q-41 -46 -67 -73t-65.5 -61 t-74 -52t-80.5 -31t-96 -13q-93 0 -168.5 45t-121.5 118t-70.5 160.5t-24.5 178.5zM63 1249q0 42 52 93t88 51q38 0 79.5 -44.5t41.5 -84.5q0 -39 -49.5 -89.5t-90.5 -50.5q-34 0 -77.5 42.5t-43.5 82.5zM227 659h344q0 213 -178 213q-60 0 -106.5 -64t-59.5 -149zM496 1249 q0 42 51.5 93t87.5 51q38 0 79.5 -44.5t41.5 -84.5q0 -39 -49.5 -89.5t-90.5 -50.5q-34 0 -77 42.5t-43 82.5z" />
<glyph unicode="&#x45b;" horiz-adv-x="1935" d="M94 14q0 9 4 21q1 1 2.5 6t2 6t2.5 4.5t3.5 4.5t5 2.5t7.5 2t10 0.5q55 0 82 24.5t27 80.5v917q0 54 -28.5 73.5t-88.5 19.5q-10 0 -10 12q0 8 8 24q15 25 37 25h243q15 -33 29 -58.5t22.5 -39t34.5 -51.5t43 -64l463 -696q11 -18 19 -29v784q0 54 -28.5 73.5t-88.5 19.5 q-10 0 -10 12q0 8 8 24q15 25 37 25h309q18 0 18 -10q0 -9 -6 -21q-15 -30 -37 -30q-36 0 -61 -28.5t-25 -64.5v-987q0 -44 -47 -88.5t-127 -44.5q-11 0 -23 38.5t-28 94.5t-35 84l-436 651q-37 55 -74 127v-792q0 -63 28.5 -84t98.5 -21q19 0 19 -16q0 -2 -4 -18 q-8 -27 -31 -27h-365q-10 0 -10 14zM1186 508q0 80 24 158t67.5 143t112 105t150.5 40q72 0 123.5 -32.5t77 -87.5t36.5 -111.5t11 -120.5q0 -117 -43 -215.5t-130.5 -161.5t-203.5 -63q-73 0 -126 54.5t-76 130.5t-23 161zM1229 0v117h479v-117h-479zM1323 596 q0 -42 3.5 -81.5t14.5 -84.5t29 -78.5t49 -55.5t72 -22q47 0 80 25.5t49.5 69t23.5 88.5t7 96q0 48 -8.5 93.5t-28.5 91.5t-60.5 74t-97.5 28q-40 0 -68.5 -26t-41.5 -67.5t-18 -77.5t-5 -73z" />
<glyph unicode="&#x2000;" horiz-adv-x="831" />
<glyph unicode="&#x2001;" horiz-adv-x="1663" />
<glyph unicode="&#x2002;" horiz-adv-x="831" />
<glyph unicode="&#x2003;" horiz-adv-x="1663" />
<glyph unicode="&#x2004;" horiz-adv-x="554" />
<glyph unicode="&#x2005;" horiz-adv-x="415" />
<glyph unicode="&#x2006;" horiz-adv-x="277" />
<glyph unicode="&#x2007;" horiz-adv-x="277" />
<glyph unicode="&#x2008;" horiz-adv-x="207" />
<glyph unicode="&#x2009;" horiz-adv-x="332" />
<glyph unicode="&#x200a;" horiz-adv-x="92" />
<glyph unicode="&#x2010;" horiz-adv-x="655" d="M117 408v116h420v-116h-420z" />
<glyph unicode="&#x2011;" horiz-adv-x="655" d="M117 408v116h420v-116h-420z" />
<glyph unicode="&#x2012;" horiz-adv-x="655" d="M117 408v116h420v-116h-420z" />
<glyph unicode="&#x2013;" horiz-adv-x="856" d="M41 465v117h758v-117h-758z" />
<glyph unicode="&#x2014;" horiz-adv-x="1386" d="M45 465v117h1294v-117h-1294z" />
<glyph unicode="&#x2018;" horiz-adv-x="327" d="M41 1034q0 88 45.5 185.5t116.5 162.5q9 9 24 9q21 0 40.5 -11.5t19.5 -25.5q0 -10 -13 -23q-79 -75 -79 -160q0 -11 16.5 -25.5t36.5 -28t36.5 -34t16.5 -41.5q0 -44 -53 -89.5t-94 -45.5q-37 0 -75 43t-38 84z" />
<glyph unicode="&#x2019;" d="M41 1255q0 44 53 90t94 46q37 0 75 -43t38 -84q0 -88 -45.5 -186t-116.5 -163q-8 -8 -24 -8q-22 0 -41 11.5t-19 27.5q0 11 13 21q79 75 79 159q0 11 -16.5 25.5t-36.5 28t-36.5 34t-16.5 41.5z" />
<glyph unicode="&#x201a;" d="M61 92q0 44 53.5 89.5t94.5 45.5q37 0 75 -43t38 -84q0 -88 -45.5 -185.5t-116.5 -162.5q-8 -8 -25 -8q-22 0 -40.5 11.5t-18.5 27.5q0 11 12 20q80 76 80 160q0 11 -16.5 25.5t-37 28t-37 34t-16.5 41.5z" />
<glyph unicode="&#x201c;" horiz-adv-x="630" d="M41 1036q0 88 45.5 185.5t116.5 162.5q9 9 24 9q21 0 40.5 -11.5t19.5 -25.5q0 -10 -13 -23q-79 -75 -79 -159q0 -13 26.5 -33t53 -45.5t26.5 -51.5q0 -44 -53 -89.5t-94 -45.5q-37 0 -75 43t-38 84zM340 1036q0 88 45.5 185.5t116.5 162.5q9 9 24 9q21 0 40.5 -11.5 t19.5 -25.5q0 -10 -13 -23q-79 -75 -79 -159q0 -13 26.5 -33t53 -45.5t26.5 -51.5q0 -44 -53 -89.5t-94 -45.5q-37 0 -75 43t-38 84z" />
<glyph unicode="&#x201d;" horiz-adv-x="630" d="M41 1257q0 44 53 90t94 46q37 0 75 -43t38 -84q0 -88 -45.5 -185.5t-116.5 -162.5q-9 -9 -24 -9q-22 0 -41 11.5t-19 27.5q0 11 13 21q79 75 79 159q0 11 -16.5 25.5t-36.5 28t-36.5 34t-16.5 41.5zM334 1257q0 44 53 90t94 46q37 0 75 -43t38 -84q0 -88 -45.5 -185.5 t-116.5 -162.5q-9 -9 -24 -9q-22 0 -41 11.5t-19 27.5q0 12 12 21q80 76 80 159q0 11 -16.5 25.5t-36.5 28t-36.5 34t-16.5 41.5z" />
<glyph unicode="&#x201e;" d="M61 92q0 44 53.5 89.5t94.5 45.5q37 0 75 -43t38 -84q0 -88 -45.5 -185.5t-116.5 -162.5q-8 -8 -25 -8q-22 0 -40.5 11.5t-18.5 27.5q0 11 12 20q80 76 80 160q0 11 -16.5 25.5t-37 28t-37 34t-16.5 41.5zM377 92q0 44 53 89.5t94 45.5q37 0 75 -43t38 -84 q0 -88 -45.5 -185.5t-116.5 -162.5q-8 -8 -24 -8q-22 0 -41 11.5t-19 27.5q0 11 12 20q80 76 80 160q0 11 -16.5 25.5t-36.5 28t-36.5 34t-16.5 41.5z" />
<glyph unicode="&#x2022;" horiz-adv-x="698" d="M123 365q0 95 65.5 162t159.5 67t160.5 -67t66.5 -162q0 -97 -66.5 -164.5t-160.5 -67.5t-159.5 67.5t-65.5 164.5z" />
<glyph unicode="&#x2026;" horiz-adv-x="1431" d="M92 88q0 42 51.5 92.5t87.5 50.5q38 0 79.5 -44.5t41.5 -84.5q0 -39 -49 -89t-90 -50q-34 0 -77.5 42.5t-43.5 82.5zM555 88q0 42 51.5 92.5t87.5 50.5q38 0 79.5 -44.5t41.5 -84.5q0 -39 -49 -89t-90 -50q-34 0 -77.5 42.5t-43.5 82.5zM1034 88q0 42 52 92.5t88 50.5 q38 0 79 -44.5t41 -84.5q0 -39 -49 -89t-90 -50q-34 0 -77.5 42.5t-43.5 82.5z" />
<glyph unicode="&#x202f;" horiz-adv-x="332" />
<glyph unicode="&#x2039;" horiz-adv-x="503" d="M53 332q-25 19 15 55q71 65 151 158t125 168q17 27 66 19q45 -7 54 -32q4 -14 -5 -28q-71 -106 -116.5 -164t-113.5 -133q119 -124 250 -322q13 -19 -23 -48.5t-76 -38.5t-58 11q-106 214 -269 355z" />
<glyph unicode="&#x203a;" horiz-adv-x="503" d="M45 643q-13 19 23.5 48.5t76.5 38.5t58 -11q106 -214 268 -354q26 -20 -14 -56q-72 -66 -152 -158.5t-125 -166.5q-17 -27 -66 -19q-46 7 -54 33q-4 13 6 27q72 108 117 166t112 131q-121 126 -250 321z" />
<glyph unicode="&#x205f;" horiz-adv-x="415" />
<glyph unicode="&#x20ac;" d="M33 500l26 69h88q-2 16 -2 66v53h-112l26 72h93q22 274 118.5 404t300.5 130q200 0 275 -96l10 -149h-39q-12 82 -64.5 123.5t-138.5 41.5q-128 0 -189 -112.5t-77 -341.5h422l-27 -72h-397v-57v-62h350l-26 -69h-322q11 -224 78.5 -340.5t189.5 -116.5q78 0 133 40 t66 124h41l-10 -144q-77 -98 -275 -98q-196 0 -297 133t-120 402h-121z" />
<glyph unicode="&#x2122;" horiz-adv-x="1269" d="M57 1208v203q0 20 25 24t31 -14q10 -28 67 -28h250q70 0 82 28q7 15 19.5 13.5t24 -9.5t11.5 -14v-182q0 -14 -28 -29q-26 -13 -27 -2q0 55 -33 87t-76 32h-32v-426q0 -25 1 -35t7 -22t20.5 -15.5t40.5 -3.5q19 0 19 -12q0 -7 -6 -19q-15 -30 -31 -30h-264q-11 0 -11 12 q0 7 9 25q14 24 37 24q24 0 42.5 20.5t18.5 61.5v420h-37q-42 0 -73 -28.5t-31 -69.5q0 -10 -22 -24q-31 -16 -34 13zM520 766q0 9 8 25q14 24 37 24q17 0 32 12.5t17 22.5l62 438q3 22 -13.5 32.5t-39.5 10.5q-11 0 -11 12q0 7 9 25q15 25 36 25h144l145 -457l137 457h183 q18 0 18 -13q0 -6 -6 -18q-16 -31 -31 -31q-29 0 -38 -12.5t-7 -28.5l53 -411q7 -64 56 -64q18 0 18 -12q0 -7 -6 -19q-15 -30 -31 -30h-231q-10 0 -10 12q0 9 8 25q14 24 37 24q15 0 28 17.5t9 46.5l-37 282l-82 -270q-55 -48 -84 -111q-6 -13 -16 -21.5t-23.5 -6.5 t-24.5 20q-5 10 -10 38.5t-10 47.5l-98 299l-46 -291q-3 -24 11.5 -37.5t46.5 -13.5q18 0 18 -12q0 -7 -6 -19q-15 -30 -31 -30h-211q-10 0 -10 12z" />
<glyph unicode="&#x25fc;" horiz-adv-x="952" d="M0 0v952h952v-952h-952z" />
</font>
</defs>
</svg>
