<?xml version="1.0" standalone="no"?>
<!DOCTYPE svg PUBLIC "-//W3C//DTD SVG 1.1//EN" "http://www.w3.org/Graphics/SVG/1.1/DTD/svg11.dtd" >
<svg xmlns="http://www.w3.org/2000/svg">
<metadata></metadata>
<defs>
<font id="cotlincregular" horiz-adv-x="901" >
<font-face units-per-em="2048" ascent="1608" descent="-440" />
<missing-glyph horiz-adv-x="548" />
<glyph horiz-adv-x="2048" />
<glyph horiz-adv-x="2048" />
<glyph unicode="&#xd;" horiz-adv-x="2048" />
<glyph unicode=" "  horiz-adv-x="548" />
<glyph unicode="&#x09;" horiz-adv-x="548" />
<glyph unicode="&#xa0;" horiz-adv-x="548" />
<glyph unicode="!" horiz-adv-x="423" d="M82 117q0 35 29.5 64.5t62.5 29.5q62 0 94.5 -33.5t32.5 -77.5q0 -58 -33.5 -97.5t-79.5 -39.5q-43 0 -74.5 51t-31.5 103zM104 1212q0 43 41 43q17 0 63 9.5t85 9.5q15 0 28 -11.5t13 -25.5q0 -30 -18.5 -88t-22.5 -74q-96 -437 -96 -706q0 -15 -27 -15q-9 0 -18 4.5 t-9 10.5q0 154 -19.5 439t-19.5 404z" />
<glyph unicode="&#x22;" horiz-adv-x="565" d="M41 1176q0 47 23.5 72.5t85.5 25.5q41 0 73.5 -36t32.5 -87q0 -37 -8.5 -71.5t-19 -60.5t-19 -79.5t-8.5 -124.5h-76q0 73 -13 128t-29 81.5t-29 66t-13 85.5zM305 1176q0 47 23.5 72.5t85.5 25.5q41 0 73.5 -36t32.5 -87q0 -37 -8.5 -71.5t-19 -60.5t-19 -79.5 t-8.5 -124.5h-76q0 73 -13 128t-29 81.5t-29 66t-13 85.5z" />
<glyph unicode="#" horiz-adv-x="1146" d="M41 428l12 55h279l61 289h-278l12 55h279l86 410h71l-86 -410h279l86 410h71l-86 -410h279l-12 -55h-279l-61 -289h278l-12 -55h-279l-90 -428h-71l90 428h-279l-90 -428h-72l90 428h-278zM403 483h279l61 289h-278z" />
<glyph unicode="$" horiz-adv-x="923" d="M59 -10q0 19 14.5 91t14.5 126q0 21 -4 74.5t-4 78.5q0 6 6 11.5t12 5.5q13 0 25 -9.5t12 -23.5q0 -109 82.5 -178.5t188.5 -69.5v500q-34 10 -54.5 16.5t-52 18t-50.5 21.5t-45 25t-42 30.5t-33 37t-26.5 45.5t-16 54.5t-6.5 64.5q0 147 91 237.5t235 108.5v95h71v-95 q24 0 78.5 -9t101.5 -9q16 0 44.5 9t37.5 9q52 0 52 -24q0 -7 -8.5 -29.5t-8.5 -34.5q0 -41 8.5 -121t8.5 -118q0 -12 -10.5 -19.5t-24.5 -7.5q-17 0 -17 10q0 52 -32.5 108.5t-94.5 98t-135 41.5v-442q54 -15 86.5 -24.5t79 -27t75 -34.5t61 -43t50 -55.5t29.5 -70.5 t12 -89q0 -100 -48 -189t-139.5 -145.5t-205.5 -56.5v-95h-71v95q-28 0 -93.5 19t-85.5 19q-61 0 -92 -38q-15 -19 -39 -19q-14 0 -25.5 7.5t-11.5 19.5zM215 971q0 -93 50 -146t141 -88v420q-84 -10 -137.5 -56.5t-53.5 -129.5zM477 96q96 0 169 62.5t73 163.5q0 45 -13 82 t-33.5 62t-54 46.5t-65 34.5t-76.5 28v-479z" />
<glyph unicode="%" horiz-adv-x="1349" d="M61 848q0 72 19.5 145.5t57 137t99.5 103.5t138 40q72 0 123.5 -32.5t77 -87.5t36.5 -111.5t11 -120.5q0 -63 -13 -122.5t-40.5 -113.5t-66 -95t-94.5 -65t-122 -24q-73 0 -126 54.5t-76.5 130.5t-23.5 161zM158 915q0 -42 3.5 -81t14.5 -84.5t29 -78.5t49 -55t72 -22 q58 0 99 26t62 71t30 94t9 108q0 48 -8.5 93.5t-28 91.5t-60 74t-97.5 28q-52 0 -88.5 -26.5t-54 -70t-24.5 -84.5t-7 -84zM279 -2q0 6 4 14q7 11 41.5 67.5t51.5 85t51.5 90.5t68.5 130l430 852q16 37 49 37q13 0 29 -8.5t16 -18.5q0 -22 -10 -42t-33.5 -54.5t-40.5 -67.5 l-492 -944q-12 -23 -32.5 -69t-44.5 -90q-9 -17 -31 -17q-19 0 -38 11t-19 24zM713 309q0 72 19.5 145.5t56.5 137t99 103.5t138 40q72 0 123.5 -32.5t77 -87.5t36.5 -111.5t11 -120.5q0 -63 -13 -122.5t-40.5 -113.5t-66 -95t-94.5 -65t-122 -24q-73 0 -126 54.5t-76 130.5 t-23 161zM809 377q0 -42 3.5 -81.5t14.5 -84.5t29 -78.5t49 -55.5t72 -22q58 0 99.5 26t62.5 71t30 94t9 108q0 48 -8.5 93.5t-28.5 91.5t-60.5 74t-97.5 28q-52 0 -88.5 -26.5t-54 -70t-24.5 -84t-7 -83.5z" />
<glyph unicode="&#x26;" horiz-adv-x="1320" d="M41 395q0 66 19 125.5t58 115t75 95t94 94.5q-16 16 -31.5 57t-15.5 103q0 124 75 206.5t195 82.5q64 0 105 -18.5t59 -18.5q49 0 88 31q6 6 20 6q12 0 21.5 -6t9.5 -13q0 -55 25 -135.5t30 -107.5v-15q0 -7 -13.5 -12.5t-25.5 -5.5q-13 0 -16 8q-14 72 -84 122t-160 50 q-71 0 -131.5 -40t-60.5 -103q0 -77 20 -128.5t80 -117.5l387 -426q40 73 56 140t16 157q0 55 -27.5 88t-79.5 33q-7 0 -20 -4t-18 -4q-15 0 -15 28q0 9 6.5 19t12.5 10q60 0 139.5 40t159.5 110q8 8 18 8t17.5 -11t7.5 -24q0 -16 -13 -25q-38 -31 -69 -73.5t-31 -81.5 q0 -20 3 -59t3 -54q0 -103 -24.5 -180t-79.5 -168q37 -45 57 -67.5t57.5 -59.5t71.5 -54.5t66 -17.5q8 0 15.5 1.5t16 6t15 8t17 12t16 14t19.5 17.5t21 19q4 4 9 4q10 0 23 -16.5t13 -30.5q0 -7 -40 -37q-35 -26 -64 -63q-44 -47 -115 -47q-40 0 -78.5 15.5t-75.5 47 t-63 58.5t-61 69q-76 -98 -185 -153.5t-225 -55.5q-85 0 -159.5 36.5t-125.5 96.5t-80.5 138t-29.5 161zM176 444q0 -148 103.5 -249t252.5 -101q167 0 261 125l-467 533q-76 -69 -113 -142t-37 -166z" />
<glyph unicode="'" horiz-adv-x="368" d="M61 1165q0 44 33.5 76.5t73.5 32.5q41 0 77 -41t36 -96q0 -87 -36.5 -171t-101.5 -151q-6 -6 -16 -6q-14 0 -29.5 15t-15.5 30q0 10 6 16q80 76 80 160q0 13 -26.5 34t-53.5 48t-27 53z" />
<glyph unicode="(" horiz-adv-x="614" d="M123 487q0 215 72.5 414t220.5 432q11 17 35 17q21 0 42 -11.5t21 -27.5q0 -13 -6 -19q-142 -196 -206 -350t-64 -348q0 -208 60.5 -393t193.5 -318q10 -10 10 -26q0 -35 -29.5 -78t-56.5 -43q-14 0 -21 10q-272 329 -272 741z" />
<glyph unicode=")" horiz-adv-x="614" d="M121 -225q0 12 6 18q142 196 206 350.5t64 348.5q0 208 -60.5 392.5t-193.5 317.5q-10 10 -10 27q0 35 29.5 78t56.5 43q13 0 21 -11q272 -329 272 -741q0 -215 -72.5 -414t-220.5 -432q-11 -16 -35 -16q-21 0 -42 11.5t-21 27.5z" />
<glyph unicode="*" horiz-adv-x="946" d="M61 936q0 26 30 68.5t52 42.5q56 0 135 -46t140 -53q-17 160 -17 297q0 12 26 20.5t56 8.5q31 0 53.5 -7.5t22.5 -21.5q0 -44 -9 -137t-9 -160q120 85 229 101q20 4 45 4q28 0 42.5 -38.5t14.5 -80.5q0 -16 -8.5 -26.5t-23.5 -10.5q-68 0 -120.5 -10t-82 -22t-74.5 -36 q40 -75 77.5 -124.5t100.5 -112.5q11 -11 11 -23q0 -28 -36.5 -58t-68.5 -30q-8 0 -23 8t-22 17q-18 22 -36 55t-28 56t-32.5 80t-32.5 81q-53 -53 -89.5 -109t-84.5 -167q-9 -21 -27 -21q-32 0 -64 25.5t-32 56.5q0 17 8 25q61 115 205 241q-127 62 -315 91q-4 0 -8.5 5.5 t-4.5 10.5z" />
<glyph unicode="+" horiz-adv-x="1148" d="M184 524v97h328v327h96v-327h328v-97h-328v-327h-96v327h-328z" />
<glyph unicode="," horiz-adv-x="368" d="M61 98q0 44 33.5 76.5t73.5 32.5q41 0 77 -41t36 -96q0 -87 -36.5 -171t-101.5 -151q-6 -6 -16 -6q-14 0 -29.5 15t-15.5 30q0 10 6 16q80 76 80 160q0 13 -26.5 34t-53.5 48t-27 53z" />
<glyph unicode="-" horiz-adv-x="542" d="M61 408v96h420v-96h-420z" />
<glyph unicode="." horiz-adv-x="368" d="M61 117q0 35 30 64.5t63 29.5q62 0 94.5 -33.5t32.5 -77.5q0 -58 -33.5 -97.5t-79.5 -39.5q-43 0 -75 51t-32 103z" />
<glyph unicode="/" horiz-adv-x="755" d="M12 -2q0 6 4 14q7 11 41.5 67.5t51.5 85t51.5 90.5t68.5 130l430 852q16 37 50 37q13 0 29 -8.5t16 -18.5q0 -22 -10 -42t-33.5 -54.5t-40.5 -67.5l-492 -944q-12 -23 -33 -69t-45 -90q-8 -17 -30 -17q-20 0 -39 11t-19 24z" />
<glyph unicode="0" d="M8 571q0 83 19 176t60 187t97.5 169.5t139 123t176.5 47.5q72 0 131.5 -29t99.5 -78.5t69.5 -110t45.5 -130t23.5 -131.5t7.5 -121q0 -89 -17 -184t-55 -190t-92 -169.5t-134.5 -121t-175.5 -46.5q-81 0 -149 40.5t-112.5 104.5t-75.5 145.5t-44.5 162t-13.5 155.5z M145 623q0 -64 8 -131t30 -142.5t55 -133.5t89 -96t126 -38t126 38.5t89 96.5t54.5 134t29.5 142.5t8 129.5q0 52 -2 94.5t-9 100t-19.5 101.5t-36 90.5t-55 76.5t-79 49.5t-106.5 19.5q-73 0 -130 -35.5t-89.5 -89.5t-53.5 -128t-28 -141t-7 -138z" />
<glyph unicode="1" d="M174 1022q0 22 14 22q36 0 133 63t154 140q19 27 45 27q9 0 16 -6t7 -13v-1089q0 -125 145 -125h2q12 0 12 -14q0 -10 -7 -18.5t-17 -8.5h-430q-10 0 -10 12q0 10 5 19.5t13 9.5q62 0 98.5 31t36.5 94v821q0 18 -9 27.5t-22 9.5q-39 0 -65.5 -6.5t-71.5 -24.5 q-15 -6 -30 -6q-8 0 -13.5 11t-5.5 24z" />
<glyph unicode="2" d="M37 0v76q0 30 10.5 54t40.5 54q55 58 146 138t160 143t138 136t106.5 147.5t37.5 146.5q0 98 -66.5 172t-175.5 74q-58 0 -109 -24t-81 -58t-47 -66t-17 -51q0 -12 -28 -12q-35 0 -35 18q0 9 4 21l80 268q7 23 15 30t26 7q22 0 42.5 -18.5t45.5 -18.5q19 0 77.5 18.5 t100.5 18.5q91 0 161 -49t105 -126t35 -167q0 -80 -33 -160.5t-85.5 -147t-116 -129.5t-127 -115.5t-116 -97.5t-85.5 -84t-33 -67h403q22 0 42.5 8.5t34 17t31 30t24 31t23.5 38t20 33.5q16 24 32 24q7 0 14.5 -6t11 -12t3.5 -8l-64 -287h-751z" />
<glyph unicode="3" d="M4 270l121 117q10 10 25 10q17 0 27.5 -13.5t10.5 -31.5q0 -14 -8 -22q-41 -44 -41 -80q0 -70 69 -122t163 -52q125 0 228 101.5t103 230.5q0 111 -92.5 179t-212.5 68q-29 0 -43 13.5t-14 33.5q0 29 18 50l281 354q4 4 4 8q0 10 -16 10h-273q-101 0 -158 -51t-57 -96 q0 -7 -9.5 -14t-18.5 -7q-13 0 -26 4t-13 11q0 16 8 35q11 28 19.5 52t15 47.5t10 38t9.5 41t9 38.5q7 32 39 32q6 0 62.5 -9t109.5 -9h385q41 0 41 -33q0 -32 -28 -71l-277 -353q49 0 97 -12t92.5 -37t78.5 -60.5t54 -86t20 -109.5q0 -131 -70.5 -250.5t-183 -190.5 t-231.5 -71q-58 0 -113 17.5t-104.5 52t-80 96t-30.5 141.5z" />
<glyph unicode="4" d="M16 473q0 25 17 47q21 27 90.5 116t95.5 123t83.5 110t90.5 123.5t77.5 113.5t82.5 127q16 25 38 33t58 8q49 0 49 -33q0 -10 -7 -32t-7 -31v-658h33q77 0 127 37q6 6 14 6q11 0 19 -11t8 -22q0 -6 -4 -10q-60 -60 -101 -86t-96 -26v-242q0 -125 145 -125h2q13 0 13 -14 q0 -10 -7.5 -18.5t-17.5 -8.5h-430q-10 0 -10 12q0 10 5 19.5t13 9.5q62 0 98.5 31t36.5 94v242h-444q-35 0 -53.5 17.5t-18.5 47.5zM150 520h382v524q-202 -231 -382 -524z" />
<glyph unicode="5" d="M20 252l121 117q12 12 27 12t27 -15t12 -32q0 -16 -10 -23q-41 -36 -41 -80q0 -69 65.5 -112t161.5 -43q82 0 163 41t136 116.5t55 163.5q0 119 -91 209t-218 90q-62 0 -105 -13.5t-90 -41.5q-15 -10 -40 -10q-13 0 -22 6t-12 11.5t-3 8.5l61 517q5 38 20 50.5t58 12.5 h401q29 0 46 5.5t42 21.5q15 10 23 10q10 0 18.5 -6.5t8.5 -12.5q0 -46 -51 -98.5t-113 -52.5h-377l-37 -311q91 34 178 34q108 0 202 -45t154 -132t60 -197q0 -128 -63.5 -240t-180 -181t-258.5 -69q-46 0 -90 8.5t-88 29.5t-76.5 52.5t-53 83t-20.5 115.5z" />
<glyph unicode="6" d="M33 475q0 73 11.5 140t38 129.5t51 110t70 106.5t73 92.5t82 95t77.5 88.5q15 18 88 18q21 0 77.5 9.5t94.5 9.5q14 0 23.5 -12t9.5 -25q0 -18 -27 -18q-108 0 -224.5 -81.5t-192.5 -195.5t-84 -211q140 117 323 117q147 0 234.5 -112.5t87.5 -268.5q0 -123 -57 -239.5 t-157 -190.5t-214 -74q-121 0 -210.5 74t-132 188t-42.5 250zM168 596q0 -124 14 -215.5t45 -160t83.5 -103.5t127.5 -35q135 0 213 90.5t78 226.5q0 147 -74 250t-202 103q-84 0 -165.5 -42t-119.5 -114z" />
<glyph unicode="7" d="M8 977q0 19 4 27l60 219q8 32 37 32q6 0 62.5 -9t109.5 -9h467q13 0 46 18.5t42 18.5q11 0 21.5 -9t10.5 -18q0 -7 -2 -8l-2 -2q-119 -140 -209 -270.5t-164 -275t-112.5 -296.5t-38.5 -305q0 -30 -37 -78.5t-74 -48.5q-31 0 -46 7t-15 30q0 150 42 305.5t116.5 297.5 t164 267t195.5 240l4 8q0 6 -14 6h-395q-46 0 -91.5 -21.5t-75 -49.5t-47.5 -52t-18 -32t-18 -8q-23 0 -23 16z" />
<glyph unicode="8" d="M27 301q0 66 24 124t66 102t88.5 75.5t101.5 56.5q-92 37 -146.5 104.5t-54.5 156.5q0 97 59 180.5t147 128.5t180 45q117 0 206.5 -80.5t89.5 -212.5q0 -195 -221 -293q46 -20 78.5 -36t76 -46t70.5 -61t46.5 -77t19.5 -99q0 -85 -42 -162.5t-107.5 -129.5t-145.5 -83 t-157 -31q-87 0 -173 40.5t-146 120.5t-60 177zM162 336q0 -115 75.5 -185.5t190.5 -70.5q71 0 137 27.5t112 85t46 131.5q0 50 -21.5 93.5t-51.5 73t-78 57.5t-83.5 43.5t-85.5 33.5q-91 -25 -166 -108t-75 -181zM233 971q0 -45 16.5 -83t41 -63t61 -45.5t67.5 -32 t70 -22.5q74 23 123.5 83.5t49.5 143.5q0 105 -61.5 165.5t-149.5 60.5q-90 0 -154 -56t-64 -151z" />
<glyph unicode="9" d="M27 780q0 84 38.5 170t101 153t149.5 109.5t176 42.5q90 0 159.5 -47.5t108.5 -125.5t58.5 -165t19.5 -178q0 -112 -37.5 -246t-95.5 -246.5t-137 -188.5t-154 -76q-70 0 -124.5 -9.5t-84.5 -9.5q-23 0 -23 23q0 19 12 36t31 17q111 0 205.5 50t155.5 130.5t95 179.5 t34 201q-140 -192 -348 -192q-79 0 -145 35t-107.5 90t-64.5 119.5t-23 127.5zM162 807q0 -49 14.5 -98t43 -92t77.5 -70t111 -27q109 0 201.5 82t92.5 195q0 160 -69 261t-195 101q-67 0 -122 -35t-87 -89t-49.5 -113.5t-17.5 -114.5z" />
<glyph unicode=":" horiz-adv-x="368" d="M61 117q0 35 30 64.5t63 29.5q62 0 94.5 -33.5t32.5 -77.5q0 -58 -33.5 -97.5t-79.5 -39.5q-43 0 -75 51t-32 103zM61 674q0 35 30 64.5t63 29.5q62 0 94.5 -33.5t32.5 -77.5q0 -58 -33.5 -97.5t-79.5 -39.5q-43 0 -75 51t-32 103z" />
<glyph unicode=";" horiz-adv-x="368" d="M61 98q0 44 33.5 76.5t73.5 32.5q41 0 77 -41t36 -96q0 -87 -36.5 -171t-101.5 -151q-6 -6 -16 -6q-14 0 -29.5 15t-15.5 30q0 10 6 16q80 76 80 160q0 13 -26.5 34t-53.5 48t-27 53zM61 674q0 35 30 64.5t63 29.5q62 0 94.5 -33.5t32.5 -77.5q0 -58 -33.5 -97.5 t-79.5 -39.5q-43 0 -75 51t-32 103z" />
<glyph unicode="&#x3c;" horiz-adv-x="1159" d="M119 481q0 60 14 117q4 14 20.5 22t45.5 15t41 12l712 322q24 12 43 12q23 0 39.5 -45t16.5 -74q0 -7 -4.5 -12.5t-9.5 -7.5t-15 -5.5t-14 -5.5l-732 -282l680 -240q8 -3 20 -6.5t19.5 -6t15 -6t11.5 -7.5t4 -9q0 -51 -41 -110q-9 -12 -18 -12q-4 0 -11 2.5t-19 8 t-22 9.5l-714 272q-14 6 -31.5 8t-27 2.5t-16.5 6.5t-7 20z" />
<glyph unicode="=" horiz-adv-x="1159" d="M193 387v96h772v-96h-772zM193 655v97h772v-97h-772z" />
<glyph unicode="&#x3e;" horiz-adv-x="1159" d="M119 862q0 72 37 109q10 10 20 10q15 0 39 -12l713 -322q11 -5 41.5 -12t47.5 -15.5t17 -23.5q0 -21 8.5 -54.5t8.5 -58.5q0 -17 -10 -22.5t-34 -8t-40 -8.5l-715 -272q-10 -4 -25 -13t-24 -9q-15 0 -27 20q-35 51 -35 104q0 5 4 9t11.5 7.5t15 6t19.5 6t20 6.5l680 240 l-731 282q-4 2 -13.5 5.5t-14 5.5t-9 7.5t-4.5 12.5z" />
<glyph unicode="?" horiz-adv-x="770" d="M35 989q0 15 8 39q41 118 41 189q0 38 43 38q6 0 27.5 -9t74.5 -9q31 0 113 18.5t107 18.5q107 0 176 -84t69 -205q0 -66 -28 -125t-68 -101.5t-80 -82t-68 -85t-28 -91.5q0 -19 12 -29.5t26 -14t26 -15.5t12 -33q0 -19 -15 -29t-41.5 -19t-40.5 -20q-3 -2 -14 -11 t-18 -13t-21.5 -8.5t-32.5 -4.5q-24 0 -24 92q0 69 27.5 131.5t66.5 110t78 93t66.5 98.5t27.5 108q0 91 -67.5 149t-180.5 58q-78 0 -141 -51.5t-90 -104.5q-7 -10 -15 -10q-28 0 -28 12zM246 117q0 35 29.5 64.5t62.5 29.5q62 0 94.5 -33.5t32.5 -77.5q0 -58 -33.5 -97.5 t-79.5 -39.5q-43 0 -74.5 51t-31.5 103z" />
<glyph unicode="@" horiz-adv-x="1091" d="M61 668q0 96 14 188.5t50 188t89.5 166.5t140.5 116t196 45q91 0 166.5 -31t128 -85t92 -122.5t62 -149.5t33.5 -159t11 -157q0 -44 -1 -72.5t-5 -71.5t-11.5 -71t-23 -60.5t-37 -51t-54 -31.5t-74.5 -13q-117 0 -136 109q-37 -59 -112.5 -93t-151.5 -34 q-64 0 -104.5 41.5t-40.5 121.5q0 79 29 130.5t77.5 77t100 42.5t109.5 41.5t93 59.5q0 76 -35 126t-98 50q-53 0 -109 -37.5t-73 -83.5q-6 -12 -16 -12q-17 0 -17 8v145q0 35 19 35q10 0 43 -10t53 -10q31 0 80.5 10t97.5 10q64 0 105 -39.5t41 -97.5v-441q0 -77 65 -77 q111 0 111 299q0 103 -23.5 208t-71 201.5t-131.5 157.5t-192 61q-94 0 -168 -39.5t-119 -101.5t-74.5 -147t-41 -168t-11.5 -172q0 -82 14.5 -167t47.5 -169t80 -149t117.5 -105.5t154.5 -40.5q56 0 103.5 14.5t89 46t72 63.5t71.5 83l43 -80q-61 -94 -162.5 -147.5 t-216.5 -53.5q-92 0 -168.5 31.5t-128.5 86.5t-90.5 123.5t-60.5 150t-32 158.5t-10 155zM410 467q0 -43 21.5 -70.5t68.5 -27.5q69 0 135.5 39t66.5 94v192q-29 -5 -131 -32l-2 -3q-87 -38 -123 -79.5t-36 -112.5z" />
<glyph unicode="A" horiz-adv-x="1284" d="M0 14q0 10 5.5 18.5t12.5 8.5q58 0 106.5 49.5t76.5 118.5l329 840q19 47 19 96q0 7 -3 25t-3 30q0 10 18 12.5t46 12.5t46 35q11 14 37 14q21 0 21 -14q0 -63 14 -101l416 -1020q40 -98 133 -98q10 0 10 -12q0 -10 -8.5 -19.5t-18.5 -9.5h-434q-10 0 -10 16q0 9 5.5 17 t12.5 8q52 0 88.5 23.5t36.5 64.5q0 22 -8 43l-137 369h-408l-116 -310q-17 -50 -17 -88q0 -50 39.5 -76t100.5 -26q10 0 10 -12q0 -10 -8 -19.5t-17 -9.5h-385q-10 0 -10 14zM442 618h349l-177 443z" />
<glyph unicode="B" horiz-adv-x="1064" d="M20 14q0 9 6 18t13 9q62 0 98.5 31t36.5 94v915q0 55 -33.5 85t-89.5 30q-10 0 -10 14q0 10 5.5 18.5t12.5 8.5h265q51 0 139.5 9t122.5 9q78 0 146 -30.5t113.5 -95.5t45.5 -152q0 -79 -45 -154t-115 -108q53 -11 104.5 -36.5t97 -65.5t73.5 -98.5t28 -125.5 q0 -169 -131 -288t-317 -119q-42 0 -161.5 9t-186.5 9h-207q-11 0 -11 14zM326 111q56 -27 115 -35t147 -8q115 0 196.5 89.5t81.5 217.5q0 113 -82 189.5t-219 76.5h-239v-530zM326 731h229q84 0 130 62t46 155q0 55 -21.5 97.5t-57 66t-74.5 35.5t-80 12h-131 q-16 0 -28.5 -11t-12.5 -32v-385z" />
<glyph unicode="C" horiz-adv-x="927" d="M31 602q0 100 21.5 195t65.5 177.5t104.5 145.5t144.5 99t180 36q32 0 89 -14t81 -14q31 0 52 14t32 14q39 0 39 -18q0 -13 -10.5 -45t-10.5 -49q0 -33 10.5 -104t10.5 -111q0 -11 -13.5 -18t-27.5 -7q-15 0 -15 8q0 111 -74 178.5t-182 67.5q-76 0 -134.5 -31t-94.5 -81 t-59 -119.5t-32 -138.5t-9 -146q0 -56 6 -111.5t19.5 -120.5t40 -119.5t63.5 -100.5t94.5 -72.5t128.5 -26.5q81 0 156.5 48.5t156.5 129.5q6 6 17 6q10 0 17 -12t7 -26t-6 -23q-82 -108 -192 -179t-236 -71q-90 0 -165 40.5t-124.5 105.5t-84.5 150t-50.5 171.5 t-15.5 171.5z" />
<glyph unicode="D" horiz-adv-x="1150" d="M20 14q0 9 6 18t13 9q62 0 98.5 31t36.5 94v915q0 55 -33.5 85t-89.5 30q-10 0 -10 14q0 10 5.5 18.5t12.5 8.5h269q52 0 152 9t143 9q207 0 347 -166.5t140 -422.5q0 -122 -42 -245t-112 -220t-169.5 -158t-206.5 -61q-22 0 -138 9t-186 9h-225q-11 0 -11 14zM326 109 q61 -25 101.5 -33t100.5 -8q105 0 186 43.5t130 120t73.5 174t24.5 212.5q0 136 -44.5 258.5t-131 202.5t-195.5 80h-204q-16 0 -28.5 -11t-12.5 -32v-1007z" />
<glyph unicode="E" horiz-adv-x="1019" d="M20 14q0 9 6 18t13 9q62 0 98.5 31t36.5 94v915q0 55 -33.5 85t-89.5 30q-10 0 -10 14q0 10 5.5 18.5t12.5 8.5h664q31 0 84.5 9t69.5 9q28 0 28 -18l21 -264q0 -9 -5.5 -20t-17.5 -11t-25.5 8t-13.5 19q0 81 -78.5 135.5t-181.5 54.5h-237q-16 0 -28.5 -11t-12.5 -32 v-344h254q101 0 133 39q11 14 32 14q25 0 25 -10q0 -9 -2 -27t-2 -24q0 -34 11 -99.5t11 -105.5q0 -9 -14 -19t-26 -10q-15 0 -15 11q0 72 -49 113.5t-119 41.5h-198q-16 0 -28.5 -11t-12.5 -32v-501q0 -41 54.5 -58.5t125.5 -17.5q107 0 187.5 19.5t125.5 53t66.5 72 t21.5 82.5q0 19 43 19q8 0 12.5 -7t4.5 -12l-41 -303h-895q-11 0 -11 14z" />
<glyph unicode="F" horiz-adv-x="972" d="M20 12q0 10 5.5 19.5t13.5 9.5q62 0 98.5 31t36.5 94v915q0 55 -33.5 85t-89.5 30q-10 0 -10 14q0 10 5.5 18.5t12.5 8.5h697q31 0 84 9t69 9q29 0 29 -18l20 -264q0 -10 -5 -20.5t-17 -10.5t-25.5 8t-13.5 19q0 81 -78.5 135.5t-181.5 54.5h-311v-428h254q101 0 133 39 q11 14 32 14q25 0 25 -10t-2 -27t-2 -24q0 -34 11 -99.5t11 -105.5q0 -9 -14 -19t-26 -10q-15 0 -15 11q0 72 -49 113.5t-119 41.5h-198q-16 0 -28.5 -11t-12.5 -32v-446q0 -125 145 -125h2q12 0 12 -14q0 -10 -7 -18.5t-17 -8.5h-430q-11 0 -11 12z" />
<glyph unicode="G" horiz-adv-x="1122" d="M31 584q0 100 21.5 196.5t65 182.5t103.5 151t144 103t180 38q47 0 106 -9t78 -9q101 0 150 31q9 6 20 6q13 0 23 -8.5t10 -16.5q0 -19 -3 -48t-3 -42q0 -51 14 -119t14 -104q0 -19 -11.5 -30t-24.5 -11q-19 0 -19 18q-6 71 -39 124t-86.5 83t-115 44t-132.5 14 q-76 0 -134.5 -33.5t-94 -86t-58.5 -125.5t-31.5 -143.5t-8.5 -148.5q0 -56 6 -111.5t19.5 -120.5t40 -119.5t63.5 -100.5t94.5 -72.5t128.5 -26.5q93 0 156.5 16t111.5 66v289q0 55 -33.5 84.5t-89.5 29.5q-10 0 -10 15q0 9 6 17.5t13 8.5h393q12 0 12 -12q0 -9 -8 -19 t-17 -10q-47 0 -80.5 -33.5t-33.5 -80.5v-305q-25 -14 -84.5 -49t-96.5 -54t-92.5 -43t-111 -35.5t-113.5 -11.5q-90 0 -165 38.5t-125.5 101t-85.5 144.5t-50.5 167t-15.5 170z" />
<glyph unicode="H" horiz-adv-x="1263" d="M20 12q0 10 5.5 19.5t13.5 9.5q62 0 98.5 31t36.5 94v915q0 55 -33.5 85t-89.5 30q-10 0 -10 14q0 10 5.5 18.5t12.5 8.5h394q5 0 9.5 -5t4.5 -11q0 -10 -7 -17.5t-20 -7.5q-47 0 -80.5 -34t-33.5 -81v-350h600v350q0 55 -33.5 85t-89.5 30q-10 0 -10 14q0 10 5.5 18.5 t12.5 8.5h393q5 0 10 -5t5 -11q0 -10 -7 -17.5t-20 -7.5q-47 0 -81 -34t-34 -81v-915q0 -125 148 -125q12 0 12 -14q0 -10 -7.5 -18.5t-17.5 -8.5h-430q-10 0 -10 12q0 10 5.5 19.5t13.5 9.5q62 0 98.5 31t36.5 94v475h-600v-475q0 -125 145 -125h2q12 0 12 -14 q0 -10 -7 -18.5t-17 -8.5h-430q-11 0 -11 12z" />
<glyph unicode="I" horiz-adv-x="507" d="M25 12q0 10 5 19.5t13 9.5q62 0 98.5 31t36.5 94v915q0 55 -33.5 85t-89.5 30q-10 0 -10 14q0 10 5.5 18.5t12.5 8.5h394q12 0 12 -12q0 -9 -8 -19t-17 -10q-47 0 -80.5 -34t-33.5 -81v-915q0 -125 145 -125h2q12 0 12 -14q0 -10 -7 -18.5t-17 -8.5h-430q-10 0 -10 12z " />
<glyph unicode="J" horiz-adv-x="450" d="M-66 -401q0 13 9 16q75 24 144 109.5t69 162.5v1194q0 55 -33.5 85t-89.5 30q-10 0 -10 14q0 10 5.5 18.5t12.5 8.5h393q12 0 12 -12q0 -9 -7.5 -19t-16.5 -10q-47 0 -81 -34t-34 -81v-1118q0 -64 -29 -124.5t-81 -111.5t-98.5 -86t-106.5 -73q-13 -8 -29 -8 q-10 0 -19.5 13.5t-9.5 25.5z" />
<glyph unicode="K" horiz-adv-x="1171" d="M20 12q0 10 5.5 19.5t13.5 9.5q62 0 98.5 31t36.5 94v915q0 55 -33.5 85t-89.5 30q-10 0 -10 14q0 10 5.5 18.5t12.5 8.5h394q12 0 12 -12q0 -9 -8 -19t-17 -10q-47 0 -80.5 -34t-33.5 -81v-376l352 356q39 42 39 78q0 57 -70 57q-10 0 -10 10q0 31 18 31h420 q15 0 15 -12q0 -9 -10 -19t-19 -10q-54 0 -135 -37t-140 -94l-284 -285q35 0 60 -4t53.5 -16t52.5 -38t43 -67l221 -465q45 -96 96 -96q43 0 80 37q6 6 14 6q13 0 26 -16t13 -31q0 -8 -6 -14q-103 -113 -205 -113q-66 0 -92.5 22.5t-66.5 110.5l-193 424q-21 48 -34 72 t-34 45.5t-47 29t-67 7.5l-90 -78v-430q0 -125 145 -125h2q12 0 12 -14q0 -10 -7 -18.5t-17 -8.5h-430q-11 0 -11 12z" />
<glyph unicode="L" horiz-adv-x="978" d="M20 14q0 9 6 18t13 9q62 0 98.5 31t36.5 94v915q0 55 -33.5 85t-89.5 30q-10 0 -10 14q0 10 5.5 18.5t12.5 8.5h394q12 0 12 -12q0 -9 -8 -19t-17 -10q-47 0 -80.5 -34t-33.5 -81v-929q0 -41 54.5 -58.5t125.5 -17.5q107 0 187.5 19.5t125.5 53t66.5 72t21.5 82.5 q0 19 43 19q8 0 12.5 -7t4.5 -12l-41 -303h-895q-11 0 -11 14z" />
<glyph unicode="M" horiz-adv-x="1495" d="M0 18q0 8 5.5 15.5t12.5 7.5q58 0 93 33.5t43 95.5l106 920q0 1 1 8.5t1 13.5q0 40 -36.5 62t-90.5 22q-10 0 -10 14q0 10 5.5 18.5t12.5 8.5h248q15 0 22 -8t15 -33l324 -1003l313 919q8 22 17 60t16.5 51.5t23.5 13.5h256q11 0 11 -12q0 -8 -7.5 -18.5t-15.5 -10.5 q-50 0 -84.5 -20.5t-34.5 -63.5q0 -5 2 -17t2 -16l92 -911q8 -72 32.5 -99.5t88.5 -27.5h2q13 0 13 -14q0 -10 -7.5 -18.5t-17.5 -8.5h-405q-11 0 -11 12q0 10 5.5 19.5t13.5 9.5q44 0 69.5 4t46.5 24t21 58q0 7 -1 22.5t-1 16.5l-78 844l-303 -875q-4 -4 -19.5 -19 t-18.5 -18.5t-13.5 -16t-13 -19.5t-7.5 -20t-6.5 -27t-0.5 -31q0 -8 -15 -14.5t-29 -6.5q-28 0 -36.5 12t-8.5 35q0 27 -8 58l-303 956l-92 -838q-4 -40 -4 -55q0 -90 151 -90q10 0 10 -12q0 -29 -22 -29h-365q-10 0 -10 18z" />
<glyph unicode="N" horiz-adv-x="1177" d="M20 14q0 9 6 18t13 9q62 0 98.5 31t36.5 94v915q0 55 -33.5 85t-89.5 30q-10 0 -10 14q0 10 5.5 18.5t12.5 8.5h232q46 -102 133 -233l463 -697q4 -6 13.5 -20.5t12 -18t9 -14t8.5 -14.5l6 -12t6 -14.5t4 -14.5v882q0 55 -33.5 85t-89.5 30q-10 0 -10 14q0 10 5.5 18.5 t12.5 8.5h318q5 0 9.5 -5t4.5 -11q0 -10 -6.5 -17.5t-19.5 -7.5q-47 0 -81 -34t-34 -81v-1005q0 -16 -5 -32.5t-18 -36t-41.5 -32t-68.5 -12.5q-11 0 -23 38.5t-28 94.5t-35 84l-436 651q-73 111 -111 209l-4 -2v-872q0 -125 147 -125q13 0 13 -14q0 -10 -7.5 -18.5 t-17.5 -8.5h-356q-11 0 -11 14z" />
<glyph unicode="O" horiz-adv-x="1136" d="M33 555q0 124 45.5 248.5t122.5 225t191 163.5t241 63q140 0 249.5 -86.5t165.5 -221.5t56 -290q0 -133 -45.5 -258.5t-123.5 -222t-190.5 -155t-238.5 -58.5q-102 0 -192.5 52t-151 136.5t-95 190t-34.5 213.5zM193 616q0 -80 12.5 -155t41 -146t70.5 -123.5t107 -84 t145 -31.5q92 0 164.5 40t118 110t69 159.5t23.5 192.5q0 117 -20.5 215t-63 178t-117.5 125t-176 45q-96 0 -170 -46t-117.5 -122.5t-65 -167.5t-21.5 -189z" />
<glyph unicode="P" horiz-adv-x="985" d="M20 12q0 10 5.5 19.5t13.5 9.5q62 0 98.5 31t36.5 94v915q0 55 -33.5 85t-89.5 30q-10 0 -10 14q0 10 5.5 18.5t12.5 8.5h189q68 0 208 9t160 9q65 0 122 -18t103.5 -53t73.5 -93.5t27 -132.5q0 -162 -124 -280.5t-290 -118.5q-117 0 -202 45v-438q0 -125 145 -125h2 q12 0 12 -14q0 -10 -7 -18.5t-17 -8.5h-430q-11 0 -11 12zM326 696q78 -55 206 -55q105 0 178.5 71t73.5 189q0 119 -67 188.5t-185 69.5h-165q-16 0 -28.5 -11t-12.5 -32v-420z" />
<glyph unicode="Q" horiz-adv-x="1075" d="M0 555q0 97 28 197.5t81.5 190t125 159.5t165.5 111.5t196 41.5q140 0 250.5 -86.5t167.5 -222t57 -289.5q0 -133 -45 -258.5t-122 -222t-189 -155t-238 -58.5q-103 0 -193.5 52t-151.5 136t-96.5 190t-35.5 214zM51 -211q0 8 6 14q132 119 252 119q71 0 221.5 -49 t237.5 -49q66 0 107.5 14.5t68.5 61.5q5 10 21 10q51 0 51 -29q0 -16 -10 -33l-29 -43q-54 -77 -92.5 -95.5t-118.5 -18.5q-75 0 -170.5 28.5t-195 57t-183.5 28.5q-31 0 -51.5 -11t-52.5 -40q-2 -1 -6.5 -5t-8 -6.5t-6.5 -2.5q-14 0 -27.5 17.5t-13.5 31.5zM160 616 q0 -102 21 -194t63.5 -171.5t118 -127t174.5 -47.5q121 0 207.5 70t126.5 181.5t40 250.5q0 93 -12 173.5t-41 153.5t-72 124.5t-109 81.5t-149 30q-96 0 -169 -46t-115 -123t-63 -167t-21 -189z" />
<glyph unicode="R" horiz-adv-x="1171" d="M20 12q0 10 5.5 19.5t13.5 9.5q62 0 98.5 31t36.5 94v915q0 55 -33.5 85t-89.5 30q-10 0 -10 14q0 10 5.5 18.5t12.5 8.5h187q68 0 208 9t160 9q65 0 122 -18t103.5 -53t73.5 -93.5t27 -132.5q0 -115 -80 -197t-188 -106q61 -18 131 -161l149 -304q49 -96 97 -96 q42 0 79 37q10 10 21 10q13 0 25 -12.5t12 -26.5q0 -16 -10 -26q-103 -113 -205 -113q-66 0 -93 22.5t-67 110.5l-195 420q-39 85 -109 112t-181 27v-489q0 -125 145 -125h2q12 0 12 -14q0 -10 -7 -18.5t-17 -8.5h-430q-11 0 -11 12zM326 735q32 0 109 -6t118 -6 q63 0 112 14.5t84 56t35 107.5q0 119 -67 188.5t-185 69.5h-165q-16 0 -28.5 -11t-12.5 -32v-381z" />
<glyph unicode="S" horiz-adv-x="882" d="M18 -14q0 25 17.5 86.5t17.5 126.5q0 21 -6 77t-6 89q0 14 20 14q15 0 25 -10.5t10 -24.5q0 -115 92 -191.5t205 -76.5q116 0 201.5 66t85.5 180q0 59 -22 103.5t-59 72.5t-85 48.5t-101 36.5t-105.5 32t-100.5 39.5t-85 55t-59 82.5t-22 117q0 163 110.5 254.5 t278.5 91.5q30 0 93 -9t120 -9q12 0 29.5 9t27.5 9q52 0 52 -22q0 -7 -8.5 -30.5t-8.5 -35.5q0 -43 8.5 -124.5t8.5 -114.5q0 -13 -12.5 -22t-24.5 -9q-15 0 -15 14q0 110 -87.5 179t-198.5 69q-103 0 -170.5 -46.5t-67.5 -141.5q0 -60 22.5 -105.5t60.5 -73t87 -47.5 t103.5 -35.5t108.5 -31.5t103 -40t87 -56.5t60.5 -85.5t22.5 -123q0 -103 -48.5 -196t-142.5 -153.5t-212 -60.5q-39 0 -125.5 26.5t-112.5 26.5q-71 0 -98 -34q-17 -19 -37 -19q-37 0 -37 23z" />
<glyph unicode="T" horiz-adv-x="937" d="M2 940l16 299q0 16 31 16q16 0 68.5 -9t83.5 -9h522q31 0 82.5 9t68.5 9q37 0 37 -16l19 -309q0 -6 -10 -10.5t-21 -4.5q-8 0 -14 4.5t-6 10.5q0 27 -21 76.5t-53 78.5q-62 56 -203 56h-65v-975q0 -125 145 -125h2q12 0 12 -14q0 -10 -7 -18.5t-17 -8.5h-430 q-11 0 -11 12q0 10 5.5 19.5t13.5 9.5q62 0 98.5 31t36.5 94v975h-63q-139 0 -197 -49q-33 -28 -53.5 -76.5t-20.5 -79.5q0 -21 -35 -21q-14 0 -14 25z" />
<glyph unicode="U" horiz-adv-x="1218" d="M20 1210q0 9 6 18t13 9h393q12 0 12 -12q0 -9 -7.5 -19t-16.5 -10q-47 0 -81 -34t-34 -81v-686q0 -128 93 -223.5t220 -95.5q77 0 155.5 32.5t136 99t57.5 148.5v725q0 55 -33.5 85t-89.5 30q-10 0 -10 14q0 10 5.5 18.5t12.5 8.5h334q5 0 9.5 -5t4.5 -11 q0 -10 -6.5 -17.5t-19.5 -7.5q-47 0 -81 -34t-34 -81v-739q0 -90 -48.5 -164t-125 -119.5t-165.5 -70.5t-177 -25q-92 0 -181 43.5t-148.5 124.5t-59.5 176v774q0 55 -33.5 85t-89.5 30q-11 0 -11 14z" />
<glyph unicode="V" horiz-adv-x="1165" d="M0 1212q0 8 5.5 16.5t12.5 8.5h455q12 0 12 -12q0 -9 -7.5 -19t-16.5 -10q-30 0 -57.5 -6t-49.5 -22t-22 -40q0 -7 14 -61l264 -858l312 862q10 27 10 55q0 26 -21 42.5t-48 22t-60 5.5q-10 0 -10 12q0 10 5 19.5t13 9.5h342q12 0 12 -14q0 -9 -7.5 -18t-16.5 -9 q-44 0 -69 -27.5t-46 -83.5l-340 -950q-4 -4 -19.5 -19t-18.5 -18.5t-13.5 -16t-13 -19.5t-7.5 -20t-6.5 -27t-1.5 -31q0 -8 -15 -14.5t-28 -6.5q-28 0 -36.5 12t-8.5 35q0 27 -8 58l-332 1017q-17 52 -64 81.5t-104 29.5q-10 0 -10 16z" />
<glyph unicode="W" horiz-adv-x="1744" d="M0 1208q0 10 5 19.5t13 9.5h455q12 0 12 -14q0 -9 -7.5 -18t-16.5 -9q-31 0 -58 -5.5t-49 -23.5t-22 -45q0 -19 10 -57l219 -838l227 805q19 78 19 96q0 7 -4 23.5t-4 28.5q0 5 4.5 10.5t11.5 5.5q64 0 94 59q9 19 41 19q19 0 19 -14q0 -66 14 -117l234 -916l274 844 q10 30 10 51q0 39 -39 56.5t-92 17.5q-10 0 -10 12q0 29 18 29h344q13 0 13 -12q0 -9 -9 -19t-18 -10q-76 0 -115 -111l-319 -950q-4 -4 -19.5 -19t-18.5 -18.5t-13.5 -16t-13 -19.5t-7.5 -20t-6.5 -27t-1.5 -31q0 -8 -15 -14.5t-28 -6.5q-28 0 -36.5 12t-8.5 35q0 27 -8 58 l-232 880l-239 -813q-4 -4 -19.5 -19t-18.5 -18.5t-13.5 -16t-13 -19.5t-7.5 -20t-6.5 -27t-0.5 -31q0 -8 -15 -14.5t-29 -6.5q-28 0 -36.5 12t-8.5 35q0 27 -8 58l-273 1015q-13 52 -62 82.5t-106 30.5q-10 0 -10 12z" />
<glyph unicode="X" horiz-adv-x="1290" d="M0 12q0 10 5 19.5t13 9.5q85 0 177 117l374 471l-325 456q-43 61 -79.5 86t-88.5 25q-10 0 -10 12q0 10 5 19.5t13 9.5h455q12 0 12 -14q0 -10 -8 -18.5t-17 -8.5q-43 0 -87 -22.5t-44 -61.5q0 -32 37 -78l225 -311l291 334q27 34 27 67q0 37 -41.5 54.5t-91.5 17.5 q-11 0 -11 16q0 9 6 17t13 8h393q12 0 12 -12q0 -9 -7.5 -19t-16.5 -10q-69 0 -152 -96l-368 -445l379 -497q89 -117 159 -117q15 0 15 -14q0 -10 -8 -18.5t-17 -8.5h-459q-10 0 -10 14q0 10 5.5 18.5t12.5 8.5q130 0 130 68q0 46 -37 94l-258 344l-267 -344 q-43 -56 -43 -92q0 -70 113 -70q10 0 10 -10t-7 -20.5t-17 -10.5h-402q-10 0 -10 12z" />
<glyph unicode="Y" horiz-adv-x="1140" d="M0 1208q0 10 5 19.5t13 9.5h457q14 0 14 -16q0 -9 -7.5 -17t-16.5 -8q-45 0 -82 -23.5t-37 -64.5q0 -21 19 -59l225 -490l272 504q12 21 12 49q0 39 -40 61.5t-89 22.5q-10 0 -10 12q0 10 5.5 19.5t13.5 9.5h372q13 0 13 -14q0 -10 -8 -18.5t-17 -8.5q-43 0 -73 -30 t-64 -89l-324 -573v-338q0 -125 146 -125h2q12 0 12 -14q0 -10 -7.5 -18.5t-17.5 -8.5h-430q-10 0 -10 12q0 10 5.5 19.5t13.5 9.5q62 0 98.5 31t36.5 94v262l-330 657q-57 111 -162 111q-10 0 -10 12z" />
<glyph unicode="Z" horiz-adv-x="1040" d="M33 37q0 15 6 24l725 1078q4 4 4 8q0 12 -18 12h-369q-87 0 -151 -68t-64 -143q0 -16 -15 -23t-34 -7q-9 0 -16 5t-7 11q0 40 20.5 120.5t20.5 151.5q0 31 29 31h792q14 0 27.5 -9t13.5 -20q0 -6 -6 -18q-21 -34 -74 -99.5t-92 -121.5l-444 -650q-21 -31 -48 -69.5 t-36.5 -52.5t-22 -35t-24.5 -45q-6 -12 -6 -19q0 -6 14 -6h420q75 0 141 66q29 29 59 72.5t47 75t17 38.5q0 12 37 12q7 0 12.5 -6t5.5 -12q0 -21 -21.5 -79.5t-21.5 -129.5q0 -17 4.5 -57t4.5 -52q0 -20 -41 -20h-869q-8 0 -14 11t-6 26z" />
<glyph unicode="[" horiz-adv-x="464" d="M98 45v1104q0 38 19 72.5t57 64.5t71 50.5t84.5 48.5t73.5 42q12 9 21 9q14 0 25.5 -15.5t11.5 -31.5q0 -12 -10 -19q-81 -38 -141 -96.5t-60 -124.5v-1104q0 -98 180 -221q1 0 6.5 -3.5t8 -5.5t6.5 -5.5t6 -8t2 -10.5q0 -12 -15.5 -29.5t-29.5 -17.5q-11 0 -19 8 q-33 23 -87.5 55.5t-84.5 52.5t-63 49t-47.5 62t-14.5 74z" />
<glyph unicode="\" horiz-adv-x="811" d="M49 1253q0 21 37 21q17 0 29.5 -4.5t16 -8.5t3.5 -6l434 -870q28 -56 50.5 -98t45 -77.5t34 -53t37.5 -53.5t36 -50q16 -21 16 -57q0 -14 -18.5 -23.5t-38.5 -9.5q-25 0 -33 17q-24 44 -44.5 90t-32.5 69l-492 944q-14 27 -31.5 57t-26.5 44.5t-15.5 33t-6.5 35.5z" />
<glyph unicode="]" horiz-adv-x="464" d="M-10 1389q0 16 10.5 31.5t24.5 15.5q15 0 24 -6q19 -11 63.5 -36t70 -40t62 -41t57 -48.5t35.5 -53t15 -62.5v-1104q0 -41 -14 -74t-46.5 -62t-61 -48.5t-83 -53t-86.5 -55.5q-16 -8 -22 -8q-14 0 -27.5 16.5t-13.5 32.5q0 5 6.5 16t13.5 15q46 31 73 51t55.5 48.5 t41.5 58t13 63.5v1104q0 66 -60 124.5t-141 96.5q-10 7 -10 19z" />
<glyph unicode="^" horiz-adv-x="815" d="M41 731q0 7 8 17.5t10 13.5l238 459q3 6 7 17.5t6.5 16t10.5 10t22.5 7.5t37.5 2q30 0 46 -6.5t20.5 -14.5t12 -27t15.5 -32l285 -455q14 -19 14 -22q0 -17 -37.5 -33t-66.5 -16q-12 0 -17.5 3.5t-10 16.5t-5.5 14l-248 469l-211 -436q-12 -21 -12 -39q0 -8 -27 -8 q-21 0 -49 10t-37 17q-12 8 -12 16z" />
<glyph unicode="_" horiz-adv-x="1101" d="M0 -264h1102v-96h-1102v96z" />
<glyph unicode="`" horiz-adv-x="368" d="M61 948q0 87 36.5 171t101.5 151q6 6 16 6q14 0 29.5 -15t15.5 -30q0 -11 -6 -17q-80 -76 -80 -159q0 -13 26.5 -34t53.5 -48t27 -53q0 -44 -33.5 -76.5t-73.5 -32.5q-41 0 -77 41t-36 96z" />
<glyph unicode="a" horiz-adv-x="856" d="M37 211q0 77 27.5 137t68.5 96t101.5 66t114.5 47t120 40.5t106 43.5q0 143 -41 197.5t-135 54.5q-83 0 -156 -63.5t-93 -141.5q-3 -12 -19 -12q-13 0 -26 6.5t-13 13.5q0 12 10 42.5t20.5 83.5t10.5 120q0 33 23 33q13 0 42 -13.5t46 -13.5q34 0 102.5 18.5t108.5 18.5 q108 0 181 -61.5t73 -159.5v-598q0 -40 10.5 -66t30.5 -26q13 0 41.5 22.5t39.5 22.5q9 0 18 -13.5t9 -27.5q0 -11 -12 -23q-23 -17 -70 -43q-6 -3 -19.5 -11t-19.5 -11.5t-17 -6.5t-22 -3q-64 0 -93.5 43.5t-29.5 109.5q-64 -70 -151 -120t-178 -50q-107 0 -158 69.5 t-51 178.5zM188 217q0 -61 30 -102t83 -41q85 0 162 63.5t112 155.5v248q-19 -6 -63.5 -19.5t-68 -20.5t-63 -23t-62 -30.5t-51 -38t-43.5 -50t-25.5 -63t-10.5 -79.5z" />
<glyph unicode="b" horiz-adv-x="925" d="M6 1331q0 9 6.5 17t14.5 8q89 0 147 18.5t80 18.5q45 0 45 -37q0 -17 -9 -66.5t-9 -81.5v-364q60 70 133 105.5t147 35.5q104 0 182 -62t116 -159t38 -213q0 -94 -32 -196.5t-87 -190t-139.5 -144.5t-179.5 -57q-29 0 -84 18.5t-94 18.5q-20 0 -65.5 -18.5t-61.5 -18.5 q-27 0 -27 37q0 15 10 38.5t10 43.5v1092q0 86 -24.5 113.5t-108.5 27.5q-8 0 -8 16zM281 176q43 -62 85.5 -91.5t108.5 -29.5q72 0 126.5 38.5t84.5 103t44.5 138t14.5 154.5q0 47 -5.5 92t-23 96t-44.5 89t-75 63t-110 25q-108 0 -206 -102v-576z" />
<glyph unicode="c" horiz-adv-x="780" d="M31 465q0 72 13 143t43 139.5t73.5 121t109.5 84.5t146 32q32 0 86 -18.5t78 -18.5q15 0 34.5 18.5t30.5 18.5q12 0 22.5 -9t10.5 -20q0 -2 -7 -15.5t-13.5 -37.5t-6.5 -51q0 -21 5.5 -65.5t5.5 -69.5q0 -13 -14 -22t-27 -9q-17 0 -17 10q0 83 -52 149t-126 66 q-53 0 -94.5 -22t-67 -61t-43 -83t-25.5 -98.5t-11 -95.5t-3 -86t8 -92t27.5 -98t49 -90.5t77.5 -65t107 -25.5q138 0 239 133q2 3 7.5 10.5t8.5 10t7 2.5q12 0 26.5 -18t14.5 -35q0 -14 -11 -25q-13 -13 -45 -46.5t-45 -46t-40 -37t-45.5 -34.5t-46.5 -23t-57 -17.5 t-63 -4.5q-93 0 -166 44.5t-116.5 118.5t-65.5 160.5t-22 178.5z" />
<glyph unicode="d" horiz-adv-x="919" d="M31 465q0 72 16 145t49.5 140.5t80 119.5t112.5 83.5t141 31.5q90 0 197 -59v248q0 86 -24.5 113.5t-108.5 27.5q-9 0 -9 16q0 9 6.5 17t14.5 8q89 0 147 18.5t80 18.5q45 0 45 -37q0 -17 -9 -66.5t-9 -81.5v-1040q0 -40 10.5 -66t30.5 -26q13 0 42 22.5t40 22.5 q9 0 17.5 -13.5t8.5 -27.5q0 -11 -12 -23q-23 -17 -70 -43q-7 -4 -19.5 -11.5t-19 -11t-17 -6.5t-21.5 -3q-64 0 -93.5 43.5t-29.5 109.5q-22 -17 -56.5 -52.5t-59 -58.5t-65 -42t-84.5 -19q-84 0 -150.5 51.5t-104 130.5t-57 162t-19.5 158zM182 512q0 -55 4.5 -107 t18.5 -114t36.5 -107.5t64 -76.5t95.5 -31q118 0 226 176v594q-61 61 -168 61q-76 0 -132.5 -37t-86.5 -97.5t-44 -126t-14 -134.5z" />
<glyph unicode="e" horiz-adv-x="790" d="M31 465q0 72 13 143t43 139.5t73.5 121t109.5 84.5t146 32q65 0 118 -22.5t88 -60.5t59.5 -90t35 -110t10.5 -122q0 -8 -6.5 -14.5t-13.5 -6.5h-529q-8 -55 -8 -102q0 -97 30 -177.5t95.5 -133t155.5 -52.5q67 0 116 30.5t117 98.5q25 25 33 25q19 0 28 -14.5t9 -34.5 q0 -16 -11 -27q-18 -19 -48.5 -46.5t-59.5 -57.5q-101 -105 -234 -105q-93 0 -166 44.5t-116.5 118.5t-65.5 160.5t-22 178.5zM184 641h367q20 0 20 14q0 112 -50 182t-138 70q-151 0 -199 -266z" />
<glyph unicode="f" horiz-adv-x="573" d="M33 16q0 9 5.5 17t12.5 8q119 0 119 125v706h-20q-13 0 -35 -4t-37 -4q-19 0 -19 15q0 35 33.5 52t77.5 17v172q0 109 83 191t202 82q29 0 65 -10.5t53 -10.5q19 0 42.5 10.5t39.5 10.5q11 0 19 -5t8 -12q0 -2 -11.5 -54.5t-11.5 -70.5t3.5 -58t3.5 -73q0 -14 -9.5 -22 t-21.5 -8q-21 0 -21 12q0 95 -44.5 155t-114.5 60q-55 0 -91 -32t-48.5 -74t-12.5 -91v-172q28 0 81.5 -3t72.5 -3q25 0 55 13.5t39 13.5q14 0 14 -25q0 -45 -33.5 -68.5t-74.5 -23.5q-16 0 -63 10t-91 10v-706q0 -125 148 -125q12 0 12 -16q0 -9 -7.5 -17t-17.5 -8h-395 q-10 0 -10 16z" />
<glyph unicode="g" horiz-adv-x="884" d="M-8 -211q0 32 28 65t70 58q7 4 20 14.5t23 15.5t21 5q16 0 32.5 -9.5t16.5 -25.5q0 -6 -2.5 -11.5t-4.5 -7.5t-8.5 -6.5t-7.5 -5.5q-37 -29 -37 -65q0 -181 330 -181q116 0 213.5 68t97.5 166q0 41 -48.5 66.5t-121.5 34t-158.5 19t-158.5 21.5t-121.5 43t-48.5 82 q0 137 121 209q-93 34 -145 105.5t-52 164.5q0 98 66 181.5t160.5 128.5t187.5 45q56 0 95.5 -12.5t86.5 -38.5q27 0 174 24q25 4 47.5 15.5t30.5 11.5q9 0 20 -9.5t11 -17.5q0 -36 -51.5 -73.5t-94.5 -37.5q-40 0 -61 -12q76 -86 76 -162q0 -97 -61.5 -177t-144.5 -120.5 t-161 -40.5q-18 0 -90 11q-78 -43 -78 -119q0 -41 36.5 -64.5t94.5 -32.5t128 -13.5t140 -12.5t128 -25t94.5 -56.5t36.5 -100.5q0 -57 -22 -107.5t-59.5 -87.5t-85.5 -66.5t-102 -47.5t-107.5 -27.5t-103.5 -9.5q-53 0 -101 3.5t-101 12.5t-96 26t-78 41.5t-54.5 61.5 t-19.5 84zM203 641q0 -106 61.5 -169.5t159.5 -63.5q223 0 223 225q0 99 -62.5 167t-164.5 68q-95 0 -156 -62.5t-61 -164.5z" />
<glyph unicode="h" horiz-adv-x="1007" d="M27 1331q0 9 6.5 17t13.5 8q89 0 147 18.5t80 18.5q45 0 45 -37q0 -17 -9 -66.5t-9 -81.5v-407q70 85 139.5 134.5t159.5 49.5q57 0 109.5 -19.5t91.5 -64.5t39 -108v-627q0 -125 147 -125q12 0 12 -16q0 -9 -7 -17t-17 -8h-395q-11 0 -11 16q0 9 6 17t13 8 q119 0 119 125v543q0 65 -45 115t-111 50q-81 0 -145 -57.5t-105 -140.5v-510q0 -125 148 -125q12 0 12 -16q0 -9 -7.5 -17t-17.5 -8h-395q-10 0 -10 16q0 9 5.5 17t12.5 8q119 0 119 125v1008q0 86 -24.5 113.5t-108.5 27.5q-8 0 -8 16z" />
<glyph unicode="i" horiz-adv-x="466" d="M27 924q0 9 6.5 16.5t13.5 7.5q89 0 147 18.5t80 18.5q45 0 45 -37q0 -17 -9 -66t-9 -81v-635q0 -125 148 -125q12 0 12 -16q0 -9 -7.5 -17t-17.5 -8h-395q-10 0 -10 16q0 9 5.5 17t12.5 8q119 0 119 125v600q0 86 -24.5 113.5t-108.5 27.5q-8 0 -8 17zM127 1300 q0 33 28.5 62t57.5 29q23 0 45 -11q43 -21 56.5 -38.5t13.5 -57.5q0 -56 -29.5 -90.5t-73.5 -34.5q-41 0 -69.5 46.5t-28.5 94.5z" />
<glyph unicode="j" horiz-adv-x="421" d="M-51 -406q0 9 33.5 38t73 62.5t73 79t33.5 83.5v909q0 86 -24.5 113.5t-108.5 27.5q-9 0 -9 17q0 9 6.5 16.5t14.5 7.5q89 0 147 18.5t80 18.5q45 0 45 -37q0 -17 -9 -66t-9 -81v-946q0 -69 -53.5 -129.5t-141.5 -104.5q-17 -8 -39 -23.5t-37 -25.5t-24 -10 q-21 0 -36 10.5t-15 21.5zM127 1303q0 33 28.5 61.5t57.5 28.5q23 0 45 -11q43 -21 56.5 -38.5t13.5 -57.5q0 -56 -29.5 -90.5t-73.5 -34.5q-41 0 -69.5 47t-28.5 95z" />
<glyph unicode="k" horiz-adv-x="1001" d="M33 1331q0 9 6.5 17t13.5 8q89 0 147.5 18.5t80.5 18.5q45 0 45 -37q0 -17 -9.5 -66.5t-9.5 -81.5v-688l287 307q20 23 20 35q0 22 -19.5 33.5t-43.5 11.5q-10 0 -10 13q0 10 5 19t13 9h371q10 0 10 -10t-10 -20.5t-19 -10.5q-68 0 -113 -17t-87 -59l-248 -243q9 1 18 1 q40 0 68 -22q34 -27 65 -84l160 -293q27 -52 50.5 -74t56.5 -22q26 0 63 19.5t41 19.5q8 0 14.5 -7.5t6.5 -16.5q0 -6 -7 -13l-22.5 -22.5t-28.5 -32.5q-47 -59 -121 -59q-94 0 -131 75l-116 236q-8 16 -17.5 37.5t-16 36.5t-15.5 33t-17 29.5t-19 24t-24 19t-29 11t-36 4.5 t-44 -5l-55 -55v-262q0 -125 146 -125h2q16 0 12 -18q-7 -20 -25 -23h-395q-8 0 -9.5 10t4 20.5t13.5 10.5q119 0 119 125v1008q0 86 -24.5 113.5t-108.5 27.5q-8 0 -8 16z" />
<glyph unicode="l" horiz-adv-x="471" d="M33 1331q0 9 6.5 17t13.5 8q89 0 147.5 18.5t80.5 18.5q45 0 45 -37q0 -17 -9.5 -66.5t-9.5 -81.5v-1042q0 -125 148 -125q12 0 12 -16q0 -9 -7.5 -17t-17.5 -8h-395q-10 0 -10 16q0 9 5.5 17t12.5 8q119 0 119 125v1008q0 86 -24.5 113.5t-108.5 27.5q-8 0 -8 16z" />
<glyph unicode="m" horiz-adv-x="1478" d="M33 924q0 9 6.5 16.5t13.5 7.5q89 0 147.5 18.5t80.5 18.5q45 0 45 -37q0 -17 -9.5 -66t-9.5 -81q16 15 45.5 46.5t51 51t52.5 42t68 33.5t80 11q87 0 139.5 -47.5t65.5 -126.5q40 77 114.5 125.5t168.5 48.5q87 0 153 -51.5t66 -122.5v-645q0 -125 147 -125q12 0 12 -16 q0 -9 -7 -17t-17 -8h-395q-11 0 -11 16q0 9 6 17t13 8q119 0 119 125v571q0 48 -38.5 92.5t-92.5 44.5q-71 0 -134 -56t-104 -142v-510q0 -125 147 -125q13 0 13 -16q0 -9 -7.5 -17t-17.5 -8h-395q-10 0 -10 16q0 9 5.5 17t12.5 8q119 0 119 125v571q0 49 -37.5 93t-93.5 44 q-24 0 -46.5 -6.5t-43 -21t-36 -27t-34 -36t-28 -36t-27.5 -39.5t-23 -34v-508q0 -125 148 -125q12 0 12 -16q0 -9 -7.5 -17t-17.5 -8h-395q-10 0 -10 16q0 9 5.5 17t12.5 8q119 0 119 125v600q0 86 -24.5 113.5t-108.5 27.5q-8 0 -8 17z" />
<glyph unicode="n" horiz-adv-x="1026" d="M33 924q0 9 6.5 16.5t13.5 7.5q89 0 147.5 18.5t80.5 18.5q45 0 45 -37q0 -17 -9.5 -66t-9.5 -81q70 85 139.5 134.5t159.5 49.5q57 0 109.5 -19.5t91.5 -64.5t39 -108v-627q0 -125 147 -125q13 0 13 -16q0 -9 -7.5 -17t-17.5 -8h-395q-11 0 -11 16q0 9 6 17t13 8 q119 0 119 125v543q0 65 -45 115t-111 50q-81 0 -145 -57.5t-105 -140.5v-510q0 -125 148 -125q12 0 12 -16q0 -9 -7.5 -17t-17.5 -8h-395q-10 0 -10 16q0 9 5.5 17t12.5 8q119 0 119 125v600q0 86 -24.5 113.5t-108.5 27.5q-8 0 -8 17z" />
<glyph unicode="o" horiz-adv-x="917" d="M31 465q0 92 34 183.5t94 167t152.5 122.5t198.5 47q96 0 172 -47t119.5 -120t65.5 -152.5t22 -155.5q0 -94 -39.5 -192.5t-103 -176.5t-151.5 -128t-179 -50q-94 0 -170 47.5t-121.5 123t-69.5 161t-24 170.5zM182 483q0 -46 7.5 -96.5t28 -107.5t50.5 -101t80 -73 t113 -29q71 0 126.5 34t87 91t47 122.5t15.5 137.5q0 56 -9 112.5t-30 114.5t-52 102.5t-79.5 72.5t-107.5 28q-80 0 -138 -41.5t-86.5 -108t-40.5 -130t-12 -128.5z" />
<glyph unicode="p" horiz-adv-x="919" d="M33 924q0 9 6.5 16.5t13.5 7.5q89 0 147.5 18.5t80.5 18.5q45 0 45 -37q0 -17 -9.5 -66t-9.5 -81q23 33 37.5 53t41.5 48t52 43.5t61 27.5t76 12q68 0 125 -33.5t93.5 -85t62 -115t36.5 -122t11 -107.5v-7q0 -65 -17 -135q-17 -74 -53.5 -144.5t-86 -127.5t-119.5 -91.5 t-148 -34.5q-40 0 -69 6.5t-56.5 17t-46.5 14.5v-258q0 -124 148 -124q12 0 12 -17q0 -9 -7.5 -16.5t-17.5 -7.5h-395q-10 0 -10 16q0 9 5.5 17t12.5 8q60 0 89.5 29.5t29.5 94.5v1004q0 86 -24.5 113.5t-108.5 27.5q-8 0 -8 17zM307 135q91 -61 203 -61q242 0 242 391 q0 40 -5 85t-20 101t-38.5 99.5t-64 73.5t-92.5 30q-71 0 -131.5 -54.5t-93.5 -123.5v-541z" />
<glyph unicode="q" horiz-adv-x="884" d="M31 436q0 73 20.5 149.5t61.5 147.5t96.5 127.5t133 90.5t163.5 34q42 0 90.5 -18.5t83.5 -18.5t66 12l30 13q15 0 26 -10.5t11 -22.5q0 -11 -8.5 -24.5t-18 -27.5t-18 -44t-8.5 -70v-1012q0 -72 11.5 -98t53.5 -26q13 0 13 -17q0 -9 -7.5 -16.5t-17.5 -7.5h-313 q-11 0 -11 16q0 9 6 17t13 8q60 0 89.5 29.5t29.5 94.5v355q-17 -12 -55 -41.5t-62 -46.5t-61.5 -32t-73.5 -15q-63 0 -119.5 29t-96.5 76.5t-69.5 107.5t-44 122t-14.5 119zM182 479q0 -57 14.5 -120.5t42.5 -123t76 -98.5t107 -39t119 44t86 106v600q-53 43 -158 43 q-71 0 -125 -30t-83.5 -73.5t-48.5 -102.5t-24.5 -107.5t-5.5 -98.5z" />
<glyph unicode="r" horiz-adv-x="638" d="M33 924q0 9 6.5 16.5t13.5 7.5q89 0 147.5 18.5t80.5 18.5q45 0 45 -37q0 -17 -9.5 -66t-9.5 -81q6 9 26.5 38t31 43t32.5 37.5t39.5 35t42.5 21t51 9.5q35 0 68 -16.5t33 -55.5q0 -102 -82 -102q-25 0 -45 23.5t-33 23.5q-39 0 -74.5 -33.5t-54.5 -69.5t-35 -79v-510 q0 -125 148 -125q12 0 12 -16q0 -9 -7.5 -17t-17.5 -8h-395q-10 0 -10 16q0 9 5.5 17t12.5 8q119 0 119 125v600q0 86 -24.5 113.5t-108.5 27.5q-8 0 -8 17z" />
<glyph unicode="s" horiz-adv-x="737" d="M45 0q0 2 6 38.5t6 72.5q0 32 -6 95.5t-6 100.5q0 13 14 23t27 10q14 0 14 -12q0 -116 67.5 -192.5t184.5 -76.5q75 0 134 49.5t59 116.5q0 62 -27.5 106t-71.5 67.5t-97.5 42l-107 37t-97.5 43t-71.5 70t-27.5 109.5q0 129 85 207t212 78q48 0 104.5 -17.5t81.5 -17.5 q27 0 44 4t23 8.5t12.5 8.5t13.5 4q22 0 22 -17q0 -10 -15.5 -50.5t-15.5 -71.5q0 -23 4.5 -61t4.5 -58q0 -9 -15 -19t-28 -10t-13 8q0 82 -63.5 149.5t-141.5 67.5q-69 0 -122.5 -42t-53.5 -117q0 -48 22 -83.5t58 -55.5t82 -38t94 -30.5t94 -33.5t82 -46.5t58 -70.5 t22 -105q0 -136 -98 -232t-229 -96q-39 0 -105 18.5t-92 18.5q-32 0 -52 -9t-29.5 -18.5t-14.5 -9.5q-12 0 -21.5 11t-9.5 26z" />
<glyph unicode="t" horiz-adv-x="546" d="M20 872v56q0 8 5 14t12 6q47 0 85 39.5t55.5 88t17.5 87.5q0 10 15.5 15.5t31.5 5.5q9 0 15.5 -4t6.5 -9q0 -20 -8 -80.5t-8 -142.5h82q26 0 76 8.5t65 8.5q27 0 27 -17q0 -16 -2.5 -31.5t-11.5 -30t-23 -14.5h-213v-722q0 -39 19 -65t52 -26q25 0 66 32t77 64.5t46 32.5 q9 0 16.5 -13.5t7.5 -27.5q0 -8 -12.5 -20t-35.5 -32.5t-40 -41.5q-33 -41 -79 -65.5t-86 -24.5q-68 0 -116 46.5t-48 107.5v755h-95z" />
<glyph unicode="u" horiz-adv-x="989" d="M25 924q0 9 6.5 16.5t13.5 7.5q89 0 147 18.5t80 18.5q45 0 45 -37q0 -17 -9 -66t-9 -81v-578q0 -53 41.5 -100t91.5 -47q83 0 159.5 71.5t113.5 163.5v455q0 85 -25 113t-109 28q-8 0 -8 17q0 9 6.5 16.5t14.5 7.5q89 0 147 18.5t80 18.5q45 0 45 -37q0 -17 -9 -66 t-9 -81v-633q0 -40 10.5 -66t30.5 -26q13 0 42 22.5t40 22.5q9 0 17.5 -13.5t8.5 -27.5q0 -11 -12 -23q-23 -17 -70 -43q-6 -3 -19.5 -11t-19.5 -11.5t-17 -6.5t-22 -3q-64 0 -93 43.5t-29 109.5v33q-34 -41 -63.5 -71t-71.5 -64t-90.5 -52t-100.5 -18q-81 0 -147 50 t-66 126v627q0 86 -24.5 113.5t-108.5 27.5q-8 0 -8 17z" />
<glyph unicode="v" horiz-adv-x="956" d="M-20 922q0 9 5.5 17.5t12.5 8.5h387q10 0 10 -10t-9 -20.5t-19 -10.5q-43 0 -71 -15.5t-28 -45.5q0 -22 23 -76l219 -598l225 600q13 35 13 51q0 42 -37 63t-84 21q-11 0 -11 13q0 10 5.5 19t13.5 9h326q10 0 10 -10q0 -9 -9.5 -20t-19.5 -11q-19 0 -48 -33t-48 -81 l-264 -658q-4 -4 -19.5 -19t-18.5 -18.5t-13.5 -16t-13 -19.5t-7.5 -20t-6.5 -27t-1.5 -31q0 -8 -15 -14.5t-28 -6.5q-28 0 -36.5 12t-8.5 35q0 27 -8 58l-304 751q-13 30 -18 40t-17.5 25t-29.5 19t-45 4h-2q-10 0 -10 15z" />
<glyph unicode="w" horiz-adv-x="1380" d="M2 920q0 28 18 28h342q11 0 11 -12q0 -10 -10 -19.5t-19 -9.5q-25 0 -52.5 -21t-27.5 -55q0 -8 15 -53l194 -569l182 559q4 12 4 18q0 18 -13 50.5t-13 48.5q0 17 34 43t46 43q3 5 17.5 9.5t27.5 4.5q28 0 28 -14q0 -70 15 -117l196 -661l172 550q15 47 15 82 q0 34 -35 58t-92 24q-10 0 -10 13q0 10 5 19t13 9h303q14 0 14 -14q0 -10 -9.5 -18.5t-18.5 -8.5q-29 0 -46.5 -24t-33.5 -72l-225 -676q-4 -4 -19.5 -19t-18.5 -18.5t-13.5 -16t-13 -19.5t-7.5 -20t-6.5 -27t-0.5 -31q0 -8 -15 -14.5t-29 -6.5q-28 0 -36.5 12t-8.5 35 q0 24 -9 58l-167 553l-175 -486q-4 -4 -17 -16.5t-16.5 -16.5t-13 -14.5t-12 -16t-8 -16.5t-7.5 -20t-3.5 -22.5t-1.5 -28.5q0 -8 -14.5 -14.5t-28.5 -6.5q-28 0 -37 12t-9 35q0 27 -8 58l-237 725q-19 56 -43.5 85t-61.5 29q-10 0 -10 13z" />
<glyph unicode="x" horiz-adv-x="987" d="M12 14q0 9 6 18t13 9q46 0 81.5 19t75.5 75l244 340l-287 383q-39 49 -102 49q-10 0 -10 15q0 9 5.5 17.5t12.5 8.5h381q12 0 12 -12q0 -9 -9.5 -19t-18.5 -10q-32 0 -57 -21.5t-25 -49.5q0 -18 12 -33l164 -230l147 232q13 23 13 39q0 27 -19.5 45t-46.5 18 q-10 0 -10 17q0 9 5.5 16.5t12.5 7.5h324q12 0 12 -12q0 -10 -9.5 -19.5t-18.5 -9.5q-50 0 -76 -13.5t-47 -43.5l-236 -346l258 -369q32 -47 67 -70.5t87 -23.5q12 0 12 -10q0 -9 -9.5 -20t-19.5 -11h-368q-13 0 -13 18q0 8 6 15.5t13 7.5q88 0 88 53q0 21 -14 41l-181 273 l-188 -273q-18 -27 -18 -51q0 -43 77 -43q11 0 11 -10t-7.5 -20.5t-17.5 -10.5h-321q-11 0 -11 14z" />
<glyph unicode="y" horiz-adv-x="987" d="M8 -168q0 16 14.5 28.5t30.5 12.5q7 0 16 -22.5t18.5 -49t33.5 -49t57 -22.5q78 0 123.5 26t81.5 107l70 153l-330 795q-13 33 -46 64.5t-59 31.5q-10 0 -10 13q0 10 5.5 19t13.5 9h368q11 0 11 -10q0 -11 -8 -21t-19 -10q-30 0 -54 -20t-24 -56q0 -27 14 -59l224 -563 l221 532q16 43 16 70q0 45 -31.5 70.5t-89.5 25.5q-10 0 -10 13q0 10 5.5 19t13.5 9h327q10 0 10 -12q0 -9 -9.5 -19t-18.5 -10q-28 0 -54.5 -36.5t-44.5 -77.5l-442 -1006q-47 -109 -126 -168t-177 -59q-28 0 -55 12.5t-27 24.5q0 60 -9.5 115t-19.5 86t-10 34z" />
<glyph unicode="z" horiz-adv-x="874" d="M74 31q0 18 18 45l383 600q56 89 137 184l-14 12h-297q-62 0 -99.5 -66t-37.5 -130q0 -8 -25 -8q-20 0 -20 8q0 41 7 129.5t7 142.5h535q47 0 76.5 5t41.5 10.5t15 5.5q8 0 15 -13t7 -26q0 -16 -18 -37q-31 -35 -44 -50.5t-37.5 -50t-53.5 -81.5l-369 -594q-8 -13 -8 -27 t20 -14h240q57 0 101.5 19.5t68 47t38.5 62.5t19 59t4 43q0 17 19 17q8 0 14 -5t6 -12q0 -55 -11 -156t-11 -151h-701q-10 0 -18 8.5t-8 22.5z" />
<glyph unicode="{" horiz-adv-x="559" d="M41 578q0 13 6 25.5t14 12.5q61 0 107.5 25.5t46.5 71.5v446q0 32 15.5 62.5t37 53.5t58.5 49t64.5 41.5t71.5 40t64 36.5q4 4 15 4q14 0 25.5 -15.5t11.5 -31.5q0 -12 -11 -19q-81 -38 -140.5 -96.5t-59.5 -124.5v-424q0 -50 -30 -95t-83 -52q113 -19 113 -121v-430 q0 -15 3.5 -30t12 -30t15.5 -27t22.5 -27.5l25 -25t30 -26t29.5 -24t32.5 -25t31.5 -23.5q6 -3 6 -12q0 -15 -15 -33t-30 -18q-4 0 -12 4q-33 23 -88 56t-86 53.5t-64.5 50t-49 63t-15.5 74.5v418q0 18 -3.5 32.5t-8 25t-15 18.5t-17 13t-22.5 8.5t-22.5 5t-26 2.5t-25 1 h-26.5q-8 0 -8 17z" />
<glyph unicode="|" horiz-adv-x="503" d="M205 -252v1645h92v-1645h-92z" />
<glyph unicode="}" horiz-adv-x="559" d="M-18 1401q0 -12 10 -19q81 -38 141 -96.5t60 -124.5v-424q0 -50 29.5 -95t82.5 -52q-112 -19 -112 -121v-430q0 -17 -5.5 -34.5t-12 -31.5t-22.5 -32t-25.5 -28.5t-32.5 -30t-32.5 -27t-37.5 -28t-35 -26.5q-6 -3 -6 -12q0 -15 15 -33t30 -18q9 0 21 7t33 22.5t38 25.5 q109 63 147 96q76 67 76 150v418q0 30 9.5 51t21.5 31t36.5 15.5t40 6t46.5 0.5h10q10 0 10 19q0 13 -6 24.5t-14 11.5q-58 0 -106 26.5t-48 72.5v446q0 38 -21.5 74t-62 68.5t-77.5 55.5t-87 50q-12 6 -30.5 17t-29.5 16.5t-18 5.5q-14 0 -25 -15.5t-11 -31.5z" />
<glyph unicode="~" horiz-adv-x="716" d="M51 582q0 14 17 39.5t44.5 52t70 46t85.5 19.5q37 0 105.5 -27.5t105.5 -27.5q43 0 78.5 20t48.5 46q12 22 49 22q19 0 36.5 -8.5t17.5 -18.5q0 -11 -50 -83q-66 -95 -170 -95q-51 0 -112 20.5t-98 20.5q-45 0 -81 -10.5t-53.5 -23t-30.5 -23t-18 -10.5q-15 0 -30 13 t-15 28z" />
<glyph unicode="&#xa3;" horiz-adv-x="1044" d="M27 10q0 31 18 31q58 0 99.5 38t62.5 105q37 125 37 238l-113 -41l-33 90l146 53q-5 51 -34.5 180t-29.5 187q0 169 109 257.5t280 88.5q31 0 87 -13.5t114 -13.5q12 0 36 13.5t34 13.5q51 0 51 -27q0 -7 -8.5 -28t-8.5 -33q0 -43 8.5 -125t8.5 -115q0 -11 -13 -20.5 t-24 -9.5q-14 0 -14 14q0 110 -88 179t-199 69q-99 0 -162 -49t-63 -144q0 -73 26.5 -210.5t30.5 -164.5l221 84l33 -90l-254 -94q0 -194 -49 -330q-8 -19 -8 -32q0 -35 90.5 -52.5t183.5 -17.5q114 0 208.5 92.5t94.5 210.5q0 14 13 23.5t26 9.5q17 0 17 -12q0 -8 -3.5 -74 t-3.5 -94q0 -56 14.5 -127t14.5 -84q0 -23 -37 -23q-5 0 -12.5 3.5t-16 9.5t-12.5 8q-31 16 -96 16q-26 0 -111.5 -18.5t-124.5 -18.5q-76 0 -214.5 18.5t-321.5 18.5q-3 0 -6.5 3.5t-3.5 6.5z" />
<glyph unicode="&#xa9;" horiz-adv-x="1406" d="M61 610q0 176 87 329t236.5 244t324.5 91q131 0 251 -54t207 -143.5t139 -212t52 -254.5q0 -176 -87.5 -325t-237 -235.5t-324.5 -86.5q-131 0 -251 51t-207 137.5t-138.5 206.5t-51.5 252zM131 610q0 -157 78 -290t211 -210t289 -77q117 0 224 45.5t185 123t124 184.5 t46 224q0 157 -78 293t-211.5 216.5t-289.5 80.5q-155 0 -289 -80.5t-211.5 -216.5t-77.5 -293zM342 586q0 84 20 165.5t60 154t110.5 117t161.5 44.5q31 0 81 -17.5t71 -17.5q26 0 45 27q5 8 18 8q10 0 19.5 -9t9.5 -18t-12.5 -48t-12.5 -68q0 -16 4.5 -48.5t4.5 -56.5 q0 -13 -10 -23t-25 -10q-7 0 -13 5.5t-6 11.5q0 75 -56 134.5t-128 59.5q-42 0 -76.5 -15.5t-57.5 -40.5t-40 -61.5t-26 -71.5t-14.5 -77.5t-7 -73.5t-1.5 -65q0 -40 8.5 -84.5t29.5 -92t50.5 -84.5t76.5 -61t103 -24q41 0 69 6t55 25t46.5 38t54.5 60q9 12 23 12 q12 0 23.5 -15t11.5 -30q0 -6 -3 -11.5t-9 -13.5l-7 -8q-86 -94 -148.5 -132t-164.5 -38q-70 0 -127 26t-95.5 69.5t-65 101.5t-38.5 121t-12 129z" />
<glyph unicode="&#xab;" horiz-adv-x="811" d="M92 500q0 16 25 37q128 117 272 319q7 10 29 10q19 0 36 -17t17 -34q0 -6 -4 -14q-72 -108 -117 -166t-112 -131q120 -125 249 -320q5 -10 5 -14q0 -21 -32 -40t-61 -19q-18 0 -28 16q-105 212 -269 354q-10 10 -10 19zM367 500q0 16 24 37q131 119 273 319q8 10 28 10 q19 0 36 -17t17 -34q0 -6 -4 -14q-72 -108 -117 -166t-112 -131q123 -128 250 -320q4 -8 4 -14q0 -21 -31.5 -40t-60.5 -19q-19 0 -29 16q-106 214 -268 354q-10 10 -10 19z" />
<glyph unicode="&#xad;" horiz-adv-x="542" d="M61 408v96h420v-96h-420z" />
<glyph unicode="&#xae;" horiz-adv-x="1452" d="M61 610q0 176 87 329t236.5 244t324.5 91q131 0 251 -54t207 -143.5t139 -212t52 -254.5q0 -176 -87.5 -325t-237 -235.5t-324.5 -86.5q-131 0 -251 51t-207 137.5t-138.5 206.5t-51.5 252zM131 610q0 -157 78 -290t211 -210t289 -77q117 0 224 45.5t185 123t124 184.5 t46 224q0 157 -78 293t-211.5 216.5t-289.5 80.5q-155 0 -289 -80.5t-211.5 -216.5t-77.5 -293zM371 236q0 26 12 26q40 0 65 20t25 60v580q0 34 -23.5 52.5t-60.5 18.5q-6 0 -6 17q0 8 4 16t8 8h123q44 0 136.5 5t105.5 5q90 0 151.5 -50t61.5 -146q0 -74 -52 -128.5 t-122 -70.5q50 -17 88 -100l86 -195q26 -59 67 -59q18 0 39 14.5t25 14.5q9 0 17.5 -9.5t8.5 -19.5q0 -2 -1 -3.5t-3 -4t-4 -4.5t-5.5 -4.5t-6.5 -4.5t-8.5 -5.5t-9 -6t-9.5 -6t-10 -6.5t-19 -13.5t-21.5 -14.5t-18 -8.5t-21.5 -4.5q-42 0 -61 15.5t-47 72.5l-125 262 q-44 90 -189 90v-307q0 -80 95 -80q8 0 8 -14q0 -10 -5 -18.5t-12 -8.5h-280q-6 0 -6 15zM571 702q19 0 70.5 -4t79.5 -4q64 0 107.5 27.5t43.5 91.5q0 75 -45 121.5t-120 46.5h-111q-25 0 -25 -29v-250z" />
<glyph unicode="&#xbb;" horiz-adv-x="768" d="M76 838q0 21 31.5 40t60.5 19q19 0 29 -16q105 -212 268 -353q10 -8 10 -20q0 -16 -24 -37q-73 -66 -151.5 -156.5t-123.5 -164.5q-6 -9 -18 -9q-19 0 -40.5 14.5t-21.5 32.5q0 13 8 25q70 106 113.5 160.5t112.5 130.5q-71 74 -125.5 143t-122.5 172q-6 12 -6 19z M344 838q0 21 31.5 40t60.5 19q19 0 29 -16q105 -212 268 -353q10 -8 10 -20q0 -16 -24 -37q-73 -66 -151.5 -156.5t-123.5 -164.5q-6 -9 -18 -9q-19 0 -40 14.5t-21 32.5q0 13 8 25q71 107 114 162t111 129q-71 74 -125.5 143t-122.5 172q-6 12 -6 19z" />
<glyph unicode="&#x401;" horiz-adv-x="1019" d="M27 14q0 10 5.5 18.5t12.5 8.5q62 0 98.5 31t36.5 94v915q0 55 -33.5 85t-89.5 30q-10 0 -10 14q0 9 6 18t13 9h663q31 0 84.5 9t69.5 9q28 0 28 -18l21 -264q0 -9 -5.5 -20t-17.5 -11t-25.5 8t-13.5 19q0 81 -78.5 135.5t-181.5 54.5h-237q-16 0 -28.5 -11t-12.5 -32 v-344h254q101 0 133 39q11 14 33 14q24 0 24 -10q0 -9 -2 -27t-2 -24q0 -34 11.5 -99.5t11.5 -105.5q0 -9 -14.5 -19t-26.5 -10q-15 0 -15 11q0 72 -49 113.5t-119 41.5h-198q-16 0 -28.5 -11t-12.5 -32v-501q0 -41 54.5 -58.5t125.5 -17.5q107 0 187.5 19.5t125.5 53 t66.5 72t21.5 82.5q0 19 43 19q8 0 12.5 -7t4.5 -12l-41 -303h-895q-10 0 -10 14zM233 1495q0 33 28.5 61.5t57.5 28.5q26 0 46 -10q43 -21 56 -38.5t13 -57.5q0 -56 -29 -90.5t-73 -34.5q-41 0 -70 46.5t-29 94.5zM551 1495q0 33 28.5 61.5t57.5 28.5q25 0 45 -10 q43 -21 56.5 -38.5t13.5 -57.5q0 -56 -29.5 -90.5t-73.5 -34.5q-41 0 -69.5 46.5t-28.5 94.5z" />
<glyph unicode="&#x407;" horiz-adv-x="542" d="M61 1155v82h420v-82h-420z" />
<glyph unicode="&#x410;" horiz-adv-x="1284" d="M0 14q0 10 5.5 18.5t12.5 8.5q58 0 106.5 49.5t76.5 118.5l329 840q19 47 19 96q0 7 -3 25t-3 30q0 10 18 12.5t46 12.5t46 35q11 14 37 14q21 0 21 -14q0 -63 14 -101l416 -1020q40 -98 133 -98q10 0 10 -12q0 -10 -8.5 -19.5t-18.5 -9.5h-434q-10 0 -10 16q0 9 5.5 17 t12.5 8q52 0 88.5 23.5t36.5 64.5q0 22 -8 43l-137 369h-408l-116 -310q-17 -50 -17 -88q0 -50 39.5 -76t100.5 -26q10 0 10 -12q0 -10 -8 -19.5t-17 -9.5h-385q-10 0 -10 14zM442 618h349l-177 443z" />
<glyph unicode="&#x411;" horiz-adv-x="1019" d="M27 14q0 10 5.5 18.5t12.5 8.5q62 0 98.5 31t36.5 94v915q0 55 -33.5 85t-89.5 30q-10 0 -10 14q0 9 6 18t13 9h634q31 0 84.5 9t69.5 9q29 0 29 -18l20 -264q0 -10 -5 -20.5t-17 -10.5t-25.5 8t-13.5 19q0 81 -78.5 135.5t-181.5 54.5h-209q-16 0 -28.5 -11t-12.5 -32 v-344h282q98 0 182.5 -41t138.5 -124.5t54 -192.5q0 -178 -122.5 -305t-291.5 -127q-24 0 -146 9t-177 9h-215q-10 0 -10 14zM332 100q33 -10 93.5 -17t98.5 -7q169 0 249.5 75t80.5 242q0 70 -47.5 136.5t-119.5 106.5t-144 40h-211v-576z" />
<glyph unicode="&#x412;" horiz-adv-x="1064" d="M20 14q0 9 6 18t13 9q62 0 98.5 31t36.5 94v915q0 55 -33.5 85t-89.5 30q-10 0 -10 14q0 10 5.5 18.5t12.5 8.5h265q51 0 139.5 9t122.5 9q78 0 146 -30.5t113.5 -95.5t45.5 -152q0 -79 -45 -154t-115 -108q53 -11 104.5 -36.5t97 -65.5t73.5 -98.5t28 -125.5 q0 -169 -131 -288t-317 -119q-42 0 -161.5 9t-186.5 9h-207q-11 0 -11 14zM326 111q56 -27 115 -35t147 -8q115 0 196.5 89.5t81.5 217.5q0 113 -82 189.5t-219 76.5h-239v-530zM326 731h229q84 0 130 62t46 155q0 55 -21.5 97.5t-57 66t-74.5 35.5t-80 12h-131 q-16 0 -28.5 -11t-12.5 -32v-385z" />
<glyph unicode="&#x413;" horiz-adv-x="929" d="M27 12q0 10 5 19.5t13 9.5q62 0 98.5 31t36.5 94v915q0 55 -33.5 85t-89.5 30q-10 0 -10 14q0 9 6 18t13 9h673q31 0 84.5 9t69.5 9q29 0 29 -18l20 -264q0 -10 -5 -20.5t-17 -10.5t-25.5 8t-13.5 19q0 81 -78.5 135.5t-181.5 54.5h-289v-993q0 -125 145 -125h2 q13 0 13 -14q0 -10 -7.5 -18.5t-17.5 -8.5h-430q-10 0 -10 12z" />
<glyph unicode="&#x414;" horiz-adv-x="1232" d="M-8 -213q0 24 11 103.5t11 109.5q0 15 -4 51.5t-4 65.5q0 10 11 17t24 7q15 0 25 -7.5t14.5 -17t18.5 -17t38 -7.5q66 106 110.5 259.5t60.5 281.5t16 237v211q0 55 -33.5 85t-89.5 30q-11 0 -11 14q0 9 6 18t13 9h915q5 0 10 -5t5 -11q0 -10 -7 -17.5t-20 -7.5 q-47 0 -81 -34t-34 -81v-989h60q35 0 58 12.5t36.5 24.5t26.5 12q14 0 25 -8t11 -20q0 -11 -14 -70.5t-14 -105.5q0 -25 4 -80t4 -66q0 -12 -10.5 -21.5t-22.5 -9.5q-8 0 -15 5.5t-7 11.5q0 32 -9.5 68.5t-28 72t-52 59t-74.5 23.5h-733q-57 0 -103.5 -43.5t-68 -95.5 t-21.5 -92q0 -9 -22 -9q-13 0 -24 8t-11 19zM262 92h580v1049h-420v-273q0 -195 -34 -381.5t-126 -394.5z" />
<glyph unicode="&#x415;" horiz-adv-x="1019" d="M20 14q0 9 6 18t13 9q62 0 98.5 31t36.5 94v915q0 55 -33.5 85t-89.5 30q-10 0 -10 14q0 10 5.5 18.5t12.5 8.5h664q31 0 84.5 9t69.5 9q28 0 28 -18l21 -264q0 -9 -5.5 -20t-17.5 -11t-25.5 8t-13.5 19q0 81 -78.5 135.5t-181.5 54.5h-237q-16 0 -28.5 -11t-12.5 -32 v-344h254q101 0 133 39q11 14 32 14q25 0 25 -10q0 -9 -2 -27t-2 -24q0 -34 11 -99.5t11 -105.5q0 -9 -14 -19t-26 -10q-15 0 -15 11q0 72 -49 113.5t-119 41.5h-198q-16 0 -28.5 -11t-12.5 -32v-501q0 -41 54.5 -58.5t125.5 -17.5q107 0 187.5 19.5t125.5 53t66.5 72 t21.5 82.5q0 19 43 19q8 0 12.5 -7t4.5 -12l-41 -303h-895q-11 0 -11 14z" />
<glyph unicode="&#x416;" horiz-adv-x="1830" d="M14 92q0 15 13 30t26 15q14 0 43 -21.5t51 -21.5q52 0 97 96l221 465q19 41 43 67t52.5 38t53.5 16t60 4l-285 285q-60 59 -144.5 95t-156.5 36q-10 0 -10 14q0 10 5.5 18.5t12.5 8.5h443q12 0 12 -14q0 -9 -7 -18t-16 -9q-69 0 -69 -59q0 -40 39 -76l352 -350v370 q0 55 -33.5 85t-89.5 30q-10 0 -10 14q0 10 5.5 18.5t12.5 8.5h393q13 0 13 -12q0 -9 -8 -19t-17 -10q-47 0 -81 -34t-34 -81v-370l353 350q39 39 39 78q0 25 -17.5 41t-52.5 16q-10 0 -10 14q0 10 5.5 18.5t12.5 8.5h416q12 0 12 -14q0 -9 -6.5 -18t-15.5 -9 q-54 0 -135 -37t-140 -94l-284 -285q35 0 60 -4t53.5 -16t52 -38t42.5 -67l222 -465q45 -96 96 -96q27 0 55.5 21.5t40.5 21.5q13 0 25 -15t12 -30q0 -6 -7.5 -12.5t-27 -18.5t-30.5 -20q-5 -3 -33.5 -23.5t-40.5 -28.5t-33.5 -17t-38.5 -9q-66 0 -93 22.5t-67 110.5 l-192 424q-21 48 -34 72t-34 45.5t-47 29t-67 7.5l-91 -78v-430q0 -125 146 -125h2q12 0 12 -14q0 -10 -7 -18.5t-17 -8.5h-430q-11 0 -11 12q0 10 5.5 19.5t13.5 9.5q62 0 98.5 31t36.5 94v430l-90 78q-41 0 -67 -7.5t-47 -29t-34 -45.5t-34 -72l-193 -424 q-40 -88 -67 -110.5t-93 -22.5q-17 0 -38.5 10.5t-53 30.5t-45.5 27q-31 15 -52.5 33t-21.5 28z" />
<glyph unicode="&#x417;" horiz-adv-x="946" d="M49 324q0 13 11.5 22.5t25.5 9.5q41 0 51 -26q21 -49 50 -91.5t68 -80.5t90 -60t108 -22q142 0 215 86.5t73 224.5q0 116 -68.5 185t-197.5 69q-51 0 -102 -14.5t-56 -14.5q-24 0 -24 47q0 40 33 54q42 18 157 18q89 0 144 61t55 128q0 122 -74.5 179.5t-183.5 57.5 q-103 0 -175.5 -74t-72.5 -172q0 -14 -18 -14q-13 0 -25 8.5t-12 22.5q0 41 8 102t8 86q0 19 -8 62t-8 59q0 14 11 25.5t26 11.5q13 0 48 -28.5t58 -28.5q34 0 106.5 19t118.5 19q51 0 97.5 -7t94.5 -26t82.5 -48t56.5 -77.5t22 -111.5q0 -88 -50 -159.5t-139 -118.5 q112 -31 184 -105.5t72 -175.5t-29.5 -182t-77 -132.5t-112 -86t-130.5 -48.5t-136 -14q-24 0 -62.5 13.5t-84 38.5t-89 69.5t-67.5 97.5q-16 36 -35 65.5t-28 45t-9 31.5z" />
<glyph unicode="&#x418;" horiz-adv-x="1261" d="M27 12q0 10 5 19.5t13 9.5q62 0 98.5 31t36.5 94v915q0 55 -33.5 85t-89.5 30q-10 0 -10 14q0 9 6 18t13 9h393q12 0 12 -12q0 -9 -8 -19t-17 -10q-47 0 -80.5 -34t-33.5 -81v-780l596 780q0 55 -33.5 85t-89.5 30q-10 0 -10 14q0 10 5.5 18.5t12.5 8.5h393q13 0 13 -12 q0 -9 -8 -19t-17 -10q-47 0 -81 -34t-34 -81v-915q0 -125 146 -125h2q12 0 12 -14q0 -10 -7.5 -18.5t-17.5 -8.5h-430q-10 0 -10 12q0 10 5.5 19.5t13.5 9.5q62 0 98.5 31t36.5 94v782l-596 -782q0 -125 145 -125h2q13 0 13 -14q0 -10 -7.5 -18.5t-17.5 -8.5h-430 q-10 0 -10 12z" />
<glyph unicode="&#x419;" horiz-adv-x="1261" d="M27 12q0 10 5 19.5t13 9.5q62 0 98.5 31t36.5 94v915q0 55 -33.5 85t-89.5 30q-10 0 -10 14q0 9 6 18t13 9h393q12 0 12 -12q0 -9 -8 -19t-17 -10q-47 0 -80.5 -34t-33.5 -81v-780l596 780q0 55 -33.5 85t-89.5 30q-10 0 -10 14q0 10 5.5 18.5t12.5 8.5h393q13 0 13 -12 q0 -9 -8 -19t-17 -10q-47 0 -81 -34t-34 -81v-915q0 -125 146 -125h2q12 0 12 -14q0 -10 -7.5 -18.5t-17.5 -8.5h-430q-10 0 -10 12q0 10 5.5 19.5t13.5 9.5q62 0 98.5 31t36.5 94v782l-596 -782q0 -125 145 -125h2q13 0 13 -14q0 -10 -7.5 -18.5t-17.5 -8.5h-430 q-10 0 -10 12zM332 1450q0 47 17 75t57 56q9 6 20 6q14 0 28.5 -9t14.5 -19q0 -2 -13.5 -27t-13.5 -62q0 -49 54.5 -73.5t134.5 -24.5q79 0 132.5 24.5t53.5 73.5q0 22 -6.5 41t-13 30t-6.5 13q0 10 16 20.5t31 10.5q14 0 22 -8q39 -28 53.5 -53.5t14.5 -73.5 q0 -33 -13.5 -58.5t-39 -41t-52 -25t-65 -14t-65 -5.5t-62.5 -1q-45 0 -76.5 1.5t-77 9.5t-74.5 22.5t-50 43t-21 68.5z" />
<glyph unicode="&#x41a;" horiz-adv-x="1171" d="M20 12q0 10 5.5 19.5t13.5 9.5q62 0 98.5 31t36.5 94v915q0 55 -33.5 85t-89.5 30q-10 0 -10 14q0 10 5.5 18.5t12.5 8.5h394q12 0 12 -12q0 -9 -8 -19t-17 -10q-47 0 -80.5 -34t-33.5 -81v-376l352 356q39 42 39 78q0 57 -70 57q-10 0 -10 10q0 31 18 31h420 q15 0 15 -12q0 -9 -10 -19t-19 -10q-54 0 -135 -37t-140 -94l-284 -285q35 0 60 -4t53.5 -16t52.5 -38t43 -67l221 -465q45 -96 96 -96q43 0 80 37q6 6 14 6q13 0 26 -16t13 -31q0 -8 -6 -14q-103 -113 -205 -113q-66 0 -92.5 22.5t-66.5 110.5l-193 424q-21 48 -34 72 t-34 45.5t-47 29t-67 7.5l-90 -78v-430q0 -125 145 -125h2q12 0 12 -14q0 -10 -7 -18.5t-17 -8.5h-430q-11 0 -11 12z" />
<glyph unicode="&#x41b;" horiz-adv-x="1220" d="M0 225q0 11 14 21t27 10q12 0 20 -19t14 -41.5t28 -41.5t57 -19q51 0 90 55.5t61 137.5t35.5 190t18 197t4.5 176v190q0 55 -33.5 85t-89.5 30q-10 0 -10 14q0 10 5.5 18.5t12.5 8.5h917q5 0 10 -5t5 -11q0 -10 -7 -17.5t-20 -7.5q-47 0 -81 -34t-34 -81v-915 q0 -125 146 -125h2q12 0 12 -14q0 -10 -7 -18.5t-17 -8.5h-430q-11 0 -11 12q0 10 5.5 19.5t13.5 9.5q62 0 98.5 31t36.5 94v975h-428v-318q0 -33 -1.5 -73t-6 -110.5t-14.5 -138t-25 -145t-40 -142t-57.5 -118t-79 -84t-102.5 -30.5q-30 0 -52 10.5t-34.5 25t-21 39.5 t-11.5 43t-6 47q-2 15 -5.5 34t-6 31t-2.5 13z" />
<glyph unicode="&#x41c;" horiz-adv-x="1495" d="M0 18q0 8 5.5 15.5t12.5 7.5q58 0 93 33.5t43 95.5l106 920q0 1 1 8.5t1 13.5q0 40 -36.5 62t-90.5 22q-10 0 -10 14q0 10 5.5 18.5t12.5 8.5h248q15 0 22 -8t15 -33l324 -1003l313 919q8 22 17 60t16.5 51.5t23.5 13.5h256q11 0 11 -12q0 -8 -7.5 -18.5t-15.5 -10.5 q-50 0 -84.5 -20.5t-34.5 -63.5q0 -5 2 -17t2 -16l92 -911q8 -72 32.5 -99.5t88.5 -27.5h2q13 0 13 -14q0 -10 -7.5 -18.5t-17.5 -8.5h-405q-11 0 -11 12q0 10 5.5 19.5t13.5 9.5q44 0 69.5 4t46.5 24t21 58q0 7 -1 22.5t-1 16.5l-78 844l-303 -875q-4 -4 -19.5 -19 t-18.5 -18.5t-13.5 -16t-13 -19.5t-7.5 -20t-6.5 -27t-1.5 -31q0 -8 -14.5 -14.5t-28.5 -6.5q-28 0 -36.5 12t-8.5 35q0 27 -8 58l-303 956l-92 -838q-4 -40 -4 -55q0 -90 151 -90q10 0 10 -12q0 -29 -22 -29h-365q-10 0 -10 18z" />
<glyph unicode="&#x41d;" horiz-adv-x="1263" d="M20 12q0 10 5.5 19.5t13.5 9.5q62 0 98.5 31t36.5 94v915q0 55 -33.5 85t-89.5 30q-10 0 -10 14q0 10 5.5 18.5t12.5 8.5h394q5 0 9.5 -5t4.5 -11q0 -10 -7 -17.5t-20 -7.5q-47 0 -80.5 -34t-33.5 -81v-350h600v350q0 55 -33.5 85t-89.5 30q-10 0 -10 14q0 10 5.5 18.5 t12.5 8.5h393q5 0 10 -5t5 -11q0 -10 -7 -17.5t-20 -7.5q-47 0 -81 -34t-34 -81v-915q0 -125 148 -125q12 0 12 -14q0 -10 -7.5 -18.5t-17.5 -8.5h-430q-10 0 -10 12q0 10 5.5 19.5t13.5 9.5q62 0 98.5 31t36.5 94v475h-600v-475q0 -125 145 -125h2q12 0 12 -14 q0 -10 -7 -18.5t-17 -8.5h-430q-11 0 -11 12z" />
<glyph unicode="&#x41e;" horiz-adv-x="1136" d="M33 555q0 124 45.5 248.5t122.5 225t191 163.5t241 63q140 0 249.5 -86.5t165.5 -221.5t56 -290q0 -133 -45.5 -258.5t-123.5 -222t-190.5 -155t-238.5 -58.5q-102 0 -192.5 52t-151 136.5t-95 190t-34.5 213.5zM193 616q0 -80 12.5 -155t41 -146t70.5 -123.5t107 -84 t145 -31.5q92 0 164.5 40t118 110t69 159.5t23.5 192.5q0 117 -20.5 215t-63 178t-117.5 125t-176 45q-96 0 -170 -46t-117.5 -122.5t-65 -167.5t-21.5 -189z" />
<glyph unicode="&#x41f;" horiz-adv-x="1261" d="M27 12q0 10 5 19.5t13 9.5q62 0 98.5 31t36.5 94v915q0 55 -33.5 85t-89.5 30q-10 0 -10 14q0 9 6 18t13 9h1144q5 0 10 -5t5 -11q0 -10 -7 -17.5t-20 -7.5q-47 0 -81 -34t-34 -81v-915q0 -125 146 -125h2q12 0 12 -14q0 -10 -7 -18.5t-17 -8.5h-431q-10 0 -10 12 q0 10 5.5 19.5t13.5 9.5q62 0 98.5 31t36.5 94v975h-600v-975q0 -125 145 -125h2q13 0 13 -14q0 -10 -7.5 -18.5t-17.5 -8.5h-430q-10 0 -10 12z" />
<glyph unicode="&#x420;" horiz-adv-x="985" d="M20 12q0 10 5.5 19.5t13.5 9.5q62 0 98.5 31t36.5 94v915q0 55 -33.5 85t-89.5 30q-10 0 -10 14q0 10 5.5 18.5t12.5 8.5h189q68 0 208 9t160 9q65 0 122 -18t103.5 -53t73.5 -93.5t27 -132.5q0 -162 -124 -280.5t-290 -118.5q-117 0 -202 45v-438q0 -125 145 -125h2 q12 0 12 -14q0 -10 -7 -18.5t-17 -8.5h-430q-11 0 -11 12zM326 696q78 -55 206 -55q105 0 178.5 71t73.5 189q0 119 -67 188.5t-185 69.5h-165q-16 0 -28.5 -11t-12.5 -32v-420z" />
<glyph unicode="&#x421;" horiz-adv-x="927" d="M31 602q0 100 21.5 195t65.5 177.5t104.5 145.5t144.5 99t180 36q32 0 89 -14t81 -14q31 0 52 14t32 14q39 0 39 -18q0 -13 -10.5 -45t-10.5 -49q0 -33 10.5 -104t10.5 -111q0 -11 -13.5 -18t-27.5 -7q-15 0 -15 8q0 111 -74 178.5t-182 67.5q-76 0 -134.5 -31t-94.5 -81 t-59 -119.5t-32 -138.5t-9 -146q0 -56 6 -111.5t19.5 -120.5t40 -119.5t63.5 -100.5t94.5 -72.5t128.5 -26.5q81 0 156.5 48.5t156.5 129.5q6 6 17 6q10 0 17 -12t7 -26t-6 -23q-82 -108 -192 -179t-236 -71q-90 0 -165 40.5t-124.5 105.5t-84.5 150t-50.5 171.5 t-15.5 171.5z" />
<glyph unicode="&#x422;" horiz-adv-x="937" d="M2 940l16 299q0 16 31 16q16 0 68.5 -9t83.5 -9h522q31 0 82.5 9t68.5 9q37 0 37 -16l19 -309q0 -6 -10 -10.5t-21 -4.5q-8 0 -14 4.5t-6 10.5q0 27 -21 76.5t-53 78.5q-62 56 -203 56h-65v-975q0 -125 145 -125h2q12 0 12 -14q0 -10 -7 -18.5t-17 -8.5h-430 q-11 0 -11 12q0 10 5.5 19.5t13.5 9.5q62 0 98.5 31t36.5 94v975h-63q-139 0 -197 -49q-33 -28 -53.5 -76.5t-20.5 -79.5q0 -21 -35 -21q-14 0 -14 25z" />
<glyph unicode="&#x423;" horiz-adv-x="1083" d="M6 1210q0 9 6 18t13 9h411q13 0 13 -14q0 -9 -7 -18t-16 -9q-46 0 -83.5 -13.5t-37.5 -41.5q0 -14 23 -68l284 -688l256 680q17 40 17 63q0 31 -43 49.5t-90 18.5q-11 0 -11 14q0 9 6 18t13 9h334q12 0 12 -14q0 -9 -7 -18t-16 -9q-43 0 -67.5 -28.5t-46.5 -84.5 l-369 -966q-27 -72 -75.5 -113t-110.5 -41q-39 0 -68 11.5t-29 25.5q0 60 -10.5 110t-21.5 78.5t-11 36.5q0 16 13.5 23.5t31.5 7.5q11 0 15 -8q3 -4 22 -46t37 -62.5t43 -20.5q64 0 113 121l-387 843q-50 113 -146 113q-10 0 -10 14z" />
<glyph unicode="&#x424;" horiz-adv-x="1306" d="M31 596q0 124 82 237.5t207 180.5t251 67q0 56 -33 85.5t-89 29.5q-11 0 -11 14q0 9 6 18t13 9h393q12 0 12 -12q0 -9 -7.5 -19t-16.5 -10q-47 0 -81 -34t-34 -81q82 0 157.5 -14t146 -46t122.5 -79.5t83.5 -120t31.5 -162.5q0 -124 -81.5 -239.5t-207 -184.5t-252.5 -69 q0 -125 145 -125h2q13 0 13 -14q0 -10 -7.5 -18.5t-17.5 -8.5h-430q-10 0 -10 12q0 10 5 19.5t13 9.5q62 0 98.5 31t36.5 94q-103 0 -196 24.5t-171.5 74t-125.5 135t-47 196.5zM184 629q0 -174 103 -277.5t284 -103.5v758q-172 0 -279.5 -99.5t-107.5 -277.5zM723 248 q172 0 279.5 99.5t107.5 277.5q0 174 -103 277.5t-284 103.5v-758z" />
<glyph unicode="&#x425;" horiz-adv-x="1290" d="M0 12q0 10 5 19.5t13 9.5q85 0 177 117l374 471l-325 456q-43 61 -79.5 86t-88.5 25q-10 0 -10 12q0 10 5 19.5t13 9.5h455q12 0 12 -14q0 -10 -8 -18.5t-17 -8.5q-43 0 -87 -22.5t-44 -61.5q0 -32 37 -78l225 -311l291 334q27 34 27 67q0 37 -41.5 54.5t-91.5 17.5 q-11 0 -11 16q0 9 6 17t13 8h393q12 0 12 -12q0 -9 -7.5 -19t-16.5 -10q-69 0 -152 -96l-368 -445l379 -497q89 -117 159 -117q15 0 15 -14q0 -10 -8 -18.5t-17 -8.5h-459q-10 0 -10 14q0 10 5.5 18.5t12.5 8.5q130 0 130 68q0 46 -37 94l-258 344l-267 -344 q-43 -56 -43 -92q0 -70 113 -70q10 0 10 -10t-7 -20.5t-17 -10.5h-402q-10 0 -10 12z" />
<glyph unicode="&#x426;" horiz-adv-x="1265" d="M27 14q0 10 5.5 18.5t12.5 8.5q62 0 98.5 31t36.5 94v915q0 55 -33.5 85t-89.5 30q-10 0 -10 14q0 9 6 18t13 9h393q12 0 12 -12q0 -9 -8 -19t-17 -10q-47 0 -80.5 -34t-33.5 -81v-989h600v989q0 55 -33.5 85t-89.5 30q-10 0 -10 14q0 10 5.5 18.5t12.5 8.5h393 q13 0 13 -12q0 -9 -8 -19t-17 -10q-47 0 -81 -34t-34 -81v-989q35 0 58 12.5t36.5 24.5t26.5 12q14 0 25.5 -8t11.5 -20q0 -11 -14.5 -70.5t-14.5 -105.5q0 -25 4.5 -80t4.5 -66q0 -12 -10.5 -21.5t-22.5 -9.5q-8 0 -15.5 5.5t-7.5 11.5q0 32 -9.5 68.5t-28 72t-52 59 t-74.5 23.5h-964q-10 0 -10 14z" />
<glyph unicode="&#x427;" horiz-adv-x="1177" d="M8 1210q0 9 6 18t13 9h393q12 0 12 -12q0 -9 -7.5 -19t-16.5 -10q-47 0 -81 -34t-34 -81v-129q0 -135 95 -216t235 -81q57 0 86 2.5t68.5 15.5t76.5 40v368q0 55 -33.5 85t-89.5 30q-10 0 -10 14q0 10 5.5 18.5t12.5 8.5h394q12 0 12 -12q0 -9 -8 -19t-17 -10 q-47 0 -80.5 -34t-33.5 -81v-915q0 -125 145 -125h2q16 0 13 -18q-7 -20 -25 -23h-430q-8 0 -9.5 10t4 20.5t13.5 10.5q62 0 98.5 31t36.5 94v434q-175 -59 -336 -59q-148 0 -262.5 94t-114.5 235v211q0 55 -33.5 85t-89.5 30q-10 0 -10 14z" />
<glyph unicode="&#x428;" horiz-adv-x="1648" d="M33 1210q0 10 5.5 18.5t12.5 8.5h393q13 0 13 -12q0 -9 -8 -19t-17 -10q-47 0 -81 -34t-34 -81v-985h431v985q0 55 -33.5 85t-89.5 30q-11 0 -11 14q0 9 6 18t13 9h393q12 0 12 -12q0 -9 -7.5 -19t-16.5 -10q-47 0 -81 -34t-34 -81v-985h430v985q0 55 -33.5 85t-89.5 30 q-10 0 -10 14q0 10 5.5 18.5t12.5 8.5h394q12 0 12 -12q0 -9 -8 -19t-17 -10q-47 0 -80.5 -34t-33.5 -81v-915q0 -125 145 -125h2q16 0 13 -18q-7 -20 -25 -23h-1571q-8 0 -9.5 10t4 20.5t13.5 10.5q59 0 86 29.5t27 95.5v915q0 55 -33.5 85t-89.5 30q-10 0 -10 14z" />
<glyph unicode="&#x429;" horiz-adv-x="1654" d="M8 14q0 9 6 18t13 9q62 0 98.5 31t36.5 94v915q0 55 -33.5 85t-89.5 30q-10 0 -10 14q0 10 5.5 18.5t12.5 8.5h393q13 0 13 -12q0 -9 -8 -19t-17 -10q-47 0 -81 -34t-34 -81v-985h430v985q0 56 -33 85.5t-89 29.5q-11 0 -11 14q0 9 6 18t13 9h393q12 0 12 -12 q0 -9 -7.5 -19t-16.5 -10q-47 0 -81 -34t-34 -81v-985h430v985q0 55 -33.5 85t-89.5 30q-10 0 -10 14q0 10 5.5 18.5t12.5 8.5h394q12 0 12 -12q0 -9 -8 -19t-17 -10q-47 0 -80.5 -34t-33.5 -81v-985q72 0 104 39q8 10 32.5 2t20.5 -24q-25 -99 -28 -170t8 -156 q1 -13 -12.5 -20.5t-27.5 -7t-15 9.5q-1 8 -3 23q-14 109 -32 145q-33 63 -129 63h-1377q-10 0 -10 14z" />
<glyph unicode="&#x42a;" horiz-adv-x="1101" d="M29 1253q-4 16 20.5 24.5t32.5 -1.5q32 -39 104 -39h361q5 0 9.5 -5t4.5 -11q0 -10 -6.5 -17.5t-19.5 -7.5q-47 0 -81 -34t-34 -81v-309h250q78 0 150 -22t130.5 -64t93.5 -111t35 -155q0 -95 -40 -178.5t-104.5 -139.5t-145 -88t-162.5 -32q-42 0 -135.5 9t-161.5 9 h-205q-10 0 -10 14q0 10 5.5 18.5t12.5 8.5q62 0 98.5 31t36.5 94v975q-49 0 -79.5 -12.5t-46.5 -47t-21.5 -61t-13.5 -88.5q-2 -15 -3 -23q-1 -9 -15 -9.5t-27.5 7.5t-12.5 21q11 85 8 155.5t-28 169.5zM420 98q69 -20 198 -20q149 0 221 80.5t72 230.5q0 148 -89.5 217.5 t-248.5 69.5h-153v-578z" />
<glyph unicode="&#x42b;" horiz-adv-x="1462" d="M27 14q0 10 5.5 18.5t12.5 8.5q62 0 98.5 31t36.5 94v915q0 55 -33.5 85t-89.5 30q-10 0 -10 14q0 9 6 18t13 9h393q12 0 12 -12q0 -9 -8 -19t-17 -10q-47 0 -80.5 -34t-33.5 -81v-309h250q78 0 150 -22t130.5 -64t93.5 -111t35 -155q0 -95 -40 -178.5t-104.5 -139.5 t-145 -88t-162.5 -32q-42 0 -135.5 9t-161.5 9h-205q-10 0 -10 14zM332 98q69 -20 198 -20q149 0 221 80.5t72 230.5q0 148 -89.5 217.5t-248.5 69.5h-153v-578zM979 12q0 10 5 19.5t13 9.5q62 0 99 31t37 94v915q0 55 -33.5 85t-89.5 30q-11 0 -11 14q0 9 6 18t13 9h393 q12 0 12 -12q0 -9 -7.5 -19t-16.5 -10q-47 0 -81 -34t-34 -81v-915q0 -125 146 -125h2q12 0 12 -14q0 -10 -7.5 -18.5t-17.5 -8.5h-430q-10 0 -10 12z" />
<glyph unicode="&#x42c;" horiz-adv-x="1015" d="M27 14q0 10 5.5 18.5t12.5 8.5q62 0 98.5 31t36.5 94v915q0 55 -33.5 85t-89.5 30q-10 0 -10 14q0 9 6 18t13 9h393q12 0 12 -12q0 -9 -8 -19t-17 -10q-47 0 -80.5 -34t-33.5 -81v-309h250q78 0 150 -22t130.5 -64t93.5 -111t35 -155q0 -95 -40 -178.5t-104.5 -139.5 t-145 -88t-162.5 -32q-42 0 -135.5 9t-161.5 9h-205q-10 0 -10 14zM332 98q69 -20 198 -20q149 0 221 80.5t72 230.5q0 148 -89.5 217.5t-248.5 69.5h-153v-578z" />
<glyph unicode="&#x42d;" horiz-adv-x="923" d="M49 213q-14 18 0 45q14 26 33 12l2 -2q47 -43 73.5 -65t70.5 -53.5t85.5 -45.5t83.5 -14q71 0 128.5 26.5t94.5 72.5t64 100.5t40.5 119.5t19.5 121t6 111v41q-11 14 -33 14h-199q-70 0 -119 -41.5t-49 -113.5q0 -18 -27 -7q-26 11 -28 25q-3 40 12 121.5t6 130.5 q-2 8 11 11q25 7 43 -7l4 -4q13 -18 38.5 -27t44 -10.5t50.5 -1.5h237q-8 64 -21 117t-37.5 104t-57.5 86t-83 56.5t-112 21.5q-104 0 -176.5 -64.5t-89.5 -181.5q-1 -8 -14.5 -8.5t-27 6.5t-13.5 19q0 38 11 100t11 109.5t-22 91.5q-5 9 6 18.5t25.5 11.5t23.5 -4 q34 -34 69 -34q22 0 100 17t122 17q120 0 211 -49t145 -135t80.5 -194t26.5 -236q0 -86 -15.5 -176t-50 -181t-84 -161.5t-125 -115t-164.5 -44.5q-121 0 -235.5 72.5t-194.5 177.5z" />
<glyph unicode="&#x42e;" horiz-adv-x="1538" d="M25 12q0 10 5 19.5t13 9.5q62 0 98.5 31t36.5 94v915q0 55 -33.5 85t-89.5 30q-10 0 -10 14q0 10 5.5 18.5t12.5 8.5h394q12 0 12 -12q0 -9 -8 -19t-17 -10q-47 0 -80.5 -34t-33.5 -81v-350h137q26 106 78 200t124 166.5t168 115t201 42.5q106 0 197 -50.5t151.5 -134 t95 -191t34.5 -222.5q0 -133 -45.5 -258.5t-123.5 -222t-190.5 -155t-238.5 -58.5q-102 0 -192.5 52t-151 136.5t-95.5 190t-35 213.5q0 35 7 86h-121v-475q0 -125 145 -125h2q12 0 12 -14q0 -10 -7 -18.5t-17 -8.5h-430q-10 0 -10 12zM604 616q0 -102 21 -194t63.5 -171.5 t118 -127t174.5 -47.5q92 0 164.5 40t118 110t69 159.5t23.5 192.5q0 118 -20 215t-62.5 177t-118 124.5t-178.5 44.5q-77 0 -140.5 -30.5t-106 -81t-71.5 -118.5t-42 -141.5t-13 -151.5z" />
<glyph unicode="&#x42f;" horiz-adv-x="1165" d="M0 90q0 19 12 33t29 14q1 0 34 -21.5t56 -21.5q47 0 96 96l150 304q70 143 131 161q-108 24 -188 106t-80 197q0 98 47 167t118.5 99.5t159.5 30.5q21 0 161 -9t208 -9h199q5 0 9.5 -5t4.5 -11q0 -10 -7 -17.5t-20 -7.5q-47 0 -80.5 -34t-33.5 -81v-915q0 -125 145 -125 h2q12 0 12 -14q0 -10 -7 -18.5t-17 -8.5h-430q-11 0 -11 12q0 10 5.5 19.5t13.5 9.5q62 0 98.5 31t36.5 94v489q-106 0 -179 -27.5t-112 -111.5l-194 -420q-40 -88 -67 -110.5t-93 -22.5q-34 0 -64.5 11t-46.5 23t-42.5 34.5t-35.5 29.5q-6 5 -13 15t-7 14zM395 901 q0 -50 19.5 -86t54 -55.5t73.5 -28t85 -8.5q41 0 118 6t109 6v381q0 21 -12.5 32t-28.5 11h-166q-118 0 -185 -69.5t-67 -188.5z" />
<glyph unicode="&#x430;" horiz-adv-x="856" d="M37 211q0 77 27.5 137t68.5 96t101.5 66t114.5 47t120 40.5t106 43.5q0 143 -41 197.5t-135 54.5q-83 0 -156 -63.5t-93 -141.5q-3 -12 -19 -12q-13 0 -26 6.5t-13 13.5q0 12 10 42.5t20.5 83.5t10.5 120q0 33 23 33q13 0 42 -13.5t46 -13.5q34 0 102.5 18.5t108.5 18.5 q108 0 181 -61.5t73 -159.5v-598q0 -40 10.5 -66t30.5 -26q13 0 41.5 22.5t39.5 22.5q9 0 18 -13.5t9 -27.5q0 -11 -12 -23q-23 -17 -70 -43q-6 -3 -19.5 -11t-19.5 -11.5t-17 -6.5t-22 -3q-64 0 -93.5 43.5t-29.5 109.5q-64 -70 -151 -120t-178 -50q-107 0 -158 69.5 t-51 178.5zM188 217q0 -61 30 -102t83 -41q85 0 162 63.5t112 155.5v248q-19 -6 -63.5 -19.5t-68 -20.5t-63 -23t-62 -30.5t-51 -38t-43.5 -50t-25.5 -63t-10.5 -79.5z" />
<glyph unicode="&#x431;" horiz-adv-x="970" d="M61 465q0 157 5.5 247t25.5 212q17 98 45 167t78 125.5t131 84.5t195 28q75 0 129 10t75.5 22t37 22t22.5 10q13 0 28 -10t15 -19q0 -15 -24 -41t-64.5 -54.5t-108.5 -49.5t-143 -21q-81 0 -141 -26t-93.5 -65.5t-53.5 -98t-26 -110.5t-6 -116q126 203 353 203 q96 0 172 -47t119.5 -120t65.5 -152.5t22 -155.5q0 -126 -65.5 -253t-177.5 -210.5t-233 -83.5q-73 0 -137 32.5t-108 85t-76 119t-47 134.5t-15 131zM213 483q0 -46 7.5 -96.5t28 -107.5t50.5 -101t80 -73t113 -29q71 0 126.5 34t87 91t47 122.5t15.5 137.5q0 56 -9 112.5 t-30.5 114.5t-52.5 102.5t-79.5 72.5t-107.5 28q-65 0 -115.5 -28.5t-80 -71.5t-48.5 -100t-25.5 -107.5t-6.5 -100.5z" />
<glyph unicode="&#x432;" horiz-adv-x="937" d="M41 584q0 144 33 285t94 259.5t161 191.5t222 73q45 0 92 -12.5t94.5 -39t78 -78t30.5 -120.5q0 -98 -47 -166t-172 -135q127 -29 199.5 -141t72.5 -269q0 -125 -62.5 -233t-171 -172t-235.5 -64q-119 0 -210 93.5t-135 233t-44 294.5zM193 676q0 -304 67.5 -452 t210.5 -148q131 0 204 87t73 224q0 69 -16 134.5t-48 122.5t-88 91.5t-129 34.5q-51 0 -80 -12.5t-63 -46.5q-6 -6 -16.5 -20.5t-19 -23t-16.5 -8.5q-10 0 -19 19.5t-9 40.5q0 16 10 26q67 51 125 77.5t176 64.5q63 20 108.5 72.5t45.5 119.5q0 95 -49 146t-134 51 t-151 -54.5t-104.5 -144t-58 -192t-19.5 -209.5z" />
<glyph unicode="&#x433;" horiz-adv-x="737" d="M41 209q0 68 26.5 124.5t69.5 95t94.5 72t103.5 61t95 55t69.5 62.5t26.5 75q0 75 -50.5 116t-119.5 41q-99 0 -151.5 -63t-52.5 -152q0 -8 -13 -8q-12 0 -27.5 10t-15.5 19q0 24 3 65.5t3 61.5q0 34 -12 70.5t-12 39.5q0 21 22 21q13 0 21 -8q6 -6 12.5 -9.5t12 -5.5 t14.5 -3t13 -1h14.5h13.5q18 0 74.5 18.5t99.5 18.5q50 0 88 -3.5t77.5 -15t65.5 -31t42 -53t16 -79.5q0 -71 -26 -124t-67.5 -85t-92 -58.5t-100.5 -52t-91.5 -56.5t-67.5 -82.5t-26 -119.5t50.5 -117t123.5 -49q116 0 182.5 76t66.5 193q0 12 17 12q14 0 26.5 -10.5 t12.5 -22.5q0 -37 -6.5 -104t-6.5 -101q0 -28 7 -72l6 -44q0 -23 -23 -23q-25 0 -33 19q-12 45 -32 45q-12 0 -45.5 -16t-84.5 -32t-106 -16q-67 0 -121 13t-96.5 41t-66 76.5t-23.5 115.5z" />
<glyph unicode="&#x434;" horiz-adv-x="884" d="M31 465q0 91 33 182.5t91.5 167t150.5 123t200 47.5q42 0 90.5 -18.5t83.5 -18.5q33 0 63.5 11.5t34.5 11.5q12 0 23.5 -11t11.5 -22q0 -12 -8.5 -26t-18 -26.5t-18 -42t-8.5 -69.5v-774q0 -99 -58 -201.5t-153.5 -170.5t-194.5 -68q-69 0 -132.5 20.5t-109.5 67.5 t-46 112q0 68 73.5 125.5t110.5 57.5q13 0 24 -11.5t11 -23.5q0 -10 -13 -17q-25 -13 -38 -31.5t-15 -30.5t-2 -30q0 -71 46 -107t116 -36q113 0 180.5 136t67.5 343q-17 -12 -55 -41.5t-62 -46.5t-61.5 -32t-73.5 -15q-78 0 -145.5 46t-109.5 116.5t-65.5 150t-23.5 152.5z M182 506q0 -57 14.5 -121.5t42.5 -126t76 -101.5t107 -40t118.5 47t86.5 110v566q-62 51 -158 51q-71 0 -125 -27t-83.5 -66.5t-48.5 -94.5t-24.5 -101.5t-5.5 -95.5z" />
<glyph unicode="&#x435;" horiz-adv-x="790" d="M31 465q0 72 13 143t43 139.5t73.5 121t109.5 84.5t146 32q65 0 118 -22.5t88 -60.5t59.5 -90t35 -110t10.5 -122q0 -8 -6.5 -14.5t-13.5 -6.5h-529q-8 -55 -8 -102q0 -97 30 -177.5t95.5 -133t155.5 -52.5q67 0 116 30.5t117 98.5q25 25 33 25q19 0 28 -14.5t9 -34.5 q0 -16 -11 -27q-18 -19 -48.5 -46.5t-59.5 -57.5q-101 -105 -234 -105q-93 0 -166 44.5t-116.5 118.5t-65.5 160.5t-22 178.5zM184 641h367q20 0 20 14q0 112 -50 182t-138 70q-151 0 -199 -266z" />
<glyph unicode="&#x436;" horiz-adv-x="1517" d="M2 111q0 9 7.5 15.5t15.5 6.5q7 0 38 -19.5t64 -19.5q32 0 55 22t51 74l160 293q31 57 65.5 84t86.5 21l-248 243q-42 42 -86 59t-105 17q-10 0 -10 15q0 9 6 17.5t13 8.5h362q10 0 10 -10q0 -9 -9.5 -20t-18.5 -11q-25 0 -45.5 -10.5t-20.5 -30.5q0 -18 21 -39l286 -307 v654q0 86 -24.5 113.5t-108.5 27.5q-8 0 -8 16q0 9 6.5 17t14.5 8q89 0 147 18.5t80 18.5q45 0 45 -37q0 -17 -9 -66.5t-9 -81.5v-688l286 307q21 25 21 35q0 22 -19.5 33.5t-44.5 11.5q-10 0 -10 13q0 10 5 19t13 9h371q10 0 10 -10t-9.5 -20.5t-18.5 -10.5 q-68 0 -113.5 -17t-87.5 -59l-248 -243q52 6 86.5 -21t65.5 -84l159 -293q27 -52 50.5 -74t56.5 -22q26 0 63 19.5t41 19.5q8 0 14.5 -7.5t6.5 -16.5q0 -6 -6.5 -13t-22 -22.5t-28.5 -32.5q-47 -59 -121 -59q-94 0 -131 75l-117 236q-8 16 -17.5 37.5t-16 36.5t-15.5 33 t-17 29.5t-19 24t-23.5 19t-28.5 11t-36 4.5t-44 -5l-55 -55v-262q0 -125 145 -125h2q16 0 13 -18q-7 -20 -25 -23h-396q-13 0 -8 21q4 20 17 20q59 0 88.5 30t29.5 95v262l-55 55q-24 5 -44 5t-36 -4.5t-28.5 -11t-23.5 -19t-19 -24t-17 -29.5t-15.5 -33t-16 -36.5 t-17.5 -37.5l-117 -236q-37 -75 -131 -75q-78 0 -135 67q-43 49 -43 62z" />
<glyph unicode="&#x437;" horiz-adv-x="841" d="M43 317q0 14 13.5 25.5t27.5 11.5q13 0 16 -10q55 -145 132 -206.5t196 -61.5q94 0 164 54.5t70 154.5q0 102 -57 162.5t-163 60.5q-49 0 -81.5 -8t-46.5 -16.5t-19 -8.5q-8 0 -15.5 16t-7.5 33q0 31 53.5 45.5t114.5 14.5q185 0 185 155q0 43 -18.5 74.5t-51 48 t-68.5 24t-77 7.5q-63 0 -119 -21t-95.5 -68.5t-39.5 -113.5q0 -9 -13.5 -17.5t-25.5 -8.5q-17 0 -17 12q0 31 5 86t6 82q1 33 -5 74.5t-6 54.5q0 12 29 12q9 0 41 -18.5t68 -18.5q40 0 101 18.5t110 18.5q42 0 82.5 -6t83 -22t74.5 -41t52.5 -65.5t20.5 -92.5 q0 -159 -168 -203q110 -19 164.5 -89t54.5 -169q0 -81 -35 -146t-93.5 -105t-130.5 -61.5t-151 -21.5q-98 0 -171.5 52.5t-114.5 131.5q-74 145 -74 170z" />
<glyph unicode="&#x438;" horiz-adv-x="974" d="M25 924q0 9 6.5 16.5t13.5 7.5q89 0 147 18.5t80 18.5q45 0 45 -37q0 -17 -9 -66t-9 -81v-578q0 -53 41.5 -100t91.5 -47q83 0 159.5 71.5t113.5 163.5v455q0 85 -25 113t-109 28q-8 0 -8 17q0 9 6.5 16.5t14.5 7.5q89 0 147 18.5t80 18.5q45 0 45 -37q0 -17 -9 -66 t-9 -81v-633q0 -40 10.5 -66t30.5 -26q13 0 42 22.5t40 22.5q9 0 17.5 -13.5t8.5 -27.5q0 -11 -12 -23q-23 -17 -70 -43q-6 -3 -19.5 -11t-19.5 -11.5t-17 -6.5t-22 -3q-64 0 -93 43.5t-29 109.5v31q-33 -41 -63 -71t-72 -63t-90.5 -51t-100.5 -18q-81 0 -147 50t-66 126 v627q0 86 -24.5 113.5t-108.5 27.5q-8 0 -8 17z" />
<glyph unicode="&#x439;" horiz-adv-x="974" d="M25 924q0 9 6.5 16.5t13.5 7.5q89 0 147 18.5t80 18.5q45 0 45 -37q0 -17 -9 -66t-9 -81v-578q0 -53 41.5 -100t91.5 -47q83 0 159.5 71.5t113.5 163.5v455q0 85 -25 113t-109 28q-8 0 -8 17q0 9 6.5 16.5t14.5 7.5q89 0 147 18.5t80 18.5q45 0 45 -37q0 -17 -9 -66 t-9 -81v-633q0 -40 10.5 -66t30.5 -26q13 0 42 22.5t40 22.5q9 0 17.5 -13.5t8.5 -27.5q0 -11 -12 -23q-23 -17 -70 -43q-6 -3 -19.5 -11t-19.5 -11.5t-17 -6.5t-22 -3q-64 0 -93 43.5t-29 109.5v31q-33 -41 -63 -71t-72 -63t-90.5 -51t-100.5 -18q-81 0 -147 50t-66 126 v627q0 86 -24.5 113.5t-108.5 27.5q-8 0 -8 17zM199 1243q0 53 17 84t56 62q13 7 30 3t28.5 -16.5t3.5 -21.5q-25 -27 -25 -88q0 -54 55 -81.5t134 -27.5t133.5 27.5t54.5 81.5q0 62 -24 88q-8 9 3.5 21.5t28 16.5t29.5 -3q40 -32 57 -63t17 -83q0 -44 -21 -76t-50 -48 t-74 -25t-77.5 -11t-76.5 -2t-76.5 2t-77.5 11t-74 25t-50 48t-21 76z" />
<glyph unicode="&#x43a;" horiz-adv-x="1001" d="M33 1331q0 9 6.5 17t13.5 8q89 0 147.5 18.5t80.5 18.5q45 0 45 -37q0 -17 -9.5 -66.5t-9.5 -81.5v-688l287 307q20 23 20 35q0 22 -19.5 33.5t-43.5 11.5q-10 0 -10 13q0 10 5 19t13 9h371q10 0 10 -10t-10 -20.5t-19 -10.5q-68 0 -113 -17t-87 -59l-248 -243 q52 6 86 -21t65 -84l160 -293q27 -52 50.5 -74t56.5 -22q26 0 63 19.5t41 19.5q8 0 14.5 -7.5t6.5 -16.5q0 -6 -7 -13l-22.5 -22.5t-28.5 -32.5q-47 -59 -121 -59q-94 0 -131 75l-116 236q-8 16 -17.5 37.5t-16 36.5t-15.5 33t-17 29.5t-19 24t-24 19t-29 11t-36 4.5t-44 -5 l-55 -55v-262q0 -125 146 -125h2q16 0 12 -18q-7 -20 -25 -23h-395q-8 0 -9.5 10t4 20.5t13.5 10.5q119 0 119 125v1008q0 86 -24.5 113.5t-108.5 27.5q-8 0 -8 16z" />
<glyph unicode="&#x43b;" horiz-adv-x="968" d="M25 10q0 10 9 20.5t19 10.5q19 0 48.5 33.5t48.5 81.5l231 587q18 45 18 97q0 7 -3 25t-3 30q0 10 20.5 16.5t48.5 20.5t42 39q7 14 39 14q18 0 18 -14q0 -79 14 -117l293 -725q15 -35 24.5 -50.5t30.5 -26.5t56 -11q12 0 12 -14q0 -10 -5.5 -18.5t-12.5 -8.5h-387 q-11 0 -11 10q0 9 9.5 20t19.5 11q95 0 98 59q0 21 -14 56l-223 589l-205 -569q-10 -27 -10 -45q0 -42 37 -66t82 -24q10 0 10 -12q0 -10 -5.5 -19.5t-13.5 -9.5h-325q-10 0 -10 10z" />
<glyph unicode="&#x43c;" horiz-adv-x="1273" d="M33 16q0 9 5.5 17t12.5 8q119 0 119 125v627q0 53 -34.5 83.5t-90.5 30.5q-10 0 -10 15q0 9 5.5 17.5t12.5 8.5h289l305 -760l283 760h297q12 0 12 -12q0 -9 -8 -19t-17 -10q-49 0 -81.5 -31.5t-32.5 -82.5v-627q0 -125 147 -125q13 0 13 -16q0 -9 -7.5 -17t-17.5 -8 h-395q-11 0 -11 16q0 9 6 17t13 8q119 0 119 125v635l-246 -666q-4 -4 -19.5 -19t-18.5 -18.5t-13.5 -16t-13 -19.5t-7.5 -20t-6.5 -27t-1.5 -31q0 -8 -14.5 -14.5t-28.5 -6.5q-28 0 -36.5 12t-8.5 35q0 27 -8 58l-299 733v-635q0 -125 147 -125q13 0 13 -16q0 -9 -7.5 -17 t-17.5 -8h-338q-10 0 -10 16z" />
<glyph unicode="&#x43d;" horiz-adv-x="1001" d="M33 924q0 9 6.5 16.5t13.5 7.5q89 0 147.5 18.5t80.5 18.5q45 0 45 -37q0 -17 -9.5 -66t-9.5 -81v-242h406v207q0 86 -24.5 113.5t-108.5 27.5q-9 0 -9 17q0 9 6.5 16.5t14.5 7.5q89 0 147 18.5t80 18.5q45 0 45 -37q0 -17 -9 -66t-9 -81v-635q0 -125 147 -125 q13 0 13 -16q0 -9 -7.5 -17t-17.5 -8h-395q-11 0 -11 16q0 9 6 17t13 8q119 0 119 125v299h-406v-299q0 -125 148 -125q12 0 12 -16q0 -9 -7.5 -17t-17.5 -8h-395q-10 0 -10 16q0 9 5.5 17t12.5 8q119 0 119 125v600q0 86 -24.5 113.5t-108.5 27.5q-8 0 -8 17z" />
<glyph unicode="&#x43e;" horiz-adv-x="917" d="M31 465q0 92 34 183.5t94 167t152.5 122.5t198.5 47q96 0 172 -47t119.5 -120t65.5 -152.5t22 -155.5q0 -94 -39.5 -192.5t-103 -176.5t-151.5 -128t-179 -50q-94 0 -170 47.5t-121.5 123t-69.5 161t-24 170.5zM182 483q0 -46 7.5 -96.5t28 -107.5t50.5 -101t80 -73 t113 -29q71 0 126.5 34t87 91t47 122.5t15.5 137.5q0 56 -9 112.5t-30 114.5t-52 102.5t-79.5 72.5t-107.5 28q-80 0 -138 -41.5t-86.5 -108t-40.5 -130t-12 -128.5z" />
<glyph unicode="&#x43f;" horiz-adv-x="1026" d="M33 924q0 9 6.5 16.5t13.5 7.5q89 0 147.5 18.5t80.5 18.5q45 0 45 -37q0 -17 -9.5 -66t-9.5 -81q70 85 139.5 134.5t159.5 49.5q57 0 109.5 -19.5t91.5 -64.5t39 -108v-627q0 -125 147 -125q13 0 13 -16q0 -9 -7.5 -17t-17.5 -8h-395q-11 0 -11 16q0 9 6 17t13 8 q119 0 119 125v543q0 65 -45 115t-111 50q-81 0 -145 -57.5t-105 -140.5v-510q0 -125 148 -125q12 0 12 -16q0 -9 -7.5 -17t-17.5 -8h-395q-10 0 -10 16q0 9 5.5 17t12.5 8q119 0 119 125v600q0 86 -24.5 113.5t-108.5 27.5q-8 0 -8 17z" />
<glyph unicode="&#x440;" horiz-adv-x="919" d="M33 924q0 9 6.5 16.5t13.5 7.5q89 0 147.5 18.5t80.5 18.5q45 0 45 -37q0 -17 -9.5 -66t-9.5 -81q23 33 37.5 53t41.5 48t52 43.5t61 27.5t76 12q68 0 125 -33.5t93.5 -85t62 -115t36.5 -122t11 -107.5q1 -68 -16.5 -142t-54 -144.5t-86 -127.5t-119.5 -91.5t-148 -34.5 q-40 0 -69 6.5t-56.5 17t-46.5 14.5v-258q0 -124 148 -124q12 0 12 -17q0 -9 -7.5 -16.5t-17.5 -7.5h-395q-10 0 -10 16q0 9 5.5 17t12.5 8q60 0 89.5 29.5t29.5 94.5v1004q0 86 -24.5 113.5t-108.5 27.5q-8 0 -8 17zM307 135q91 -61 203 -61q242 0 242 391q0 40 -5 85 t-20 101t-38.5 99.5t-64 73.5t-92.5 30q-71 0 -131.5 -54.5t-93.5 -123.5v-541z" />
<glyph unicode="&#x441;" horiz-adv-x="780" d="M31 465q0 72 13 143t43 139.5t73.5 121t109.5 84.5t146 32q32 0 86 -18.5t78 -18.5q15 0 34.5 18.5t30.5 18.5q12 0 22.5 -9t10.5 -20q0 -2 -7 -15.5t-13.5 -37.5t-6.5 -51q0 -21 5.5 -65.5t5.5 -69.5q0 -13 -14 -22t-27 -9q-17 0 -17 10q0 83 -52 149t-126 66 q-53 0 -94.5 -22t-67 -61t-43 -83t-25.5 -98.5t-11 -95.5t-3 -86t8 -92t27.5 -98t49 -90.5t77.5 -65t107 -25.5q138 0 239 133q2 3 7.5 10.5t8.5 10t7 2.5q12 0 26.5 -18t14.5 -35q0 -14 -11 -25q-13 -13 -45 -46.5t-45 -46t-40 -37t-45.5 -34.5t-46.5 -23t-57 -17.5 t-63 -4.5q-93 0 -166 44.5t-116.5 118.5t-65.5 160.5t-22 178.5z" />
<glyph unicode="&#x442;" horiz-adv-x="1478" d="M33 924q0 9 6.5 16.5t13.5 7.5q89 0 147.5 18.5t80.5 18.5q45 0 45 -37q0 -17 -9.5 -66t-9.5 -81q16 15 45.5 46.5t51 51t52.5 42t68 33.5t80 11q87 0 139.5 -47.5t65.5 -126.5q40 77 114.5 125.5t168.5 48.5q87 0 153 -51.5t66 -122.5v-645q0 -125 147 -125q12 0 12 -16 q0 -9 -7 -17t-17 -8h-395q-11 0 -11 16q0 9 6 17t13 8q119 0 119 125v571q0 48 -38.5 92.5t-92.5 44.5q-71 0 -134 -56t-104 -142v-510q0 -125 147 -125q13 0 13 -16q0 -9 -7.5 -17t-17.5 -8h-395q-10 0 -10 16q0 9 5.5 17t12.5 8q119 0 119 125v571q0 49 -37.5 93t-93.5 44 q-24 0 -46.5 -6.5t-43 -21t-36 -27t-34 -36t-28 -36t-27.5 -39.5t-23 -34v-508q0 -125 148 -125q12 0 12 -16q0 -9 -7.5 -17t-17.5 -8h-395q-10 0 -10 16q0 9 5.5 17t12.5 8q119 0 119 125v600q0 86 -24.5 113.5t-108.5 27.5q-8 0 -8 17z" />
<glyph unicode="&#x443;" horiz-adv-x="987" d="M8 -168q0 16 14.5 28.5t30.5 12.5q7 0 16 -22.5t18.5 -49t33.5 -49t57 -22.5q78 0 123.5 26t81.5 107l70 153l-330 795q-13 33 -46 64.5t-59 31.5q-10 0 -10 13q0 10 5.5 19t13.5 9h368q11 0 11 -10q0 -11 -8 -21t-19 -10q-30 0 -54 -20t-24 -56q0 -27 14 -59l224 -563 l221 532q16 43 16 70q0 45 -31.5 70.5t-89.5 25.5q-10 0 -10 13q0 10 5.5 19t13.5 9h327q10 0 10 -12q0 -9 -9.5 -19t-18.5 -10q-28 0 -54.5 -36.5t-44.5 -77.5l-442 -1006q-47 -109 -126 -168t-177 -59q-28 0 -55 12.5t-27 24.5q0 60 -9.5 115t-19.5 86t-10 34z" />
<glyph unicode="&#x444;" horiz-adv-x="1386" d="M31 436q0 73 20.5 149.5t61.5 147.5t96.5 127.5t133 90.5t163.5 34q57 0 121 -37v226q0 86 -24.5 113.5t-108.5 27.5q-9 0 -9 16q0 9 6.5 17t14.5 8q89 0 147 18.5t80 18.5q45 0 45 -37q0 -17 -9 -66.5t-9 -81.5v-260q10 5 28.5 13.5t25 11t19 6.5t23.5 5t25 1 q86 0 163.5 -34t133 -90.5t96.5 -127.5t61.5 -147.5t20.5 -149.5q0 -57 -14.5 -119t-44 -122t-69.5 -107.5t-96.5 -76.5t-119.5 -29q-36 0 -73.5 15t-61.5 32t-62 46.5t-55 41.5v-353q0 -124 147 -124q13 0 13 -17q0 -9 -7.5 -16.5t-17.5 -7.5h-395q-11 0 -11 16q0 9 6 17 t13 8q60 0 89.5 29.5t29.5 94.5v353q-17 -12 -55 -41.5t-62 -46.5t-61.5 -32t-73.5 -15q-63 0 -119.5 29t-96.5 76.5t-69.5 107.5t-44 122t-14.5 119zM182 479q0 -57 14.5 -120.5t42.5 -123t76 -98.5t107 -39t119 44t86 106v600q-53 43 -158 43q-71 0 -125 -30t-83.5 -73.5 t-48.5 -102.5t-24.5 -107.5t-5.5 -98.5zM760 248q26 -62 86 -106t119 -44t107 39t75.5 98.5t42 123t14.5 120.5q0 50 -5.5 98.5t-24 107.5t-48.5 102.5t-83.5 73.5t-124.5 30q-105 0 -158 -43v-600z" />
<glyph unicode="&#x445;" horiz-adv-x="987" d="M12 14q0 9 6 18t13 9q46 0 81.5 19t75.5 75l244 340l-287 383q-39 49 -102 49q-10 0 -10 15q0 9 5.5 17.5t12.5 8.5h381q12 0 12 -12q0 -9 -9.5 -19t-18.5 -10q-32 0 -57 -21.5t-25 -49.5q0 -18 12 -33l164 -230l147 232q13 23 13 39q0 27 -19.5 45t-46.5 18 q-10 0 -10 17q0 9 5.5 16.5t12.5 7.5h324q12 0 12 -12q0 -10 -9.5 -19.5t-18.5 -9.5q-50 0 -76 -13.5t-47 -43.5l-236 -346l258 -369q32 -47 67 -70.5t87 -23.5q12 0 12 -10q0 -9 -9.5 -20t-19.5 -11h-368q-13 0 -13 18q0 8 6 15.5t13 7.5q88 0 88 53q0 21 -14 41l-181 273 l-188 -273q-18 -27 -18 -51q0 -43 77 -43q11 0 11 -10t-7.5 -20.5t-17.5 -10.5h-321q-11 0 -11 14z" />
<glyph unicode="&#x446;" horiz-adv-x="1021" d="M25 924q0 9 6.5 16.5t13.5 7.5q89 0 147 18.5t80 18.5q45 0 45 -37q0 -17 -9 -66t-9 -81v-578q0 -53 41.5 -100t91.5 -47q83 0 159.5 71.5t113.5 163.5v455q0 85 -25 113t-109 28q-8 0 -8 17q0 9 6.5 16.5t14.5 7.5q89 0 147 18.5t80 18.5q45 0 45 -37q0 -17 -9 -66 t-9 -81v-633q0 -24 18 -39.5t43 -15.5q15 0 27 10t12 29t22 21.5t29 -17.5q27 -74 17 -156q-5 -42 -26 -113t-32 -118q-3 -17 -39.5 -13.5t-36.5 17.5q0 54 32 125.5t32 140.5q-72 -57 -137 -57q-33 0 -55.5 26.5t-30.5 59t-8 67.5v31q-33 -41 -63 -71t-72 -63t-90.5 -51 t-100.5 -18q-81 0 -147 50t-66 126v627q0 86 -24.5 113.5t-108.5 27.5q-8 0 -8 17z" />
<glyph unicode="&#x447;" horiz-adv-x="983" d="M12 924q0 9 6.5 16.5t14.5 7.5q89 0 147 18.5t80 18.5q45 0 45 -37q0 -17 -9 -66t-9 -81v-205q0 -67 41.5 -119.5t113.5 -52.5q71 0 140 56t112 132v154q0 86 -24.5 113.5t-108.5 27.5q-8 0 -8 17q0 9 6.5 16.5t13.5 7.5q89 0 147.5 18.5t80.5 18.5q45 0 45 -37 q0 -17 -9.5 -66t-9.5 -81v-635q0 -125 148 -125q12 0 12 -16q0 -9 -7 -17t-17 -8h-396q-10 0 -10 16q0 9 5.5 17t12.5 8q119 0 119 125v317q-45 -47 -66 -67t-62.5 -51.5t-84 -44.5t-92.5 -13q-99 0 -167 60.5t-68 152.5v246q0 85 -25 113t-109 28q-8 0 -8 17z" />
<glyph unicode="&#x448;" horiz-adv-x="1449" d="M25 924q0 9 6.5 16.5t13.5 7.5q89 0 147 18.5t80 18.5q45 0 45 -37q0 -17 -9 -66t-9 -81v-590q0 -48 38.5 -92.5t92.5 -44.5q71 0 134 56t104 142v494q0 86 -24.5 113.5t-108.5 27.5q-9 0 -9 17q0 9 6.5 16.5t14.5 7.5q89 0 147 18.5t80 18.5q45 0 45 -37q0 -17 -9 -66 t-9 -81v-590q0 -49 37.5 -93t93.5 -44q28 0 55.5 11t45.5 22.5t42.5 39.5t33.5 40t33 47t27 40v492q0 86 -24.5 113.5t-108.5 27.5q-8 0 -8 17q0 9 6.5 16.5t14.5 7.5q89 0 147 18.5t80 18.5q45 0 45 -37q0 -17 -9 -66t-9 -81v-633q0 -41 10.5 -67.5t29.5 -26.5q4 0 9 1 t8.5 2.5t9.5 5t9 5.5t9.5 7t9 7l10 8t9.5 7q12 11 27 -10q18 -26 1 -45q-2 -3 -5 -5q-8 -6 -26 -19t-25.5 -18.5t-22.5 -14.5t-25 -12.5t-23 -7t-26 -3.5q-64 0 -93.5 43.5t-29.5 109.5v12q-16 -15 -45.5 -46.5t-51 -51t-52.5 -42t-68 -33.5t-80 -11q-87 0 -139 47.5 t-65 126.5q-40 -77 -114.5 -125.5t-168.5 -48.5q-87 0 -153 51.5t-66 122.5v629q0 86 -24.5 113.5t-108.5 27.5q-8 0 -8 17z" />
<glyph unicode="&#x449;" horiz-adv-x="1490" d="M25 924q0 9 6.5 16.5t13.5 7.5q89 0 147 18.5t80 18.5q45 0 45 -37q0 -17 -9 -66t-9 -81v-590q0 -48 38.5 -92.5t92.5 -44.5q71 0 134 56t104 142v494q0 86 -24.5 113.5t-108.5 27.5q-9 0 -9 17q0 9 6.5 16.5t14.5 7.5q89 0 147 18.5t80 18.5q45 0 45 -37q0 -17 -9 -66 t-9 -81v-590q0 -49 37.5 -93t93.5 -44q28 0 55.5 11t45.5 22.5t42.5 39.5t33.5 40t33 47t27 40v492q0 86 -24.5 113.5t-108.5 27.5q-8 0 -8 17q0 9 6.5 16.5t14.5 7.5q89 0 147 18.5t80 18.5q45 0 45 -37q0 -17 -9 -66t-9 -81v-633q0 -24 18 -39.5t43 -15.5q15 0 27 10 t12 29t21.5 21.5t29.5 -17.5q27 -72 16 -156q-6 -42 -26.5 -113.5t-30.5 -117.5q-3 -17 -39.5 -13.5t-36.5 17.5q0 54 32 125.5t32 140.5q-72 -57 -137 -57q-34 0 -56.5 26.5t-30.5 59t-8 67.5v12q-16 -15 -45.5 -46.5t-51 -51t-52.5 -42t-68 -33.5t-80 -11q-87 0 -139 47.5 t-65 126.5q-40 -77 -114.5 -125.5t-168.5 -48.5q-87 0 -153 51.5t-66 122.5v629q0 86 -24.5 113.5t-108.5 27.5q-8 0 -8 17z" />
<glyph unicode="&#x44a;" horiz-adv-x="958" d="M20 655q0 45 17.5 143.5t17.5 149.5q0 14 11 25.5t22 11.5q19 0 105 -18.5t149 -18.5h209q18 0 11 -20q-8 -20 -23 -21q-49 0 -82 -31.5t-33 -82.5v-218h162q66 0 125 -15.5t108.5 -46t79 -84.5t29.5 -124q0 -144 -106.5 -233.5t-284.5 -89.5q-30 0 -113.5 9t-132.5 9 h-121q-8 0 -9.5 10t4 20.5t13.5 10.5q59 0 86 29.5t27 95.5v674q0 16 -26.5 24t-59.5 8q-30 0 -54 -14t-37.5 -33.5t-24 -52t-15 -56.5t-8.5 -59q-1 -6 -12.5 -8.5t-22.5 -1t-11 7.5zM424 72q72 -17 129 -17q98 0 160.5 58t62.5 157q0 230 -252 230h-100v-428z" />
<glyph unicode="&#x44b;" horiz-adv-x="1241" d="M33 924q0 9 6.5 16.5t13.5 7.5q89 0 147.5 18.5t80.5 18.5q45 0 45 -37q0 -17 -9.5 -66t-9.5 -81v-226h162q66 0 125 -15.5t108.5 -46t79 -84.5t29.5 -124q0 -144 -106.5 -233.5t-284.5 -89.5q-30 0 -113.5 9t-132.5 9h-121q-8 0 -9.5 10t4 20.5t13.5 10.5q59 0 86 29.5 t27 95.5v600q0 86 -24.5 113.5t-108.5 27.5q-8 0 -8 17zM307 72q72 -17 129 -17q98 0 160.5 58t62.5 157q0 230 -251 230h-101v-428zM788 924q0 9 6.5 16.5t14.5 7.5q89 0 147 18.5t80 18.5q45 0 45 -37q0 -17 -9 -66t-9 -81v-635q0 -125 147 -125q13 0 13 -16 q0 -9 -7.5 -17t-17.5 -8h-395q-10 0 -10 16q0 9 5.5 17t12.5 8q119 0 119 125v600q0 86 -24.5 113.5t-108.5 27.5q-9 0 -9 17z" />
<glyph unicode="&#x44c;" horiz-adv-x="835" d="M33 924q0 9 6.5 16.5t13.5 7.5q89 0 147.5 18.5t80.5 18.5q45 0 45 -37q0 -17 -9.5 -66t-9.5 -81v-226h162q66 0 125 -15.5t108.5 -46t79 -84.5t29.5 -124q0 -144 -106.5 -233.5t-284.5 -89.5q-30 0 -113.5 9t-132.5 9h-121q-8 0 -9.5 10t4 20.5t13.5 10.5q59 0 86 29.5 t27 95.5v600q0 86 -24.5 113.5t-108.5 27.5q-8 0 -8 17zM307 72q72 -17 129 -17q98 0 160.5 58t62.5 157q0 230 -251 230h-101v-428z" />
<glyph unicode="&#x44d;" horiz-adv-x="798" d="M68 211.5q7 18.5 23.5 30.5t21.5 6q33 -41 57.5 -67t61.5 -58t77 -48t82 -16q61 0 109 29.5t76.5 73.5t47 101t25 106.5t6.5 95.5h-249q-20 0 -33 -7t-19 -15t-16.5 -26.5t-18.5 -29.5q-5 -8 -27 -8.5t-24 8.5q-4 36 6 83t9 85q0 20 26 20q33 0 83 -8t89 -8h174 q0 62 -13.5 121.5t-40.5 112.5t-77 85.5t-116 32.5q-75 0 -134 -67t-59 -148q0 -14 -25 -8q-29 6 -32 25v4q7 57 6 127.5t-21 103.5q-9 16 12.5 31t34.5 -2q15 -19 23.5 -24t26.5 -5q24 0 95 18.5t103 18.5q88 0 154 -24.5t106.5 -64.5t65.5 -101t34 -125t9 -144 q0 -97 -29.5 -196t-81 -181t-132 -134t-173.5 -52q-34 0 -62.5 4.5t-53.5 17t-42.5 23t-40.5 33.5t-36 37t-39 45.5t-41 48.5q-15 21 -8 39.5z" />
<glyph unicode="&#x44e;" horiz-adv-x="1310" d="M33 924q0 9 6.5 16.5t13.5 7.5q89 0 147.5 18.5t80.5 18.5q45 0 45 -37q0 -17 -9.5 -66t-9.5 -81v-242h131q14 84 48.5 158t90.5 135t141 97t189 36q96 0 172 -47t119.5 -120t65.5 -152.5t22 -155.5q0 -94 -39.5 -192.5t-103 -176.5t-152.5 -128t-180 -50 q-76 0 -140.5 31.5t-108 82.5t-74.5 117.5t-45.5 135t-14.5 135.5h-121v-299q0 -125 148 -125q12 0 12 -16q0 -9 -7.5 -17t-17.5 -8h-395q-10 0 -10 16q0 9 5.5 17t12.5 8q119 0 119 125v600q0 86 -24.5 113.5t-108.5 27.5q-8 0 -8 17zM580 483q0 -38 5.5 -79.5t17.5 -88.5 t34 -88.5t51.5 -76t73 -54.5t96.5 -20q71 0 126.5 34t87 91t47.5 123t16 137q0 56 -9 112.5t-30.5 114.5t-52.5 102.5t-79.5 72.5t-107.5 28q-65 0 -115.5 -28.5t-80 -71.5t-48.5 -100t-25.5 -107.5t-6.5 -100.5z" />
<glyph unicode="&#x44f;" horiz-adv-x="948" d="M8 113q0 12 9.5 24.5t17.5 12.5q11 0 49 -36t57 -36q24 0 44.5 17t36 50t25.5 60t22.5 70.5t17.5 58.5q32 98 131 102q-52 4 -109 33.5t-101 85.5t-44 121q0 142 91 215.5t239 73.5q38 0 110.5 -8.5t110.5 -8.5h190q13 0 13 -12q0 -9 -8 -19t-17 -10q-49 0 -82 -31.5 t-33 -82.5v-627q0 -125 148 -125q12 0 12 -16q0 -9 -7.5 -17t-17.5 -8h-395q-10 0 -10 16q0 9 5.5 17t12.5 8q119 0 119 125v258h-72q-60 0 -90.5 -31t-58.5 -110q-45 -129 -66 -171q-65 -130 -159 -130q-42 0 -89 28.5t-74.5 59t-27.5 43.5zM299 690q0 -88 59 -130t152 -42 h135v318q0 14 -8 23t-21 9h-106q-211 0 -211 -178z" />
<glyph unicode="&#x451;" horiz-adv-x="790" d="M43 465q0 72 13 143t43 139.5t73.5 121t109.5 84.5t146 32q65 0 118 -22.5t88 -60.5t59.5 -90t35 -110t10.5 -122q0 -8 -6.5 -14.5t-13.5 -6.5h-529q-8 -55 -8 -102q0 -97 30 -177.5t95.5 -133t155.5 -52.5q67 0 116 30.5t117 98.5q25 25 33 25q19 0 28 -14.5t9 -34.5 q0 -17 -10 -27q-18 -19 -49 -46.5t-60 -57.5q-101 -105 -233 -105q-75 0 -137.5 29.5t-105 79t-72 115t-43 135.5t-13.5 143zM156 1184q0 33 28.5 61.5t57.5 28.5q25 0 45 -10q42 -21 55.5 -39t13.5 -58q0 -56 -29 -90.5t-73 -34.5q-41 0 -69.5 47t-28.5 95zM197 641h366 q21 0 21 14q0 112 -50 182t-139 70q-150 0 -198 -266zM473 1184q0 33 28.5 61.5t57.5 28.5q25 0 45 -10q43 -21 56.5 -39t13.5 -58q0 -56 -29.5 -90.5t-73.5 -34.5q-41 0 -69.5 47t-28.5 95z" />
<glyph unicode="&#x491;" horiz-adv-x="542" d="M59 1059l285 178l33 -57l-297 -158z" />
<glyph unicode="&#x2000;" horiz-adv-x="793" />
<glyph unicode="&#x2001;" horiz-adv-x="1587" />
<glyph unicode="&#x2002;" horiz-adv-x="793" />
<glyph unicode="&#x2003;" horiz-adv-x="1587" />
<glyph unicode="&#x2004;" horiz-adv-x="529" />
<glyph unicode="&#x2005;" horiz-adv-x="396" />
<glyph unicode="&#x2006;" horiz-adv-x="264" />
<glyph unicode="&#x2007;" horiz-adv-x="264" />
<glyph unicode="&#x2008;" horiz-adv-x="198" />
<glyph unicode="&#x2009;" horiz-adv-x="317" />
<glyph unicode="&#x200a;" horiz-adv-x="88" />
<glyph unicode="&#x2010;" horiz-adv-x="542" d="M61 408v96h420v-96h-420z" />
<glyph unicode="&#x2011;" horiz-adv-x="542" d="M61 408v96h420v-96h-420z" />
<glyph unicode="&#x2012;" horiz-adv-x="542" d="M61 408v96h420v-96h-420z" />
<glyph unicode="&#x2013;" horiz-adv-x="774" d="M41 504v96h676v-96h-676z" />
<glyph unicode="&#x2014;" horiz-adv-x="1304" d="M45 504v96h1212v-96h-1212z" />
<glyph unicode="&#x2018;" horiz-adv-x="342" d="M61 948q0 87 36.5 171t101.5 151q6 6 16 6q14 0 29.5 -15t15.5 -30q0 -11 -6 -17q-80 -76 -80 -159q0 -13 26.5 -34t53.5 -48t27 -53q0 -44 -33.5 -76.5t-73.5 -32.5q-41 0 -77 41t-36 96z" />
<glyph unicode="&#x2019;" horiz-adv-x="342" d="M61 1165q0 44 33.5 76.5t73.5 32.5q41 0 77 -41t36 -96q0 -87 -36.5 -171t-101.5 -151q-6 -6 -16 -6q-14 0 -29.5 15t-15.5 30q0 10 6 16q80 76 80 160q0 13 -26.5 34t-53.5 48t-27 53z" />
<glyph unicode="&#x201c;" horiz-adv-x="610" d="M61 948q0 87 36.5 171t101.5 151q6 6 16 6q14 0 29.5 -15t15.5 -30q0 -11 -6 -17q-80 -76 -80 -159q0 -13 26.5 -34t53.5 -48t27 -53q0 -44 -33.5 -76.5t-73.5 -32.5q-41 0 -77 41t-36 96zM330 948q0 87 36 171.5t101 150.5q6 6 16 6q14 0 29.5 -15t15.5 -30 q0 -11 -6 -17q-80 -76 -80 -159q0 -11 16.5 -26.5t37 -30t37 -36t16.5 -42.5q0 -44 -33.5 -76.5t-73.5 -32.5q-41 0 -76.5 41t-35.5 96z" />
<glyph unicode="&#x201d;" horiz-adv-x="610" d="M61 1165q0 44 33.5 76.5t73.5 32.5q41 0 77 -41t36 -96q0 -87 -36.5 -171t-101.5 -151q-6 -6 -16 -6q-14 0 -29.5 15t-15.5 30q0 10 6 16q80 76 80 160q0 13 -26.5 34t-53.5 48t-27 53zM330 1165q0 44 33 76.5t73 32.5q41 0 77 -41t36 -96q0 -87 -36 -171.5t-101 -150.5 q-6 -6 -17 -6q-14 0 -29.5 15t-15.5 30q0 10 6 16q80 76 80 160q0 11 -16.5 26.5t-36.5 30t-36.5 36t-16.5 42.5z" />
<glyph unicode="&#x201e;" horiz-adv-x="610" d="M61 98q0 44 33.5 76.5t73.5 32.5q41 0 77 -41t36 -96q0 -87 -36.5 -171t-101.5 -151q-6 -6 -16 -6q-14 0 -29.5 15t-15.5 30q0 10 6 16q80 76 80 160q0 13 -26.5 34t-53.5 48t-27 53zM330 98q0 44 33 76.5t73 32.5q41 0 77 -41t36 -96q0 -87 -36 -171.5t-101 -150.5 q-6 -6 -17 -6q-14 0 -29.5 15t-15.5 30q0 10 6 16q80 76 80 160q0 11 -16.5 26.5t-36.5 30t-36.5 36t-16.5 42.5z" />
<glyph unicode="&#x2022;" horiz-adv-x="589" d="M82 504q0 89 62.5 152t150.5 63t150.5 -63t62.5 -152t-62.5 -153t-150.5 -64t-150.5 64t-62.5 153z" />
<glyph unicode="&#x2026;" horiz-adv-x="1349" d="M102 117q0 35 30 64.5t63 29.5q62 0 94.5 -33.5t32.5 -77.5q0 -58 -33.5 -97.5t-79.5 -39.5q-43 0 -75 51t-32 103zM565 117q0 35 29.5 64.5t62.5 29.5q62 0 94.5 -33.5t32.5 -77.5q0 -58 -33 -97.5t-79 -39.5q-43 0 -75 51t-32 103zM1028 117q0 35 29.5 64.5t62.5 29.5 q62 0 94.5 -33.5t32.5 -77.5q0 -58 -33 -97.5t-79 -39.5q-43 0 -75 51t-32 103z" />
<glyph unicode="&#x202f;" horiz-adv-x="317" />
<glyph unicode="&#x205f;" horiz-adv-x="396" />
<glyph unicode="&#x20ac;" d="M35 504l22 59h93v66v55h-115l22 59h97q21 275 113.5 403t289.5 128q196 0 270 -100l9 -132h-35q-12 81 -68.5 123.5t-150.5 42.5q-143 0 -210 -114t-83 -351h456l-22 -59h-436v-57v-64h389l-23 -59h-364q25 -475 293 -475q87 0 146.5 40.5t70.5 127.5h37l-9 -127 q-77 -105 -270 -105q-190 0 -287 133t-114 406h-121z" />
<glyph unicode="&#x2122;" horiz-adv-x="1269" d="M51 1073v178q0 11 21 11q5 0 9.5 -1.5t7.5 -3t3 -2.5q7 -18 41 -18h305q16 0 33.5 12.5t30.5 12.5q7 0 12.5 -4t5.5 -7v-178q0 -10 -8 -16t-18 -6q-15 0 -15 12q0 119 -82 119h-73v-447q0 -44 14.5 -60t71.5 -16q10 0 10 -14q0 -9 -10 -18t-19 -9h-229q-10 0 -10 17 q0 9 5.5 16.5t12.5 7.5q33 0 55.5 19t22.5 57v447h-74q-82 0 -82 -119q0 -12 -10 -12q-13 0 -22 6t-9 16zM459 631q0 10 5 19t13 9q38 0 54.5 18.5t23.5 72.5l55 387q4 16 4 28q0 31 -69 31q-10 0 -10 14q0 10 5.5 18.5t12.5 8.5h143l164 -512l160 512h145q11 0 11 -10 q0 -9 -9.5 -20t-19.5 -11q-21 0 -35 -12t-14 -37q0 -9 2 -25t2 -18l45 -369q6 -44 20 -60t43 -16q9 0 9 -10t-6.5 -20.5t-16.5 -10.5h-186q-11 0 -11 15q0 9 6 17.5t13 8.5q57 0 57 37q0 10 -3 39l-3 29l-47 336l-141 -426q-29 -27 -39 -47q-4 -9 -21 -9q-16 0 -16 9 q0 26 -23 96l-125 377l-55 -361q-4 -28 -4 -41q0 -18 22 -28.5t48 -10.5q10 0 10 -14q0 -9 -10 -18t-19 -9h-180q-10 0 -10 13z" />
<glyph unicode="&#x25fc;" horiz-adv-x="952" d="M0 0v952h952v-952h-952z" />
</font>
</defs>
</svg>
